<svg width="49" height="23" viewBox="0 0 49 23" fill="none" xmlns="http://www.w3.org/2000/svg">
<path d="M44.9487 3.34267C45.891 2.93467 46.7884 2.48133 47.6859 2.07333C46.5192 7.01467 42.4807 10.6413 38.1282 12.908C39.2948 11.5933 40.7756 10.596 41.8525 9.19067C43.2884 7.51333 44.2307 5.47333 44.9487 3.34267Z" fill="#F68026" stroke="#F68026" stroke-width="0.5"/>
<path d="M4.1153 0.350682C5.10248 0.350682 6.08966 0.350682 7.03197 0.350682C7.25633 2.07335 7.48069 3.75068 7.74992 5.42801C8.46787 3.75068 9.18582 2.02802 9.94864 0.350682C10.9358 0.350682 11.9679 0.350682 12.955 0.350682C12.7307 3.29735 12.5961 6.24402 12.5512 9.23601C11.8333 9.23601 11.0704 9.23601 10.3076 9.23601C10.4871 7.24135 10.6666 5.29202 10.6666 3.29735C9.63453 5.20135 8.96146 7.28668 8.10889 9.23601C7.52556 9.23601 6.94223 9.23602 6.35889 9.19068C6.17941 7.19601 5.8653 5.15601 5.64094 3.11601C5.10248 5.11068 4.78838 7.19601 4.29479 9.19068C3.57684 9.23602 2.85889 9.23601 2.14094 9.23601C2.81402 6.28935 3.4871 3.34268 4.1153 0.350682ZM14.7948 0.396015C15.6025 0.350682 16.4102 0.350682 17.2179 0.350682C16.814 3.29735 16.3653 6.24402 16.0063 9.23601C15.1986 9.23601 14.3909 9.23601 13.5833 9.23601C13.9871 6.28935 14.4358 3.34268 14.7948 0.396015ZM18.6538 0.350682C20.314 0.441349 22.1089 0.078682 23.7243 0.758682C25.564 1.98268 24.8012 5.38268 22.5576 5.56401C23.1409 6.74268 23.7243 8.01201 24.3076 9.23601C23.5448 9.23601 22.782 9.23601 21.9743 9.23601C21.3909 7.83068 20.8525 6.38001 20.1794 5.06535C19.9102 6.42535 19.7756 7.83068 19.5961 9.19068C18.8781 9.23602 18.1153 9.23601 17.3974 9.23601C17.8012 6.28935 18.2499 3.34268 18.6538 0.350682ZM28.3909 0.350682C29.3781 0.350682 30.3653 0.350682 31.3076 0.350682C31.8012 3.34268 32.2499 6.28935 32.7884 9.23601C32.0256 9.23601 31.2627 9.23601 30.4999 9.23601C30.455 8.60135 30.3653 8.01201 30.3204 7.37735C29.3781 7.37735 28.4358 7.42268 27.4935 7.46802C27.2691 8.05735 27.0448 8.64668 26.8204 9.23601C26.0576 9.23601 25.2499 9.23601 24.4871 9.23601C25.8333 6.28935 27.0897 3.29735 28.3909 0.350682ZM34.5384 0.350682C36.3333 0.396015 38.173 0.396015 40.0127 0.350682C39.9679 0.985349 39.8781 1.62002 39.8332 2.25468C38.7115 2.25468 37.5897 2.20935 36.4679 2.20935C36.3781 2.75335 36.3333 3.34268 36.2884 3.88668C37.2756 3.88668 38.2627 3.88668 39.2499 3.84135C39.205 4.47602 39.1153 5.11068 39.0704 5.70002C38.0384 5.70002 37.0063 5.65468 35.9743 5.65468C35.8845 6.24401 35.8397 6.78801 35.7499 7.33202C36.8717 7.33202 37.9935 7.33202 39.1153 7.33202C39.0704 7.96668 38.9807 8.60135 38.8909 9.19068C37.0063 9.23602 35.1217 9.19068 33.2371 9.23601C33.6858 6.28935 34.0897 3.29735 34.5384 0.350682ZM5.2371 13.4067C6.22428 13.4067 7.16658 13.4067 8.15376 13.452C8.33325 14.5853 8.51274 15.7187 8.69223 16.8973C7.83966 16.6707 6.9871 16.444 6.13453 16.2627C5.50633 16.852 4.87812 17.4413 4.24992 18.076C8.33325 18.4387 12.4615 18.7107 16.5448 18.3933C16.9038 20.252 15.6474 22.428 13.673 22.5187C12.1922 22.7453 10.8012 22.02 9.67941 21.068C10.0384 20.4787 10.3974 19.844 10.7563 19.2547C11.6538 20.2067 13.8525 21.2947 14.2563 19.3C12.5063 19.2093 10.8012 19.2093 9.09607 19.1187C9.23069 20.2067 9.41017 21.2493 9.63453 22.292C8.87171 22.292 8.10889 22.292 7.34607 22.292C7.25633 21.5213 7.12171 20.796 6.9871 20.0253C6.22428 20.0253 5.41658 20.0253 4.60889 20.0253C4.29479 20.796 3.98069 21.5213 3.66659 22.292C2.90376 22.292 2.09607 22.292 1.33325 22.292C2.63453 19.3453 3.93582 16.3533 5.2371 13.4067Z" fill="#00447B" stroke="#00447B" stroke-width="0.5"/>
<path d="M11.7473 13.6842C13.1384 12.5055 15.2473 12.9135 16.7281 13.7749C16.4589 14.3189 16.1896 14.9082 15.9653 15.4522C15.1127 15.1349 13.632 14.0922 13.273 15.5429C13.5422 16.4495 14.664 16.7215 15.3371 17.2202C13.8563 17.1749 12.3307 17.0842 10.8499 17.0389C10.6255 15.8602 10.7602 14.5002 11.7473 13.6842ZM18.9135 13.3884C20.3494 12.5724 22.0545 13.0258 23.4007 13.7511C23.1763 14.3404 22.9071 14.9751 22.6378 15.5644C21.8301 15.2471 21.0225 14.3404 20.1699 15.0658C19.6314 16.1538 20.9327 16.5164 21.5609 17.0151C20.3045 17.1058 19.0032 17.1511 17.7468 17.2418C17.1635 15.9271 17.5673 14.1138 18.9135 13.3884ZM25.1153 13.4067C26.9551 13.4067 28.7948 13.4067 30.6794 13.4067C30.5897 14.0413 30.4999 14.676 30.4102 15.3107C29.2884 15.3107 28.1217 15.3107 26.9999 15.3107C26.9999 15.628 26.9102 16.172 26.9102 16.4893C26.1474 16.6253 25.3846 16.7613 24.6666 16.8973C24.8461 15.7187 24.9807 14.5853 25.1153 13.4067Z" fill="#00447B" stroke="#00447B" stroke-width="0.5"/>
<path d="M31.2626 13.4067C32.9677 13.452 34.7177 13.316 36.4228 13.5427C34.628 14.3133 32.7882 14.948 30.9485 15.5373C31.0382 14.812 31.1728 14.132 31.2626 13.4067Z" fill="#004079" stroke="#004079" stroke-width="0.5"/>
<path d="M19.9999 18.076C26.0127 17.396 32.1152 16.1267 37.5896 13.4067C37.455 14.0867 37.3204 14.7667 37.1858 15.492C36.6024 15.492 36.0191 15.492 35.4358 15.492C35.1217 17.7133 34.8524 19.9347 34.4934 22.156C33.6858 22.156 32.8781 22.156 32.0704 22.156C32.4293 20.0707 32.6537 17.9853 32.9678 15.9C31.9806 16.2627 30.9934 16.6253 29.9614 16.9427C29.8716 17.4867 29.737 18.076 29.6024 18.62C28.5704 18.5747 27.5383 18.5747 26.5063 18.6653C26.4614 19.2093 26.4165 19.7533 26.3717 20.2973C27.4934 20.252 28.6152 20.252 29.737 20.252C29.6922 20.7053 29.5575 21.6573 29.5127 22.156C27.6281 22.1107 25.7434 22.1107 23.9037 22.156C24.0383 20.8413 24.2627 19.5267 24.4422 18.212C24.2178 18.212 23.6793 18.2573 23.455 18.3027C23.3652 19.3907 23.455 20.7507 22.4678 21.5213C20.7627 23.0627 18.1152 22.3827 16.5896 20.932C16.9486 20.3427 17.3524 19.7533 17.7114 19.164C18.4742 19.708 19.2819 20.4787 20.314 20.2973C21.0768 20.2067 21.2563 18.9373 20.4486 18.756C19.5063 18.7107 18.5191 18.8467 17.5319 18.9373C17.6217 18.7107 17.7114 18.2573 17.8011 18.0307C18.5191 18.1667 19.237 18.1667 19.9999 18.076Z" fill="#00447B" stroke="#00447B" stroke-width="0.5"/>
<path d="M20.2244 4.43067C20.359 3.61467 20.4936 2.79867 20.5833 1.98267C21.2115 2.11867 22.4231 1.93733 22.3782 2.93467C22.6026 4.204 21.1218 4.43067 20.2244 4.43067ZM28.2115 5.65466C28.6603 4.52133 29.109 3.388 29.6026 2.3C29.7821 3.43333 29.9167 4.52133 30.0513 5.60933C29.4231 5.65467 28.8397 5.65466 28.2115 5.65466Z" fill="white" stroke="white" stroke-width="0.5"/>
</svg>
