<svg width="44" height="28" viewBox="0 0 44 28" fill="none" xmlns="http://www.w3.org/2000/svg">
<path d="M18.8142 1.79115C20.266 0.987941 22.1211 1.06826 23.7342 0.666656C24.6214 2.51405 26.0732 4.04015 27.4443 5.40561C27.4443 6.53011 27.4443 7.57429 27.4443 8.61846C30.9125 11.992 34.6226 15.2851 39.22 17.1325C40.0265 18.9799 41.6397 20.1847 43.3334 21.0683C42.6075 21.5502 41.8816 22.0321 41.0751 22.5944C37.8489 19.3012 33.9774 16.7309 30.3479 13.9197C28.6541 11.51 25.5086 9.34136 26.4764 5.96786C25.8312 5.24497 25.1053 4.52208 24.4601 3.87951C24.0568 4.20079 23.2502 4.84336 22.847 5.24497C22.7663 7.01204 22.6857 8.85943 21.4758 10.3052C22.4437 11.2691 23.4115 12.2329 24.4601 13.1968C24.0568 13.5984 23.2502 14.4016 22.847 14.7229C23.7342 15.6867 24.702 16.6506 25.6699 17.5341C26.2345 19.3012 26.7991 21.0683 27.6056 22.755C28.6541 22.2731 29.7027 21.7912 30.8318 21.3092C30.1059 20.0241 29.5414 18.7389 28.9768 17.3735C31.4771 18.0964 32.3643 20.5863 33.6548 22.5944C31.3158 23.3173 29.0574 24.1205 27.041 25.6466C26.4764 24.2811 25.7506 23.0763 25.0247 21.7912C24.4601 21.5502 23.8955 21.3092 23.2502 21.0683C22.9276 20.4257 22.2824 19.3012 21.9598 18.6586C20.6693 20.8273 20.508 23.3976 21.0725 25.8072C20.024 26.2891 18.8949 26.7711 17.8463 27.3333C17.6044 27.012 16.9591 26.3695 16.7172 26.0482C16.9591 24.8434 17.2011 23.7189 17.4431 22.514C16.8785 22.514 15.588 22.514 15.0234 22.514C13.9749 23.6385 12.9264 24.6827 11.8778 25.7269C11.3132 25.5663 10.1034 25.1646 9.53883 25.004C9.53883 23.8795 9.53883 22.755 9.53883 21.6305C7.11917 21.3092 4.69951 21.1486 2.52182 22.514C2.03789 22.4337 1.15068 22.1928 0.747404 22.1124C0.747404 20.9879 0.666748 19.8634 0.666748 18.6586C3.81231 17.2932 6.63524 14.9638 10.1841 15.1245C10.9906 13.9197 11.6359 12.7149 12.2811 11.51C15.2654 8.77911 16.4752 4.92368 18.8142 1.79115Z" fill="#0D388E" stroke="#0D388E" stroke-width="0.09375"/>
</svg>
