<svg width="38" height="34" viewBox="0 0 38 34" fill="none" xmlns="http://www.w3.org/2000/svg">
<path d="M4.67325 25.4457C9.43325 17.3284 14.2399 9.16422 18.9999 1L19.4199 1.09384C21.1466 3.86217 22.7333 6.72434 24.4133 9.49267C24.7866 10.0557 25.2999 10.8065 24.8333 11.4633C23.1999 14.4194 21.4266 17.3754 19.7933 20.3783C23.5266 20.3783 27.2599 20.3314 30.9933 20.3783C33.1866 24.4604 35.3799 28.5425 37.6666 32.5777V32.9531C33.8866 32.9531 30.1066 32.9531 26.3266 33C23.8999 29.0117 21.8466 24.7889 19.4199 20.8006C16.8066 24.7419 14.7533 29.0117 12.1866 33C8.26659 32.9531 4.29992 33.0469 0.333252 32.7185V32.6246C1.91992 30.3255 3.17992 27.8387 4.67325 25.4457Z" fill="#AC265B" stroke="#AC265B" stroke-width="0.09375"/>
</svg>
