<svg width="46" height="12" viewBox="0 0 46 12" fill="none" xmlns="http://www.w3.org/2000/svg">
<path d="M0.333496 0.763596C3.84914 0.763596 7.45731 0.763596 10.973 0.763596C10.973 1.53935 10.973 2.9939 10.8804 3.67269C9.86275 3.67269 8.84506 3.67269 7.82737 3.67269C7.82737 6.1939 7.82737 8.61814 7.82737 11.1394C6.3471 11.1394 4.86683 11.1394 3.38656 11.1394C3.38656 8.61814 3.38656 6.1939 3.38656 3.67269C2.64642 3.67269 1.07363 3.67269 0.333496 3.67269C0.333496 2.9939 0.333496 1.44238 0.333496 0.763596ZM14.3036 0.666626C15.8764 0.763596 17.4491 0.763596 19.0219 0.763596C20.3172 4.25451 21.89 7.64845 23.3702 11.1394C21.89 11.0424 20.4097 11.0424 18.9294 11.1394C18.0968 9.10299 17.3566 7.06663 16.6165 5.12723C15.7838 7.06663 14.9512 9.10299 14.211 11.0424C12.7308 11.0424 11.2505 11.0424 9.86275 11.1394C11.343 7.64845 12.8233 4.15754 14.3036 0.666626Z" fill="#0074C1" stroke="#0074C1" stroke-width="0.5"/>
<path d="M22.26 0.763611C25.7757 0.763611 29.2913 0.763611 32.8995 0.763611C32.8995 1.4424 32.8995 2.99391 32.8995 3.6727C32.0668 3.6727 30.494 3.6727 29.7539 3.6727C29.7539 6.19391 29.7539 8.61816 29.7539 11.0424C28.2736 11.0424 26.7008 11.1394 25.2206 11.1394C25.2206 8.61816 25.2206 6.19391 25.2206 3.6727C24.4804 3.6727 23.0001 3.6727 22.26 3.6727C22.26 2.99391 22.26 1.53937 22.26 0.763611Z" fill="#0071C0" stroke="#0071C0" stroke-width="0.5"/>
<path d="M36.1376 0.763596C37.6179 0.763596 39.1907 0.763596 40.7634 0.666626C42.2437 4.15754 43.6315 7.64845 45.2043 11.1394C43.724 11.0424 42.2437 11.0424 40.7634 11.0424C40.0233 9.10299 39.1907 7.1636 38.4505 5.2242C37.6179 7.1636 36.7852 9.10299 36.0451 11.0424C34.5648 11.0424 33.177 11.1394 31.6968 11.1394C33.177 7.64845 34.7498 4.25451 36.1376 0.763596Z" fill="#0074C1" stroke="#0074C1" stroke-width="0.5"/>
</svg>
