<svg width="48" height="48" viewBox="0 0 48 48" fill="none" xmlns="http://www.w3.org/2000/svg">
<rect width="48" height="48" fill="white"/>
<path d="M7 20.0727C9.63673 20.0727 12.3429 20.0727 14.9796 20.0727C14.9796 20.6545 14.9796 21.7454 14.9102 22.2545C14.1469 22.2545 13.3837 22.2545 12.6204 22.2545C12.6204 24.1454 12.6204 25.9636 12.6204 27.8545C11.5102 27.8545 10.4 27.8545 9.2898 27.8545C9.2898 25.9636 9.2898 24.1454 9.2898 22.2545C8.73469 22.2545 7.5551 22.2545 7 22.2545C7 21.7454 7 20.5818 7 20.0727ZM17.4776 20C18.6571 20.0727 19.8367 20.0727 21.0163 20.0727C21.9878 22.6909 23.1673 25.2363 24.2775 27.8545C23.1673 27.7818 22.0571 27.7818 20.9469 27.8545C20.3224 26.3272 19.7673 24.8 19.2122 23.3454C18.5878 24.8 17.9633 26.3272 17.4082 27.7818C16.298 27.7818 15.1878 27.7818 14.1469 27.8545C15.2571 25.2363 16.3673 22.6182 17.4776 20Z" fill="#0074C1" stroke="#0074C1" stroke-width="0.5"/>
<path d="M23.4448 20.0727C26.0816 20.0727 28.7183 20.0727 31.4244 20.0727C31.4244 20.5818 31.4244 21.7454 31.4244 22.2545C30.7999 22.2545 29.6203 22.2545 29.0652 22.2545C29.0652 24.1454 29.0652 25.9636 29.0652 27.7818C27.955 27.7818 26.7754 27.8545 25.6652 27.8545C25.6652 25.9636 25.6652 24.1454 25.6652 22.2545C25.1101 22.2545 23.9999 22.2545 23.4448 22.2545C23.4448 21.7454 23.4448 20.6545 23.4448 20.0727Z" fill="#0071C0" stroke="#0071C0" stroke-width="0.5"/>
<path d="M33.8531 20.0727C34.9633 20.0727 36.1429 20.0727 37.3225 20C38.4327 22.6182 39.4735 25.2363 40.6531 27.8545C39.5429 27.7818 38.4327 27.7818 37.3225 27.7818C36.7674 26.3272 36.1429 24.8727 35.5878 23.4182C34.9633 24.8727 34.3388 26.3272 33.7837 27.7818C32.6735 27.7818 31.6327 27.8545 30.5225 27.8545C31.6327 25.2363 32.8123 22.6909 33.8531 20.0727Z" fill="#0074C1" stroke="#0074C1" stroke-width="0.5"/>
</svg>
