<svg width="38" height="38" viewBox="0 0 38 38" fill="none" xmlns="http://www.w3.org/2000/svg">
<path d="M15.8891 0.773893C22.4801 -0.408716 29.5319 2.44346 33.5188 7.82317C35.9616 11.0232 37.2982 15.0811 37.2752 19.1159C37.2521 23.2666 35.7772 27.371 33.1731 30.5942C29.2785 35.5333 22.6875 38.2464 16.4653 37.2956C11.6719 36.7159 7.20108 34.0493 4.29738 30.1768C0.126185 24.8203 -0.657355 17.0522 2.36158 10.9768C4.87351 5.62027 10.1048 1.70143 15.8891 0.773893Z" fill="black" stroke="black" stroke-width="0.09375"/>
<path d="M16.8332 2.79132C18.0316 2.76813 19.2299 2.69857 20.4052 2.79132C24.3921 3.18552 28.2176 5.08697 30.8908 8.07828C33.7484 11.2319 35.2925 15.5681 35.062 19.8116C34.9007 23.0812 33.7254 26.3044 31.7435 28.9015C28.7246 32.8899 23.7929 35.3478 18.8151 35.2783C19.0917 34.7681 19.3912 34.2812 19.6678 33.7942L19.8752 34.2812C19.8291 34.0957 19.76 33.9333 19.6908 33.771C21.9954 29.5739 24.4612 25.4696 26.7657 21.2725C28.2637 21.2957 29.7847 21.2493 31.2826 21.2957C32.1583 19.8116 32.988 18.3276 33.8867 16.8667C29.7616 16.9131 25.6365 16.8435 21.5114 16.8899C20.7048 18.3044 19.8522 19.6957 19.0686 21.1333C18.9995 21.1565 18.8382 21.2029 18.769 21.2261C20.5896 21.3189 22.4102 21.2493 24.2538 21.2725C21.6727 25.887 19.0225 30.4783 16.4184 35.0696C12.9386 34.5594 9.66614 32.8203 7.22334 30.2696C6.02499 29.0174 5.05709 27.5565 4.2505 26.0261C2.68343 22.5247 2.22252 18.4435 3.30565 14.7102C4.61923 9.49277 8.76738 5.15654 13.8834 3.53335C10.5188 9.44639 7.10812 15.3362 3.81264 21.2957C7.93775 21.2493 12.0398 21.2725 16.1649 21.2725C16.9484 19.7652 17.8011 18.3044 18.7229 16.8667C15.4044 16.8899 12.0859 16.8899 8.76738 16.8667C11.4867 12.1826 14.1369 7.47538 16.8332 2.79132Z" fill="white" stroke="white" stroke-width="0.09375"/>
</svg>
