<svg width="45" height="21" viewBox="0 0 45 21" fill="none" xmlns="http://www.w3.org/2000/svg">
<path d="M39.6724 0.763723L39.6471 0.637141C39.8749 0.561192 40.3306 0.43461 40.5584 0.358661C40.761 0.358661 41.1407 0.333344 41.3179 0.333344C42.7103 0.586508 43.7483 1.6498 44.204 2.94094C44.204 3.06752 44.2293 3.32069 44.2293 3.44727C44.28 4.05486 44.3559 4.66246 44.3812 5.27005C44.0015 5.6498 43.5711 5.9536 43.1154 6.23208L42.8622 6.30803C41.8749 6.63714 41.2673 5.70043 40.6597 5.09284C40.6597 4.94094 40.6597 4.58651 40.6344 4.40929C40.7863 4.48524 40.9129 4.56119 41.0395 4.63714C41.5964 4.91562 42.1534 5.52322 42.8369 5.32068C43.5711 5.0422 43.8243 4.15613 43.7483 3.44727C43.4445 2.53588 42.685 1.77638 41.799 1.44727C39.9002 1.11815 37.8496 2.35866 37.3939 4.25739C37.1154 5.75106 36.9129 7.27005 36.8622 8.78904C36.8369 9.59916 36.7103 10.4346 36.3053 11.1435L35.9255 10.2321C36.0268 9.62448 36.1534 9.0422 36.1787 8.40929L36.3812 8.43461C36.3559 7.06752 36.4066 5.70043 36.4572 4.30803C36.5331 4.35866 36.7103 4.43461 36.8116 4.48524L36.8876 3.346H37.0901C37.4952 2.18144 38.4825 1.14347 39.6724 0.763723Z" fill="#5D4E0C" stroke="#5D4E0C" stroke-width="0.09375"/>
<path d="M15.1161 2.15617C15.901 1.903 16.7111 1.64984 17.4959 1.37136C18.9389 1.27009 20.4073 1.27009 21.8503 1.37136C22.382 1.57389 22.9136 1.72579 23.4706 1.87769V1.97895L23.5972 2.0549C24.6098 2.78908 25.6478 3.52326 26.3313 4.58655C27.5212 6.43465 27.8503 8.68781 28.9136 10.6119C28.8377 10.7638 28.7364 11.0676 28.6604 11.2195C28.2301 10.6119 27.825 9.97895 27.5972 9.27009C27.1161 7.70047 26.5339 6.10554 25.5972 4.73845C24.1794 2.91566 21.7997 2.08022 19.5465 2.25744C16.9136 2.02959 14.4326 3.32073 12.5339 5.04225C10.9389 6.63718 9.69842 8.58655 8.66045 10.5865C8.48323 10.5106 8.10348 10.3334 7.92627 10.2574V10.1562C7.95159 9.97895 8.02754 9.62452 8.07817 9.44731L8.25538 9.42199C8.35665 9.16883 8.45792 8.89035 8.55918 8.63718H8.83766C8.81235 8.53592 8.78703 8.3587 8.76171 8.28275C9.01488 8.00427 9.21741 7.70047 9.36931 7.37136L9.59716 7.42199C9.57184 7.29541 9.54652 7.04224 9.52121 6.91566C9.64779 6.91566 9.90095 6.89035 10.0275 6.86503C10.0275 6.73845 10.0275 6.5106 10.0022 6.38402L10.2048 6.3587C10.6858 5.64984 11.344 5.06756 11.9263 4.45997C12.382 4.02959 12.8377 3.62452 13.344 3.24478L13.3693 3.04225C13.4706 3.06756 13.7237 3.11819 13.8503 3.16883L13.825 2.89035C14.0782 2.76376 14.3566 2.6625 14.6351 2.53592L14.6098 2.25744C14.7364 2.30807 14.9642 2.38402 15.0908 2.40933L15.1161 2.15617Z" fill="#124028" stroke="#124028" stroke-width="0.09375"/>
<path d="M37.3938 4.25742C37.8495 2.35869 39.9002 1.11818 41.7989 1.4473C42.685 1.77641 43.4445 2.5359 43.7483 3.4473C43.8242 4.15616 43.5711 5.04223 42.8369 5.32071C42.1533 5.52325 41.5964 4.91565 41.0394 4.63717C41.7483 4.25742 42.5584 4.33337 43.3432 4.33337C43.3179 3.06755 41.9508 1.57388 40.6597 2.25742C40.4824 2.33337 40.3305 2.40932 40.1533 2.48527C39.5204 2.8397 38.5584 2.94097 38.3052 3.75109C37.9255 5.1435 37.6976 6.58654 37.6723 8.02957C37.6723 9.62451 36.7862 11.0422 36.685 12.6119C37.6976 12.384 38.6343 11.8777 39.4445 11.2448C40.9635 10.1562 42.6343 8.86502 42.8622 6.89033C42.3052 6.81438 41.723 6.78907 41.166 6.63717C40.7103 6.28274 40.7356 5.62451 40.6597 5.09287C41.2673 5.70046 41.8749 6.63717 42.8622 6.30806L43.1154 6.23211C43.3179 6.18147 43.6976 6.08021 43.8749 6.02957C43.7483 6.63717 43.6217 7.21945 43.4445 7.80173C42.8369 9.01692 41.9761 10.0802 41.0647 11.0675C39.9002 11.903 38.7356 12.865 37.2419 13.0422C37.4445 13.0929 37.6217 13.1182 37.8242 13.1688C36.9635 13.2448 36.1027 13.3967 35.2419 13.5232C35.4445 12.6625 35.8242 11.8777 36.3052 11.1435C36.7103 10.4346 36.8369 9.59919 36.8622 8.78907C36.9128 7.27008 37.1154 5.75109 37.3938 4.25742Z" fill="#ECE260" stroke="#ECE260" stroke-width="0.09375"/>
<path d="M23.5977 2.05492C24.3825 1.97897 24.9647 2.61188 25.4964 3.09289C26.9141 4.45998 27.6483 6.3334 28.2052 8.1815C28.585 9.49795 29.2685 10.8144 30.4584 11.5739C31.2432 11.9283 32.104 12.0296 32.9647 12.1815C33.9268 12.0549 34.7116 11.4473 35.5977 11.0929C35.1926 11.8524 34.3571 12.1309 33.623 12.4347C31.8508 12.7385 29.9521 12.0802 28.9141 10.6119C27.8508 8.68783 27.5217 6.43466 26.3318 4.58656C25.6483 3.52327 24.6103 2.78909 23.5977 2.05492Z" fill="#95A59A" stroke="#95A59A" stroke-width="0.09375"/>
<path d="M40.6607 2.25739C41.9519 1.57385 43.3189 3.06752 43.3443 4.33334C42.5595 4.33334 41.7493 4.25739 41.0405 4.63714C40.9139 4.56119 40.7873 4.48524 40.6354 4.40929C40.6607 4.5865 40.6607 4.94094 40.6607 5.09283C40.7367 5.62448 40.7113 6.28271 41.167 6.63714C41.724 6.78904 42.3063 6.81435 42.8633 6.8903C42.6354 8.86498 40.9645 10.1561 39.4455 11.2447C38.6354 11.8776 37.6987 12.384 36.686 12.6118C36.7873 11.0422 37.6734 9.62448 37.6734 8.02954C37.6987 6.5865 37.9265 5.14347 38.3063 3.75106C38.5595 2.94094 39.5215 2.83967 40.1544 2.48524C40.1797 2.63714 40.1797 2.96625 40.205 3.14347H40.7367C40.7114 2.83967 40.686 2.56119 40.6607 2.25739Z" fill="#F9EB37" stroke="#F9EB37" stroke-width="0.09375"/>
<path d="M12.5341 5.04221C14.4328 3.3207 16.9138 2.02956 19.5467 2.2574C21.7999 2.08019 24.1796 2.91563 25.5974 4.73842C26.5341 6.1055 27.1164 7.70044 27.5974 9.27006C27.8252 9.97892 28.2303 10.6118 28.6607 11.2194C29.3189 12.1561 30.2556 12.9156 31.3948 13.2447C31.8758 13.4726 32.3569 13.7511 32.8126 14.0549C32.686 14.3587 32.5594 14.6878 32.4328 15.0169C31.4961 15.5485 30.4834 16.0296 29.3948 16.0549C27.4708 16.1561 25.4961 16.1055 23.6227 15.5485C21.0404 14.9409 18.5847 13.9283 15.9771 13.5232C16.1037 13.4473 16.3569 13.3207 16.4834 13.2447C14.61 13.2701 12.8126 12.7384 10.9391 12.7384C9.97712 12.7131 9.04041 12.9156 8.1037 12.9916C8.00243 12.9663 7.85053 12.9156 7.74927 12.865C8.05307 12.1055 8.33155 11.3207 8.66066 10.5865C9.69863 8.58652 10.9391 6.63715 12.5341 5.04221Z" fill="#2C8E5B" stroke="#2C8E5B" stroke-width="0.09375"/>
<path d="M40.1541 2.48526C40.3313 2.40931 40.4832 2.33336 40.6604 2.25742C40.6857 2.56121 40.711 2.83969 40.7363 3.14349H40.2047C40.1794 2.96628 40.1794 2.63716 40.1541 2.48526Z" fill="#5D4E0C" stroke="#5D4E0C" stroke-width="0.09375"/>
<path d="M44.2306 3.44725L44.4332 3.11813C44.5597 4.51054 44.5597 5.90294 44.4332 7.29535C44.0787 7.85231 44.0534 8.56117 43.5977 9.0675C43.5471 8.66244 43.4964 8.23206 43.4458 7.80168C43.623 7.2194 43.7496 6.63712 43.8762 6.02953C43.699 6.08016 43.3192 6.18142 43.1167 6.23206C43.5724 5.95358 44.0028 5.64978 44.3825 5.27003C44.3572 4.66244 44.2813 4.05484 44.2306 3.44725Z" fill="#787242" stroke="#787242" stroke-width="0.09375"/>
<path d="M16.1038 3.87762C17.4962 3.57383 18.9139 3.27003 20.3316 3.47256C20.7873 3.57383 21.5468 3.42193 21.5721 4.10547C20.8633 4.40927 20.0531 4.33332 19.2936 4.38395C18.2557 4.40927 17.243 4.68775 16.2303 4.89028C16.205 4.71307 16.1544 4.35864 16.1544 4.18142C16.1291 4.10547 16.1291 3.95357 16.1038 3.87762Z" fill="#024B1F" stroke="#024B1F" stroke-width="0.09375"/>
<path d="M21.5727 4.1055C22.4081 3.70044 23.4967 3.72576 24.2309 4.33335C25.3955 5.21943 25.6993 6.76373 26.4081 7.97892C26.9145 8.83968 26.8385 9.85234 27.1929 10.7637C27.6233 11.422 28.2562 11.903 28.7372 12.5106C29.117 12.9663 29.4208 13.5232 29.9271 13.8523C30.5853 14.0042 31.3448 13.7764 31.8512 14.3334C31.1929 14.7637 30.4841 15.2701 29.6486 15.2447C28.8638 15.2194 28.079 15.346 27.2942 15.4979C26.636 15.6498 26.0031 15.2954 25.3702 15.1435C24.6866 14.9156 23.9271 14.9409 23.2436 14.7131C22.56 14.4093 22.0537 13.8777 21.3955 13.5232C20.6107 13.422 19.8005 13.6498 19.041 13.3713C18.1296 13.0928 17.2183 12.7637 16.2562 12.6625C14.3828 12.4599 12.5853 11.6751 10.6866 11.8777C9.95243 12.0042 9.09167 11.1941 9.598 10.4852C10.3322 9.27006 10.7119 7.85234 11.7752 6.865C12.6107 6.08019 13.3195 5.14348 14.2815 4.53588C14.8132 4.13082 15.5221 4.23209 16.155 4.18145C16.155 4.35867 16.2056 4.7131 16.2309 4.89031C17.2436 4.68778 18.2562 4.4093 19.2942 4.38398C20.0537 4.33335 20.8638 4.4093 21.5727 4.1055Z" fill="#17A052" stroke="#17A052" stroke-width="0.09375"/>
<path d="M41.0659 11.0675C41.9773 10.0802 42.8381 9.01689 43.4457 7.8017C43.4963 8.23208 43.5469 8.66246 43.5976 9.06752C43.5216 9.1941 43.395 9.44727 43.3444 9.54853C43.1166 9.92828 42.8634 10.308 42.6609 10.6878L42.433 10.6625C42.433 10.8397 42.4077 11.1435 42.3824 11.2954L42.2052 11.0422C42.1292 10.9409 42.0026 10.7131 41.9267 10.6118C41.6229 10.7637 41.3444 10.9156 41.0659 11.0675Z" fill="#454010" stroke="#454010" stroke-width="0.09375"/>
<path d="M1.04071 9.77643C1.52172 9.32074 2.00273 8.78909 2.73691 8.86504L2.68628 8.66251C3.62299 8.6372 4.58501 8.6372 5.52172 8.66251L5.44577 8.86504C5.8002 8.86504 6.12932 8.96631 6.4078 9.16884C6.48375 9.14352 6.66096 9.14352 6.76223 9.11821V9.44732C6.88881 9.44732 7.14197 9.422 7.24324 9.422C7.26856 9.52327 7.29387 9.70048 7.29387 9.80175C7.44577 9.90302 7.77488 10.0802 7.92678 10.1562V10.2574C7.59767 10.4347 7.26856 10.6372 6.96476 10.8397C6.00273 9.7258 4.43311 9.82707 3.09134 9.90302C2.30653 9.8777 1.62299 10.384 0.939444 10.7385L0.686279 10.46C0.812862 10.2321 0.939444 10.0043 1.04071 9.77643Z" fill="#2E2704" stroke="#2E2704" stroke-width="0.09375"/>
<path d="M0.938965 10.7384C1.62251 10.384 2.30605 9.87765 3.09086 9.90296C4.43264 9.82701 6.00226 9.72575 6.96428 10.8397C7.04023 11.0169 7.24276 11.3713 7.34403 11.5485C7.24276 11.7511 7.01491 12.1814 6.91365 12.384C5.49593 12.9663 3.77441 13.2954 2.382 12.5106C1.67314 12.1561 1.31871 11.3966 0.938965 10.7384Z" fill="#E3DC6C" stroke="#E3DC6C" stroke-width="0.09375"/>
<path d="M2.28146 10.789C3.29412 9.90296 4.8131 10.2574 5.90171 10.8144C6.35741 11.0169 6.30677 11.5232 6.33209 11.9536C5.37007 12.2827 4.30678 12.6371 3.31944 12.1561C2.73716 12.0042 1.8764 11.4726 2.28146 10.789Z" fill="#F6EA35" stroke="#F6EA35" stroke-width="0.09375"/>
<path d="M6.96372 10.8397C7.26752 10.6372 7.59663 10.4346 7.92574 10.2574C8.10296 10.3334 8.48271 10.5106 8.65992 10.5865C8.33081 11.3207 8.05233 12.1055 7.74853 12.865C7.47005 12.7131 7.19157 12.5612 6.91309 12.384C7.01435 12.1815 7.2422 11.7511 7.34347 11.5486C7.2422 11.3713 7.03967 11.0169 6.96372 10.8397Z" fill="#24490F" stroke="#24490F" stroke-width="0.09375"/>
<path d="M35.926 10.2321L36.3057 11.1435C35.8247 11.8777 35.445 12.6625 35.2424 13.5233C36.1032 13.3967 36.9639 13.2448 37.8247 13.1688C37.6222 13.1182 37.445 13.0929 37.2424 13.0422C38.7361 12.865 39.9007 11.903 41.0652 11.0676C41.3437 10.9157 41.6222 10.7638 41.926 10.6119C42.0019 10.7131 42.1285 10.941 42.2044 11.0422C42.0272 11.346 41.7994 11.6498 41.5969 11.9283C41.4956 11.9283 41.2931 11.9536 41.1918 11.9536C41.1918 12.0802 41.1665 12.3587 41.1665 12.4853C41.0399 12.46 40.7867 12.4093 40.6601 12.4093C40.6855 12.46 40.7108 12.6119 40.7108 12.6625C40.3057 12.8903 39.926 13.1182 39.5462 13.346C39.3437 13.6752 38.9893 13.7258 38.6601 13.8017V14.0296C38.5336 14.0043 38.3057 13.9536 38.1791 13.9283L38.1538 14.1815C37.7234 14.2828 37.2931 14.4346 36.8627 14.5359C36.9639 14.941 37.0905 15.346 37.1918 15.7511L37.369 15.7258V17.5233L37.0905 17.5486C37.1158 17.6752 37.1665 17.903 37.2171 18.0043L36.8374 18.0549C36.8627 18.1562 36.888 18.3334 36.9133 18.4346C36.5336 18.6119 36.2298 18.8903 36.0019 19.2448C35.8247 19.2701 35.5209 19.2954 35.369 19.2954V19.5233L34.4576 19.5992C32.6601 20.2068 30.7614 20.0802 28.9133 20.0549C27.4956 20.0549 26.1285 19.4473 24.7108 19.4979L24.7614 19.1941C24.6602 19.2195 24.4576 19.2448 24.3564 19.2701C24.0019 19.1182 23.6222 19.0422 23.2424 18.9916L23.2171 18.7638C23.0146 18.7891 22.6348 18.7891 22.4323 18.8144L22.4576 18.5106C22.3564 18.5106 22.1791 18.5359 22.0779 18.5359C21.5462 18.3081 20.9893 18.1055 20.407 17.979L20.4323 17.7258C20.3057 17.7511 20.0526 17.8271 19.926 17.8524V17.5486C19.7234 17.5233 19.3437 17.5233 19.1665 17.4979V17.3207C19.0146 17.2448 18.6855 17.0929 18.5083 17.0169C18.4323 17.0169 18.2298 17.0422 18.1285 17.0422L18.1538 16.7131C18.0526 16.7131 17.8753 16.7384 17.7994 16.7384C17.4956 16.5865 17.1918 16.4853 16.888 16.4346V16.1562L16.3817 16.3587L16.407 16.0296C16.0526 16.0043 15.7234 16.0043 15.369 15.979V15.7764C14.5589 15.7764 13.7488 15.7511 12.9386 15.8017C12.407 15.979 11.8753 16.1815 11.3184 16.3081L11.2931 16.5612C11.1918 16.5359 10.9386 16.4853 10.8374 16.46L10.8121 16.7891C10.6855 16.7891 10.4576 16.7384 10.331 16.7384L10.3057 16.941C10.0272 17.0422 9.82471 17.2448 9.69813 17.5233H9.29307C9.29307 17.6498 9.29307 17.903 9.26775 18.0296C9.16648 18.0296 8.91332 18.0043 8.78674 17.979V18.3334L8.28041 18.2321L8.33104 18.6119L7.97661 18.4853L8.02724 18.8397C7.90066 18.8144 7.6475 18.7638 7.54623 18.7384L7.52092 19.0929C7.39433 19.0676 7.16648 19.0422 7.0399 19.0169V19.2954C6.68547 19.3967 6.35636 19.5233 6.00193 19.6245V19.8524C5.87535 19.8271 5.6475 19.8017 5.52091 19.7764V20.0549C5.26775 20.0549 4.73611 20.0802 4.48294 20.0802L4.53357 20.3334C4.07788 20.3081 3.6475 20.3081 3.1918 20.3081L3.16649 20.0549L2.66016 20.1055V19.6752C2.66016 19.5992 2.68547 19.422 2.68547 19.346C3.1918 19.2448 3.67281 19.1435 4.17914 19.0169C6.7361 18.2574 8.63484 16.2068 11.0399 15.0929C12.4323 14.9663 13.85 14.8397 15.2424 15.0169C16.1791 15.1688 17.0146 15.5486 17.9007 15.8777C22.5083 18.1309 27.6475 19.7764 32.8374 19.1182C34.1791 18.9663 35.7234 18.5612 36.407 17.2954C36.7867 16.7891 36.6348 16.1055 36.2045 15.6752C35.5969 14.9663 34.5589 15.2195 33.7488 15.1941C34.331 14.7891 34.6855 14.1562 35.0146 13.5486L34.3057 13.346C34.2045 13.3207 34.0272 13.2701 33.9513 13.2701C33.85 13.0422 33.6981 12.6372 33.6222 12.4346C34.3564 12.1309 35.1918 11.8524 35.5969 11.0929C35.5969 10.9916 35.6222 10.7638 35.6475 10.6625C35.6981 10.6878 35.8247 10.7384 35.8753 10.7638C35.9007 10.6119 35.926 10.3587 35.926 10.2321Z" fill="#2E2908" stroke="#2E2908" stroke-width="0.09375"/>
<path d="M0.685735 10.4599L0.9389 10.7384C1.31865 11.3966 1.67308 12.1561 2.38194 12.5106C3.77434 13.2954 5.49586 12.9663 6.91358 12.384C7.19206 12.5612 7.47054 12.7131 7.74902 12.865C7.85029 12.9156 8.00219 12.9663 8.10345 12.9916C8.07814 13.1435 8.05282 13.4726 8.02751 13.6245C9.41991 13.6245 10.8123 13.5485 12.2047 13.5485L12.6098 13.9536H12.2047C10.6098 13.903 8.96421 13.9283 7.41991 14.4599C7.34396 14.4599 7.19206 14.5106 7.11611 14.5359C5.59713 15.1688 4.30599 16.2574 3.34396 17.5992C3.04016 17.9283 2.71105 18.2068 2.35662 18.4852C2.4832 17.7004 2.88827 16.9916 3.34396 16.3333C3.57181 15.9789 3.79966 15.5739 4.23004 15.422L4.1794 15.1941L4.50852 15.2701L4.4832 14.9409C4.60978 14.9663 4.83763 14.9663 4.96422 14.9663V14.5612C5.0908 14.4852 5.34396 14.3333 5.49586 14.2574C4.88827 14.2068 4.30599 14.1814 3.72371 14.1814V14.0042C3.36928 14.0042 3.04017 13.9789 2.68573 13.9789L2.71105 13.6498C2.60979 13.6751 2.35662 13.7511 2.23004 13.7764L2.20472 13.4473C2.07814 13.4726 1.82498 13.4726 1.69839 13.4726V12.9663C1.59713 12.9663 1.36928 12.9916 1.26801 12.9916C1.14143 12.7131 1.01485 12.4599 0.913584 12.1814L0.685735 12.2321C0.660419 11.6498 0.660419 11.0422 0.685735 10.4599Z" fill="#30270F" stroke="#30270F" stroke-width="0.09375"/>
<path d="M28.6599 11.2194C28.7359 11.0675 28.8371 10.7637 28.9131 10.6118C29.9511 12.0802 31.8498 12.7384 33.6219 12.4346C33.6979 12.6371 33.8498 13.0422 33.951 13.27C33.0903 13.1941 32.2295 13.2447 31.3941 13.2447C30.2548 12.9156 29.3181 12.1561 28.6599 11.2194Z" fill="#022F18" stroke="#022F18" stroke-width="0.09375"/>
<path d="M8.10354 12.9916C9.04025 12.9156 9.97695 12.7131 10.939 12.7384C12.8124 12.7384 14.6099 13.2701 16.4833 13.2447C16.3567 13.3207 16.1035 13.4473 15.977 13.5232C18.5845 13.9283 21.0402 14.9409 23.6225 15.5485C25.4959 16.1055 27.4706 16.1561 29.3947 16.0549C30.4833 16.0295 31.4959 15.5485 32.4326 15.0169C33.1668 14.6118 33.7744 14.0042 34.3061 13.346L35.0149 13.5485C34.6858 14.1561 34.3314 14.789 33.7491 15.1941C33.0909 15.4979 32.5086 15.903 31.9769 16.3587C31.9516 16.384 31.901 16.4093 31.8757 16.4093C30.3061 16.6878 28.7618 17.1941 27.1415 17.0169C25.1162 16.8144 23.1162 16.4093 21.1668 15.7764C20.4326 15.5232 19.6478 15.3966 18.863 15.2701C16.7871 14.7637 14.7618 14.0042 12.6099 13.9536L12.2048 13.5485C10.8124 13.5485 9.41999 13.6245 8.02759 13.6245C8.0529 13.4726 8.07822 13.1435 8.10354 12.9916Z" fill="#11380A" stroke="#11380A" stroke-width="0.09375"/>
<path d="M31.3943 13.2448C32.2297 13.2448 33.0905 13.1941 33.9512 13.2701C34.0272 13.2701 34.2044 13.3207 34.3057 13.346C33.774 14.0043 33.1664 14.6119 32.4323 15.0169C32.5588 14.6878 32.6854 14.3587 32.812 14.0549C32.3563 13.7511 31.8753 13.4726 31.3943 13.2448Z" fill="#3F6D56" stroke="#3F6D56" stroke-width="0.09375"/>
<path d="M7.41975 14.4599C8.96406 13.9283 10.6096 13.903 12.2046 13.9536C12.2805 14.1055 12.4577 14.384 12.5337 14.5359C13.116 14.6118 13.6982 14.6878 14.2552 14.7637C13.2172 14.8903 12.1792 14.8397 11.1413 14.7637C11.116 14.8397 11.0653 15.0169 11.04 15.0928C8.63494 16.2068 6.73621 18.2574 4.17925 19.0169H2.86279C2.96406 18.5359 3.09064 18.0549 3.34381 17.5992C4.30583 16.2574 5.59697 15.1688 7.11596 14.5359C7.34381 14.5612 7.77419 14.6118 7.97672 14.6371C7.11596 15.2194 6.17925 15.7257 5.31849 16.3333C4.58431 16.8397 4.20457 17.7004 3.85014 18.4852C6.35646 17.9536 8.12862 15.9283 10.3058 14.7131C9.39444 14.3333 8.38178 14.384 7.41975 14.4599Z" fill="#ECE767" stroke="#ECE767" stroke-width="0.09375"/>
<path d="M12.2048 13.9536H12.6099C14.7618 14.0042 16.7871 14.7637 18.8631 15.27C19.1162 15.3966 19.3694 15.5232 19.6226 15.6751C19.3441 15.8017 19.0656 15.9536 18.7871 16.1055C18.4833 16.0295 18.2048 15.9536 17.901 15.8776C17.015 15.5485 16.1795 15.1688 15.2428 15.0169C13.8504 14.8397 12.4327 14.9662 11.0403 15.0928C11.0656 15.0169 11.1162 14.8397 11.1415 14.7637C12.1795 14.8397 13.2175 14.8903 14.2555 14.7637C13.6985 14.6878 13.1162 14.6118 12.534 14.5359C12.458 14.384 12.2808 14.1055 12.2048 13.9536Z" fill="#D2CF8C" stroke="#D2CF8C" stroke-width="0.09375"/>
<path d="M7.11616 14.5359C7.19211 14.5106 7.34401 14.4599 7.41996 14.4599C8.38199 14.384 9.39464 14.3333 10.306 14.7131C8.12882 15.9283 6.35667 17.9536 3.85034 18.4852C4.20477 17.7004 4.58452 16.8397 5.3187 16.3333C6.17945 15.7257 7.11616 15.2194 7.97692 14.6371C7.77439 14.6118 7.34401 14.5612 7.11616 14.5359Z" fill="#F6EC39" stroke="#F6EC39" stroke-width="0.09375"/>
<path d="M31.9766 16.3587C32.5082 15.903 33.0905 15.4979 33.7487 15.1941C34.5589 15.2194 35.5968 14.9663 36.2044 15.6751C36.6348 16.1055 36.7867 16.7891 36.407 17.2954C35.7234 18.5612 34.1791 18.9663 32.8373 19.1182C27.6475 19.7764 22.5082 18.1308 17.9006 15.8777C18.2044 15.9536 18.4829 16.0296 18.7867 16.1055C19.9766 16.5106 21.1411 17.0169 22.3563 17.3967C24.7361 18.1815 27.1918 18.941 29.7234 18.8144C29.9766 18.8144 30.2044 18.8144 30.4323 18.7891C31.9006 18.7637 33.4956 19.0169 34.8373 18.2574C35.4702 17.903 36.2044 17.4473 36.331 16.6372C36.2804 15.7511 35.2424 15.3713 34.4576 15.4726C33.5968 15.6245 32.812 16.0549 31.9766 16.3587Z" fill="#9D9635" stroke="#9D9635" stroke-width="0.09375"/>
<path d="M18.8625 15.27C19.6474 15.3966 20.4322 15.5232 21.1663 15.7763C23.1157 16.4093 25.1157 16.8143 27.141 17.0169C28.7613 17.1941 30.3056 16.6877 31.8752 16.4093C29.6474 17.7763 26.8879 17.27 24.4322 17.0169C22.8372 16.5612 21.1917 16.2067 19.622 15.6751C19.3689 15.5232 19.1157 15.3966 18.8625 15.27Z" fill="#747B22" stroke="#747B22" stroke-width="0.09375"/>
<path d="M31.9761 16.3587C32.8116 16.0549 33.5964 15.6245 34.4571 15.4726C35.242 15.3713 36.2799 15.7511 36.3306 16.6372C36.204 17.4473 35.4698 17.903 34.8369 18.2574C33.4951 19.0169 31.9002 18.7637 30.4318 18.789C31.5964 18.0802 33.0394 18.5106 34.204 17.8777C34.5837 17.6751 34.9635 17.4726 35.2926 17.1688C35.4698 16.789 35.3685 16.3587 35.4192 15.9536C34.8875 15.9789 34.3053 15.9536 33.8242 16.2321C32.3812 17.0169 30.8622 17.5992 29.2926 18.0296C29.4445 18.308 29.5964 18.5612 29.723 18.8144C27.1913 18.9409 24.7356 18.1815 22.3559 17.3966L21.7483 16.789C22.6597 16.865 23.5458 16.9409 24.4318 17.0169C26.8875 17.2701 29.647 17.7764 31.8749 16.4093C31.9002 16.4093 31.9508 16.384 31.9761 16.3587Z" fill="#F5EA57" stroke="#F5EA57" stroke-width="0.09375"/>
<path d="M18.7869 16.1055C19.0653 15.9536 19.3438 15.8017 19.6223 15.6751C21.1919 16.2068 22.8375 16.5612 24.4324 17.0169C23.5464 16.941 22.6603 16.865 21.7489 16.7891L22.3565 17.3967C21.1413 17.0169 19.9767 16.5106 18.7869 16.1055Z" fill="#E3DC6C" stroke="#E3DC6C" stroke-width="0.09375"/>
<path d="M33.8251 16.2321C34.3061 15.9536 34.8884 15.9789 35.42 15.9536C35.3694 16.3587 35.4707 16.7891 35.2935 17.1688C34.9643 17.4726 34.5846 17.6751 34.2048 17.8777C33.0403 18.5106 31.5973 18.0802 30.4327 18.7891C30.2048 18.8144 29.977 18.8144 29.7238 18.8144C29.5973 18.5612 29.4454 18.308 29.2935 18.0296C30.8631 17.5992 32.3821 17.0169 33.8251 16.2321Z" fill="#F9E934" stroke="#F9E934" stroke-width="0.09375"/>
<path d="M3.06517 16.1561C3.14112 16.2067 3.2677 16.2827 3.34365 16.3333C2.88795 16.9915 2.48289 17.7004 2.35631 18.4852C2.71074 18.2067 3.03985 17.9283 3.34365 17.5991C3.09049 18.0548 2.9639 18.5358 2.86264 19.0169H4.17909C3.67276 19.1434 3.19175 19.2447 2.68542 19.346C2.68542 19.4219 2.66011 19.5991 2.66011 19.6751L2.55884 19.9789C2.35631 19.7004 2.17909 19.4472 1.97656 19.1941V17.9282C2.33099 17.3207 2.71074 16.7384 3.06517 16.1561Z" fill="#737152" stroke="#737152" stroke-width="0.09375"/>
</svg>
