<svg width="41" height="36" viewBox="0 0 41 36" fill="none" xmlns="http://www.w3.org/2000/svg">
<path fill-rule="evenodd" clip-rule="evenodd" d="M0 17.9992C0 8.42633 9.02242 0.666687 20.1537 0.666687C31.2856 0.666687 40.308 8.42633 40.308 17.9992C40.308 27.5732 31.2856 35.3334 20.1537 35.3334C9.02242 35.3334 0 27.5732 0 17.9992Z" fill="#1F4578"/>
<path fill-rule="evenodd" clip-rule="evenodd" d="M17.7072 6.23181L22.3886 4.68457L22.4116 29.998L17.6904 31.5799L17.7072 6.23181Z" fill="#ED3338"/>
<path fill-rule="evenodd" clip-rule="evenodd" d="M20.4864 22.0188C18.4514 24.4704 16.4847 26.9768 12.8006 26.9768C7.59615 26.9768 5.1311 21.946 5.1311 17.74C5.1311 13.6991 7.05911 8.91522 12.1264 8.91522C14.3254 8.91522 16.4444 10.2603 17.7038 11.6821L17.7006 15.1131C16.6478 14.403 14.2864 13.7064 12.7448 13.6818C9.53049 13.6275 6.6953 15.0201 6.74626 18.1935C6.77927 20.378 8.9425 21.8642 11.0962 21.8642C14.395 21.8642 16.3919 18.851 18.0629 16.5634C18.5283 15.9665 19.8431 14.2093 20.0475 13.9282C21.9027 11.3371 24.0497 8.96953 27.7332 8.96953C32.0714 8.96953 34.5068 12.4683 35.1967 16.0695H33.2401C32.4528 14.902 30.9374 14.1874 29.4428 14.1874C26.0337 14.1874 23.997 17.3233 22.293 19.6321C22.293 19.6321 20.9664 21.4409 20.4865 22.0188H20.4864ZM35.3102 19.7464C34.8706 23.3678 32.8407 27.0239 28.405 27.0317C25.8174 27.0365 23.7936 25.2633 22.392 23.0945V20.583C24.1458 21.4538 25.7838 22.3856 27.7717 22.4158C30.2199 22.4521 32.4335 21.5097 33.3491 19.7464H35.3102Z" fill="white"/>
</svg>
