<svg width="50" height="38" viewBox="0 0 50 38" fill="none" xmlns="http://www.w3.org/2000/svg">
<path d="M21.0149 0.966574C24.7026 0.173513 28.6877 0.53039 32.1177 2.17599C35.9641 3.96038 39.0372 7.17227 41.0793 10.86C42.5663 13.6159 43.5378 16.6493 43.8749 19.7819C44.1524 21.7249 44.0335 23.6878 43.9542 25.6308C44.311 25.5911 44.6877 25.5316 45.0446 25.492C44.6679 26.1463 44.3309 26.86 44.2516 27.6332C44.1326 28.7435 43.8154 29.834 43.8154 30.9641C43.6568 31.0236 43.4982 31.0632 43.3395 31.1227L43.4188 30.6469C43.7559 28.9814 43.8947 27.2962 44.4895 25.6902C44.1524 25.829 43.7956 25.9876 43.4585 26.1463C43.1413 24.9368 43.4585 23.7076 43.4188 22.4783C43.4585 17.72 42.0112 12.9814 39.3148 9.05579C37.9666 7.01366 36.2615 5.20945 34.259 3.80177C31.3247 1.85877 27.8154 0.788135 24.2863 0.92692C20.9554 0.966574 17.7237 2.19582 15.0074 4.05951C10.4077 7.62828 7.39406 13.1004 6.58117 18.8699C6.16481 21.2293 6.24412 23.6679 6.58117 26.0471H6.06568C5.78811 25.948 5.51054 25.8489 5.23297 25.7497C5.78811 27.5341 5.9269 29.3978 6.44239 31.1822C6.38291 31.1624 6.22429 31.1624 6.16481 31.1425L6.0062 31.1227C5.94672 30.8055 5.88724 30.4684 5.80794 30.1512C5.43123 28.6047 5.45106 26.9591 4.7373 25.5118C5.07436 25.5515 5.41141 25.5713 5.74846 25.6109C5.74846 24.6989 5.60967 23.7869 5.60967 22.8749C5.64933 18.0174 6.9777 13.1202 9.71376 9.07562C12.311 5.13014 16.3358 1.97773 21.0149 0.966574Z" fill="#030303" stroke="#030303" stroke-width="0.09375"/>
<path d="M15.0078 4.05948C17.724 2.19579 20.9558 0.966549 24.2866 0.926896C27.8157 0.78811 31.325 1.85874 34.2594 3.80174C36.2618 5.20942 37.9669 7.01364 39.3151 9.05577C42.0115 12.9814 43.4589 17.72 43.4192 22.4783C43.4589 23.7076 43.1416 24.9368 43.4589 26.1462C43.3796 26.1661 43.2209 26.2454 43.1615 26.285L42.3288 26.4635C42.4675 24.7385 42.7055 23.0136 42.5667 21.2887C42.2891 15.7373 40.2866 10.1066 36.3213 6.10162C34.4576 4.39654 32.2767 3.02851 29.8777 2.23545C26.2296 1.06568 22.1255 1.16481 18.5964 2.69146C15.563 3.96035 12.926 6.14127 11.102 8.8575C8.5642 12.5849 7.3746 17.0855 7.07721 21.5266C6.89877 20.6345 6.7005 19.7621 6.58154 18.8699C7.39443 13.1004 10.4081 7.62826 15.0078 4.05948Z" fill="#C4C4C4" stroke="#C4C4C4" stroke-width="0.09375"/>
<path d="M18.5959 2.69148C22.125 1.16484 26.2291 1.06571 29.8772 2.23547C32.2762 3.02853 34.4571 4.39656 36.3208 6.10164C40.2861 10.1066 42.2886 15.7373 42.5661 21.2888C42.7049 23.0137 42.467 24.7386 42.3282 26.4635L43.1609 26.285C42.1894 26.9393 41.2972 27.6729 40.4645 28.4858C40.4645 28.4065 40.4447 28.2479 40.4447 28.1884C40.8016 26.8402 41.2774 25.492 41.436 24.1041C41.892 20.5353 41.7334 16.8278 40.4843 13.4375C39.2154 9.86868 36.9354 6.63696 33.8226 4.43622C31.721 3.12767 29.3617 2.11651 26.8834 1.8786C24.3059 1.62085 21.6491 1.75964 19.2303 2.71131C18.0011 3.20697 16.7917 3.78194 15.6814 4.53535C12.1919 7.1128 9.75324 10.979 8.68261 15.1822C7.90937 17.9777 7.88955 20.9121 8.20677 23.7869C8.40504 25.0558 8.72226 26.3049 9.11879 27.5341C9.43602 28.5651 10.1696 29.3978 10.586 30.3891C11.4583 32.8674 13.5401 34.632 15.5624 36.1785C15.5426 36.3966 15.5029 36.5948 15.4831 36.8129C15.4434 36.7534 15.3443 36.6741 15.3047 36.6345C14.9874 36.3173 14.69 36.0199 14.353 35.7423L14.234 35.663C13.9961 35.4845 13.778 35.3061 13.5401 35.1277C12.9255 34.5329 12.4496 33.7795 11.7359 33.264C11.0023 32.7088 10.1498 32.352 9.2774 32.0546C9.25758 31.7175 9.21792 31.3805 9.13862 31.0434C9.29723 30.9046 9.43602 30.7857 9.59463 30.6667L9.53515 32.0347C9.99116 32.1933 10.4472 32.352 10.923 32.5106C10.7049 31.3805 10.4075 30.2503 9.77307 29.2987C9.11879 28.347 8.26625 27.5539 7.31458 26.8798C7.39388 26.2057 7.39388 25.5316 7.29475 24.8575C7.13614 23.7671 7.11631 22.637 7.07666 21.5267C7.37406 17.0855 8.56365 12.5849 11.1014 8.85753C12.9255 6.1413 15.5624 3.96038 18.5959 2.69148Z" fill="#232323" stroke="#232323" stroke-width="0.09375"/>
<path d="M19.2302 2.71129C21.6491 1.75962 24.3058 1.62084 26.8833 1.87858C29.3616 2.1165 31.7209 3.12765 33.8226 4.4362C36.9353 6.63694 39.2154 9.86867 40.4843 13.4374C41.7333 16.8278 41.8919 20.5353 41.4359 24.1041C41.2773 25.492 40.8015 26.8402 40.4446 28.1884C40.1076 28.684 39.7507 29.14 39.4533 29.6754C38.9576 30.5279 38.7792 31.5589 38.1646 32.3519C37.1534 33.6605 36.0035 34.8699 34.6354 35.8018C34.2389 36.0397 34.1398 36.4957 34.0605 36.912H32.2563C32.1968 36.7336 32.1175 36.5552 32.058 36.3965C35.3294 34.6122 37.9861 31.7175 39.374 28.2677C40.9006 24.9765 41.2178 21.2293 40.742 17.6605C40.6032 14.9641 39.6516 12.3272 38.224 10.0471C36.3405 7.25157 33.8226 4.7336 30.6305 3.4647C26.7247 1.83893 22.1249 1.89841 18.2984 3.78193C16.0183 4.83273 14.1943 6.59729 12.5685 8.48081C11.4979 9.69023 10.7445 11.1772 10.1497 12.684C9.35663 14.6469 8.92045 16.7485 8.84114 18.8501C8.54375 22.1215 9.05924 25.492 10.4273 28.4858C11.597 31.1623 13.4806 33.5614 15.8796 35.2664C16.4942 35.7423 17.4459 35.9802 17.6045 36.8526C16.9105 36.912 16.177 36.9715 15.483 36.8129C15.5029 36.5948 15.5425 36.3965 15.5623 36.1785C13.54 34.632 11.4582 32.8674 10.5859 30.3891C10.1695 29.3978 9.43594 28.5651 9.11872 27.5341C8.72219 26.3048 8.40496 25.0558 8.2067 23.7869C7.88947 20.912 7.9093 17.9777 8.68253 15.1822C9.75316 10.979 12.1918 7.11278 15.6813 4.53533C16.7916 3.78193 18.001 3.20696 19.2302 2.71129Z" fill="#F8F8F8" stroke="#F8F8F8" stroke-width="0.09375"/>
<path d="M18.2987 3.78192C22.1252 1.8984 26.725 1.83892 30.6308 3.46469C33.8229 4.73359 36.3408 7.25156 38.2244 10.0471C38.0856 10.1264 37.927 10.2057 37.7684 10.285C36.0236 7.25156 33.1686 4.87238 29.9171 3.58365C27.1017 2.51302 23.9493 2.31476 21.0546 3.14747C17.8625 4.03966 14.9877 6.04214 13.0249 8.69889C12.8662 8.61958 12.7275 8.54028 12.5688 8.4808C14.1946 6.59728 16.0187 4.83272 18.2987 3.78192Z" fill="#1D1D1D" stroke="#1D1D1D" stroke-width="0.09375"/>
<path d="M21.0542 3.14748C23.9489 2.31476 27.1013 2.51303 29.9167 3.58366C33.1682 4.87239 36.0232 7.25157 37.768 10.285C38.7395 12.1685 39.6911 14.1115 40.0877 16.2132C40.4842 18.1562 40.4842 20.1586 40.4049 22.1215C40.1868 23.43 39.8696 24.7187 39.5127 25.9876C38.7395 27.8513 37.8869 29.6754 36.6378 31.2615C36.0034 32.1537 35.1905 32.8873 34.4173 33.6407C33.9414 33.3433 33.4854 33.0459 33.0096 32.7286C33.5251 32.1735 34.1992 31.7968 34.6155 31.1624C34.794 30.2305 34.2983 29.2788 34.5561 28.347C34.9922 27.5936 35.825 26.9988 35.7457 26.0273C35.6267 24.798 35.3888 23.5688 35.1509 22.3594C34.675 20.9319 34.2388 19.4845 33.8621 18.0174C33.8423 16.6097 34.1794 15.1623 33.8423 13.7745C33.5647 12.6444 33.5053 11.4548 33.0294 10.3842C31.9786 8.16359 29.9365 6.28007 27.4582 5.86371C25.1385 5.54649 22.68 5.76458 20.5387 6.79556C19.9637 7.0533 19.4681 7.46966 18.9922 7.88602C18.0406 8.59977 17.2475 9.51179 16.8312 10.6419C16.3355 12.1289 15.8002 13.5961 15.5028 15.1227C15.4235 15.8365 14.8287 16.2528 14.3727 16.7088C13.5994 17.4424 12.9848 18.3346 12.8064 19.3854C12.6676 20.2578 12.8262 21.15 12.6676 22.0025C12.4297 22.8352 11.9538 23.5886 11.7754 24.461C11.4383 25.5911 11.6168 26.7609 11.9538 27.8711C11.934 28.1487 11.9142 28.4263 11.8547 28.7039H11.4582C11.0616 27.8711 10.6255 27.0384 10.2488 26.2057C9.81257 24.4808 9.29708 22.7361 9.21777 20.9517C9.2376 19.9405 9.27725 18.9294 9.31691 17.9381C9.6143 14.5676 11.1409 11.4548 13.0245 8.6989C14.9873 6.04215 17.8621 4.03967 21.0542 3.14748Z" fill="white" stroke="white" stroke-width="0.09375"/>
<path d="M20.5388 6.79556C22.6801 5.76458 25.1386 5.54648 27.4583 5.86371C29.9366 6.28007 31.9787 8.16359 33.0296 10.3842C33.5054 11.4548 33.5649 12.6444 33.8424 13.7745C34.1795 15.1623 33.8424 16.6097 33.8623 18.0174C33.7631 18.3346 33.664 18.6716 33.5649 18.9889L33.5252 18.8303C33.5054 18.7311 33.4459 18.4932 33.4261 18.3742C33.3071 16.9666 33.6045 15.5391 33.4261 14.1115C33.3071 12.4461 33.1089 10.6816 32.0779 9.31352C31.6814 8.71873 31.2055 8.20324 30.6504 7.74723C29.5203 6.87486 28.1721 6.18093 26.7049 6.16111C25.7136 6.24041 24.7222 6.26024 23.7309 6.43868C21.8871 6.81538 20.4001 8.34203 19.9441 10.1661C19.7061 10.9988 19.3691 11.7918 18.9924 12.5651C19.0717 12.6047 19.1906 12.6642 19.2501 12.7039C19.2303 12.7633 19.2105 12.922 19.1906 12.9814C18.9329 13.0607 18.6752 13.1202 18.4372 13.2194C17.6838 12.7832 17.4856 13.8538 17.4459 14.3693C17.1287 14.6469 16.6727 14.6072 16.296 14.7856C16.1175 15.658 15.84 16.5106 15.3443 17.2441C15.2848 17.3036 15.1857 17.4226 15.146 17.4821C15.0271 17.3631 14.9279 17.2441 14.809 17.145C14.6504 17.0062 14.5116 16.8674 14.3728 16.7088C14.8288 16.2528 15.4236 15.8365 15.5029 15.1227C15.8003 13.5961 16.3356 12.1289 16.8313 10.6419C17.2476 9.51179 18.0407 8.59977 18.9924 7.88602C18.8734 8.57994 18.2588 8.97647 17.8424 9.49196C17.4459 9.9678 17.3071 10.5824 17.1287 11.1574C17.5252 10.7807 17.9019 10.3842 18.2786 9.9678C18.1795 10.7212 18.1597 11.4944 18.1993 12.2479C18.576 11.7324 18.9131 11.1772 19.0122 10.5428C19.1113 9.88849 19.4484 9.27387 19.5475 8.59977C19.9044 8.18341 20.3208 7.82654 20.7371 7.46966C20.4595 7.50931 20.2018 7.52914 19.9242 7.56879C20.1225 7.31105 20.3208 7.0533 20.5388 6.79556Z" fill="#454545" stroke="#454545" stroke-width="0.09375"/>
<path d="M23.7311 6.4387C24.7225 6.26027 25.7138 6.24044 26.7051 6.16113C26.6456 6.28009 26.5267 6.51801 26.4474 6.63697C26.9629 6.93437 27.4784 7.23177 28.0137 7.52916C27.7956 8.69893 27.6568 9.86869 27.5775 11.0781C26.7051 11.6333 26.2095 12.5651 25.6741 13.4176C25.119 13.4375 24.5837 13.5564 24.0484 13.7547C23.3346 14.0521 22.72 14.5478 22.1252 15.0236C22.3829 15.0434 22.6605 15.0434 22.9183 15.0434C22.8191 15.2615 22.7002 15.4796 22.601 15.6977H23.3743C23.1562 16.0347 22.9381 16.3916 22.7398 16.7683C23.6915 16.2132 24.2268 14.8848 25.4759 14.9839C25.7336 15.1425 25.9914 15.321 26.2689 15.4796C26.15 15.4994 25.9121 15.5391 25.7931 15.5589C24.9207 15.5787 24.1475 16.0149 23.5527 16.6494C23.7113 16.7088 23.8898 16.7881 24.0682 16.8476C24.207 16.7683 24.3458 16.7088 24.5044 16.6494C25 16.6295 25.4957 16.5106 25.9121 16.2132C25.8526 16.4709 25.7931 16.7088 25.7336 16.9666L24.7819 17.264C24.7621 17.3433 24.7423 17.5217 24.7423 17.6209C25.3173 17.6605 25.9121 17.72 26.5069 17.7993C26.7051 17.3631 26.8637 16.9071 26.7646 16.4313C26.8836 16.2528 27.0025 16.0744 27.1215 15.9158C27.4387 15.5192 27.7163 15.0434 28.1723 14.8451C28.886 14.9641 29.2231 15.7373 29.4412 16.3321C29.342 17.3036 29.3619 18.295 29.3619 19.2665C29.342 19.782 28.6878 19.6233 28.3507 19.7026C28.093 18.7708 27.974 17.8191 27.9145 16.8675C27.6171 17.7993 27.4585 18.8303 26.7249 19.544C25.7931 20.5155 25.5354 21.9827 24.4251 22.7758C23.7906 23.2318 23.1165 23.7076 22.3433 23.7869C22.0062 23.5886 21.7287 23.3111 21.4511 23.0732C20.9753 23.0533 20.4994 22.9542 20.0632 22.7758C19.7064 21.8439 20.2615 20.9715 20.5787 20.1388C20.3805 19.9207 20.1822 19.7026 20.0038 19.4846C19.8253 18.9889 19.746 18.4536 19.746 17.9183L19.7658 17.7398C19.8848 16.0942 20.202 14.4486 20.1029 12.7832C19.9443 12.803 19.7658 12.8427 19.5874 12.8823C19.9443 12.01 19.9641 11.0781 19.9443 10.1661C20.4003 8.34205 21.8873 6.81541 23.7311 6.4387Z" fill="#F4F4F4" stroke="#F4F4F4" stroke-width="0.09375"/>
<path d="M26.7051 6.16113C28.1722 6.18096 29.5204 6.87489 30.6505 7.74725C30.0756 8.54032 29.6989 9.55147 29.8575 10.5428C29.9764 10.9393 30.2342 11.2565 30.4324 11.5936C30.373 11.772 30.3135 11.9307 30.254 12.0893C30.3531 12.2479 30.4721 12.4065 30.5712 12.5651C29.8376 13.0608 29.4015 13.8538 29.4213 14.746C29.4015 15.1425 29.4213 15.5391 29.4609 15.9158C29.4609 16.0149 29.4411 16.233 29.4411 16.3321C29.223 15.7373 28.886 14.9641 28.1722 14.8451C27.7162 15.0434 27.4386 15.5193 27.1214 15.9158C26.943 15.6977 26.7645 15.4796 26.5861 15.2813C26.824 15.0632 27.0619 14.865 27.28 14.6667C27.399 14.5279 27.5179 14.3891 27.6171 14.2305C27.6964 14.1314 27.8153 13.9133 27.8946 13.8142C27.1611 13.6556 26.4275 13.4969 25.6741 13.4176C26.2094 12.5651 26.7051 11.6333 27.5774 11.0781C27.6567 9.86869 27.7955 8.69893 28.0136 7.52916C27.4783 7.23177 26.9628 6.93437 26.4473 6.63697C26.5266 6.51801 26.6456 6.28009 26.7051 6.16113Z" fill="#D8D8D8" stroke="#D8D8D8" stroke-width="0.09375"/>
<path d="M18.9928 7.88602C19.4687 7.46966 19.9643 7.05331 20.5393 6.79556C20.3212 7.05331 20.123 7.31105 19.9247 7.5688C20.2023 7.52914 20.46 7.50932 20.7376 7.46966C20.3212 7.82654 19.9049 8.18342 19.548 8.59977C19.4489 9.27388 19.1118 9.8885 19.0127 10.5428C18.9135 11.1772 18.5765 11.7324 18.1998 12.2479C18.1601 11.4944 18.18 10.7212 18.2791 9.9678C17.9024 10.3842 17.5257 10.7807 17.1292 11.1574C17.3076 10.5824 17.4464 9.9678 17.8429 9.49197C18.2593 8.97648 18.8739 8.57995 18.9928 7.88602Z" fill="#A8A8A8" stroke="#A8A8A8" stroke-width="0.09375"/>
<path d="M30.6508 7.74722C31.2059 8.20323 31.6818 8.71872 32.0783 9.31352C31.6619 9.76953 31.2852 10.2652 30.9085 10.7609C31.2059 10.9195 31.5231 11.0583 31.8205 11.2169C31.4835 11.435 31.1663 11.6729 30.8491 11.9108C31.4637 12.0892 32.0783 12.228 32.6929 12.3866C32.1576 12.7832 31.6421 13.2193 30.9878 13.4573C30.5715 13.6159 30.056 13.7348 29.7784 14.1512L29.4215 14.746C29.4017 13.8538 29.8379 13.0607 30.5715 12.5651C30.4723 12.4065 30.3534 12.2478 30.2543 12.0892C30.3137 11.9306 30.3732 11.772 30.4327 11.5936C30.2344 11.2565 29.9767 10.9393 29.8577 10.5428C29.6991 9.55144 30.0758 8.54028 30.6508 7.74722Z" fill="#B4B4B4" stroke="#B4B4B4" stroke-width="0.09375"/>
<path d="M10.1499 12.6841C10.7447 11.1772 11.4981 9.69025 12.5687 8.48083C12.7273 8.54031 12.8661 8.61962 13.0247 8.69893C11.1412 11.4548 9.61454 14.5676 9.31715 17.9381C9.27749 18.9294 9.23784 19.9406 9.21801 20.9517C9.11888 20.238 8.96027 19.544 8.84131 18.8501C8.92061 16.7485 9.3568 14.6469 10.1499 12.6841Z" fill="#7D7D7D" stroke="#7D7D7D" stroke-width="0.09375"/>
<path d="M30.9084 10.7609C31.2851 10.2652 31.6618 9.76955 32.0782 9.31354C33.1092 10.6816 33.3075 12.4461 33.4264 14.1116C33.4066 14.1909 33.3471 14.3693 33.3273 14.4486C33.1885 14.1512 33.0497 13.834 32.9307 13.5366C32.7325 13.5168 32.554 13.5168 32.3558 13.4969V13.0211C31.6222 13.6357 30.7696 14.1314 29.7783 14.1512C30.0559 13.7349 30.5714 13.6159 30.9877 13.4573C31.642 13.2194 32.1575 12.7832 32.6928 12.3866C32.0782 12.228 31.4636 12.0893 30.849 11.9108C31.1662 11.6729 31.4834 11.435 31.8205 11.2169C31.5231 11.0583 31.2058 10.9195 30.9084 10.7609Z" fill="#777777" stroke="#777777" stroke-width="0.09375"/>
<path d="M38.2243 10.0471C39.6518 12.3272 40.6035 14.9641 40.7423 17.6605C40.5639 19.1475 40.7225 20.6543 40.4052 22.1215C40.4846 20.1586 40.4846 18.1562 40.088 16.2132C39.6915 14.1116 38.7398 12.1686 37.7683 10.285C37.9269 10.2057 38.0855 10.1264 38.2243 10.0471Z" fill="#858585" stroke="#858585" stroke-width="0.09375"/>
<path d="M18.9923 12.5651C19.369 11.7919 19.7061 10.9988 19.944 10.1661C19.9638 11.0781 19.944 12.0099 19.5871 12.8823C19.7656 12.8427 19.944 12.803 20.1026 12.7832C20.2018 14.4486 19.8845 16.0942 19.7656 17.7398C19.8845 16.2925 19.8251 14.8055 19.6664 13.3581C19.4087 13.6754 19.1708 14.0124 18.9329 14.3296C19.0122 13.8736 19.0915 13.4375 19.1906 12.9814C19.2104 12.922 19.2303 12.7633 19.2501 12.7039C19.1906 12.6642 19.0716 12.6047 18.9923 12.5651Z" fill="#AAAAAA" stroke="#AAAAAA" stroke-width="0.09375"/>
<path d="M16.6329 14.3891C16.5734 13.5167 16.7122 12.5849 17.3466 11.9504C17.6639 12.8228 17.0294 13.6555 16.6329 14.3891Z" fill="#BCBCBC" stroke="#BCBCBC" stroke-width="0.09375"/>
<path d="M17.446 14.3693C17.4857 13.8538 17.684 12.7832 18.4374 13.2193C18.1003 13.596 17.8029 14.0124 17.446 14.3693Z" fill="#C4C4C4" stroke="#C4C4C4" stroke-width="0.09375"/>
<path d="M18.4373 13.2194C18.6752 13.1202 18.9329 13.0608 19.1907 12.9814C19.0915 13.4375 19.0122 13.8736 18.9329 14.3296C19.1708 14.0124 19.4088 13.6754 19.6665 13.3581C19.8251 14.8055 19.8846 16.2925 19.7656 17.7398L19.7458 17.9182C19.3889 18.632 18.9726 19.3259 18.7743 20.0992C18.7545 20.456 18.7347 20.8327 18.7347 21.1896C18.3976 21.1698 18.0606 21.15 17.7433 21.1301C17.9416 21.4077 18.1399 21.7051 18.3778 21.9629C18.0407 21.943 17.7037 21.943 17.3666 21.943C17.4658 22.181 17.5847 22.399 17.7037 22.6171C17.9019 22.8551 18.1399 23.093 18.358 23.3309C18.7347 23.2516 19.1114 23.1921 19.4881 23.1326C19.607 23.7869 19.726 24.4412 19.9044 25.0756V25.4722C19.5079 24.9368 19.1708 24.3817 18.814 23.8464C18.6554 24.3222 18.4967 24.8377 18.695 25.3334C19.3096 26.8997 20.8759 27.7919 21.6492 29.2392C20.5587 28.3668 19.6863 27.2764 18.5959 26.404C18.5761 27.1574 18.5959 27.891 18.695 28.6246C18.6157 29.1401 18.5166 29.6357 18.4373 30.1314C18.2192 29.8935 17.9813 29.6754 17.7433 29.4375C17.7632 29.6952 17.7632 29.9331 17.783 30.1909C17.6442 29.8142 17.5252 29.4375 17.4261 29.0409L17.1287 29.6952L17.0296 29.7547C16.752 29.6754 16.4546 29.5961 16.177 29.5168C16.1374 29.0806 16.1176 28.6444 16.0977 28.228C15.8995 28.6246 15.721 29.0211 15.5426 29.4375C15.4236 29.1599 15.3047 28.8823 15.2055 28.6047C15.1262 28.9418 15.0469 29.2788 14.9676 29.5961C14.809 29.3383 14.6702 29.0608 14.5314 28.7832L14.5116 28.6246C14.1547 28.8228 13.778 29.0013 13.4608 29.2788C13.3022 29.6754 13.2427 30.1116 13.1436 30.5477C12.7074 29.8935 12.9255 29.1401 13.1634 28.466C12.7867 28.9814 12.2514 29.3185 11.6169 29.4176L11.8549 28.7039C11.9143 28.4263 11.9342 28.1487 11.954 27.8712C11.9738 27.7324 11.9738 27.435 11.9936 27.2962C12.2316 27.4945 12.4695 27.6729 12.7074 27.8513C12.529 26.6816 11.6169 25.6902 11.7756 24.461C11.954 23.5886 12.4298 22.8352 12.6677 22.0025C12.8264 21.15 12.6677 20.2578 12.8065 19.3854C13.6194 18.7708 14.1746 17.9182 14.809 17.145C14.928 17.2441 15.0271 17.3631 15.1461 17.4821C15.1857 17.4226 15.2849 17.3036 15.3443 17.2441C15.7607 16.8873 16.296 16.6097 16.5537 16.0942C16.5339 15.6382 16.3951 15.2218 16.296 14.7857C16.6727 14.6072 17.1287 14.6469 17.4459 14.3693C17.8028 14.0124 18.1002 13.5961 18.4373 13.2194Z" fill="#303030" stroke="#303030" stroke-width="0.09375"/>
<path d="M29.778 14.1512C30.7693 14.1314 31.6219 13.6357 32.3554 13.0211V13.4969C32.5537 13.5167 32.7321 13.5168 32.9304 13.5366C33.0494 13.834 33.1882 14.1512 33.3269 14.4486C33.2873 14.5477 33.2278 14.7262 33.1882 14.8253C32.6132 14.4089 31.8994 14.2503 31.2253 14.4882C30.6504 14.5477 30.1349 14.8253 29.778 15.2813C30.2538 15.1822 30.7297 15.0632 31.1857 14.9244C31.265 14.9443 31.4038 14.9839 31.4831 15.0037C31.0072 15.2813 30.5512 15.5985 30.1349 15.9752C30.8486 15.7968 31.6219 15.6778 32.3158 16.0744C32.2563 16.114 32.1373 16.233 32.0779 16.2726C31.8796 16.2726 31.6813 16.2726 31.4831 16.2528C31.3839 16.3718 31.3046 16.5106 31.2253 16.6493C30.9081 16.6097 30.5909 16.57 30.2538 16.5304C30.4124 16.7088 30.5512 16.8873 30.69 17.0657C30.4521 17.5019 30.234 17.9182 30.0556 18.3742C29.8573 17.5614 29.6392 16.7485 29.4608 15.9158C29.4211 15.5391 29.4013 15.1425 29.4211 14.746L29.778 14.1512Z" fill="#242424" stroke="#242424" stroke-width="0.09375"/>
<path d="M24.0481 13.7547C24.5834 13.5564 25.1187 13.4375 25.6739 13.4176C26.4273 13.4969 27.1609 13.6556 27.8944 13.8142C27.8151 13.9133 27.6962 14.1314 27.6169 14.2305C27.5574 14.1909 27.3988 14.1116 27.3393 14.0521C26.6057 13.4176 25.5549 13.7745 24.8412 14.2503C25.6739 14.2702 26.5264 14.2702 27.2798 14.6667C27.0617 14.865 26.8238 15.0632 26.5859 15.2813C26.7643 15.4796 26.9428 15.6977 27.1212 15.9158C27.0022 16.0744 26.8833 16.2528 26.7643 16.4313C26.6454 16.2132 26.5066 15.9951 26.3876 15.777C26.3083 15.7572 26.1299 15.7175 26.0307 15.6977C25.9911 15.8761 25.9514 16.0546 25.9118 16.2132C25.4954 16.5106 24.9998 16.6295 24.5041 16.6494C24.9799 16.352 25.436 15.9951 25.7928 15.5589C25.9118 15.5391 26.1497 15.4994 26.2687 15.4796C25.9911 15.321 25.7334 15.1425 25.4756 14.9839C25.8127 14.9641 26.1695 14.9641 26.5066 14.9443C26.4471 14.8253 26.2885 14.6072 26.229 14.5081C25.7928 14.5477 25.3368 14.6072 24.9006 14.6865C24.6825 14.3098 24.4248 13.9728 24.0481 13.7547Z" fill="#9A9A9A" stroke="#9A9A9A" stroke-width="0.09375"/>
<path d="M22.125 15.0236C22.7198 14.5477 23.3344 14.0521 24.0482 13.7547C24.4249 13.9728 24.6826 14.3098 24.9007 14.6865C24.3456 14.9443 23.8301 15.2813 23.3741 15.6977H22.6008C22.7 15.4796 22.8189 15.2615 22.9181 15.0434C22.6603 15.0434 22.3827 15.0434 22.125 15.0236Z" fill="#C5C5C5" stroke="#C5C5C5" stroke-width="0.09375"/>
<path d="M24.8416 14.2503C25.5553 13.7745 26.6061 13.4176 27.3397 14.0521C27.3992 14.1116 27.5578 14.1909 27.6173 14.2305C27.5181 14.3891 27.3992 14.5279 27.2802 14.6667C26.5268 14.2702 25.6743 14.2702 24.8416 14.2503Z" fill="#070707" stroke="#070707" stroke-width="0.09375"/>
<path d="M33.4262 14.1115C33.6046 15.5391 33.3072 16.9666 33.4262 18.3742C32.9503 18.0372 32.6133 17.5614 32.3159 17.0855C32.1176 17.1053 31.9392 17.1252 31.7608 17.145C31.8401 16.8476 31.959 16.57 32.078 16.2726C32.1375 16.233 32.2564 16.114 32.3159 16.0744L32.7124 16.233C32.3952 15.7175 32.0185 15.2615 31.4832 15.0037C31.4039 14.9839 31.2651 14.9443 31.1858 14.9244L31.8401 14.5676C31.6815 14.5477 31.3642 14.5081 31.2254 14.4882C31.8995 14.2503 32.6133 14.4089 33.1883 14.8253C33.2279 14.7262 33.2874 14.5477 33.3271 14.4486C33.3469 14.3693 33.4064 14.1908 33.4262 14.1115Z" fill="#6F6F6F" stroke="#6F6F6F" stroke-width="0.09375"/>
<path d="M24.9013 14.6865C25.3375 14.6072 25.7935 14.5477 26.2297 14.5081C26.2892 14.6072 26.4478 14.8253 26.5073 14.9443C26.1702 14.9641 25.8133 14.9641 25.4763 14.9839C24.2272 14.8848 23.6919 16.2132 22.7402 16.7683C22.9385 16.3916 23.1566 16.0347 23.3747 15.6977C23.8307 15.2813 24.3462 14.9443 24.9013 14.6865Z" fill="#343434" stroke="#343434" stroke-width="0.09375"/>
<path d="M29.7783 15.2813C30.1352 14.8253 30.6507 14.5477 31.2257 14.4882C31.3644 14.508 31.6817 14.5477 31.8403 14.5675L31.186 14.9244C30.73 15.0632 30.2542 15.1822 29.7783 15.2813Z" fill="#C7C7C7" stroke="#C7C7C7" stroke-width="0.09375"/>
<path d="M15.3447 17.2441C15.8404 16.5106 16.118 15.658 16.2964 14.7856C16.3955 15.2218 16.5343 15.6382 16.5541 16.0942C16.2964 16.6097 15.7611 16.8873 15.3447 17.2441Z" fill="#ABABAB" stroke="#ABABAB" stroke-width="0.09375"/>
<path d="M16.8713 15.1227C17.1886 15.4003 17.8032 15.5985 17.7041 16.0942C17.6446 16.5898 17.2084 16.8872 16.8912 17.2045C17.0299 16.5105 17.03 15.8166 16.8713 15.1227Z" fill="#B4B4B4" stroke="#B4B4B4" stroke-width="0.09375"/>
<path d="M30.135 15.9752C30.5514 15.5985 31.0074 15.2813 31.4832 15.0038C32.0185 15.2615 32.3952 15.7175 32.7125 16.233L32.3159 16.0744C31.622 15.6779 30.8488 15.7968 30.135 15.9752Z" fill="#F2F2F2" stroke="#F2F2F2" stroke-width="0.09375"/>
<path d="M17.6443 17.2045C17.8029 16.6097 17.9813 15.9951 18.3382 15.4994C18.358 15.8761 18.4968 16.2925 18.2986 16.6493C18.1003 16.8674 17.8624 17.026 17.6443 17.2045Z" fill="#A4A4A4" stroke="#A4A4A4" stroke-width="0.09375"/>
<path d="M23.553 16.6494C24.1478 16.0149 24.921 15.5787 25.7934 15.5589C25.4365 15.9951 24.9805 16.352 24.5047 16.6494C24.346 16.7088 24.2073 16.7683 24.0685 16.8476C23.89 16.7881 23.7116 16.7088 23.553 16.6494Z" fill="#262626" stroke="#262626" stroke-width="0.09375"/>
<path d="M19.0921 15.7175C19.33 16.1933 19.4291 16.7286 19.2705 17.2441C19.0326 17.6605 18.5964 17.8786 18.2197 18.1561C18.4973 17.3432 18.7749 16.5304 19.0921 15.7175Z" fill="#C0C0C0" stroke="#C0C0C0" stroke-width="0.09375"/>
<path d="M26.0309 15.6977C26.13 15.7175 26.3085 15.7571 26.3878 15.777C26.5067 15.9951 26.6455 16.2132 26.7645 16.4312C26.8636 16.9071 26.705 17.3631 26.5067 17.7993C25.9119 17.72 25.3172 17.6605 24.7422 17.6208C24.7422 17.5217 24.762 17.3433 24.7818 17.264L25.7335 16.9666C25.793 16.7088 25.8525 16.4709 25.9119 16.2132C25.9516 16.0545 25.9913 15.8761 26.0309 15.6977Z" fill="#BABABA" stroke="#BABABA" stroke-width="0.09375"/>
<path d="M29.4613 15.9158C29.6397 16.7485 29.8578 17.5614 30.056 18.3743C30.0759 18.8303 30.0957 19.2665 30.0759 19.7026C29.144 20.456 27.895 20.3173 26.8045 20.575C26.9829 20.8129 27.1415 21.0508 27.3596 21.2689C27.7363 21.2095 28.113 21.0508 28.4898 20.9319C28.807 21.2095 29.1242 21.487 29.4216 21.7844C29.144 22.1611 28.8665 22.518 28.5889 22.8947C28.9259 22.8749 29.2828 22.8352 29.6199 22.7956C29.5802 22.9542 29.5207 23.1128 29.4811 23.2714C28.5294 23.3705 27.5579 23.2714 26.6062 23.2119C27.0424 23.0335 27.4389 22.7956 27.8553 22.5577C26.9829 21.9827 25.8726 22.7361 25.3572 23.4697C25.3175 23.549 25.2184 23.6878 25.1589 23.7671C27.1812 23.5886 29.2035 23.5886 31.206 23.886C30.0759 24.0248 28.9259 24.005 27.8355 24.342C28.1725 24.3222 28.5096 24.3024 28.8665 24.3024C28.7673 24.4015 28.5889 24.6394 28.4898 24.7386L28.4104 24.8575C28.1725 25.1351 27.9743 25.4325 27.776 25.7299C28.1924 26.1264 28.9854 26.4635 28.807 27.1574C28.7475 27.5341 28.5492 27.9901 28.1329 28.0694C27.5381 28.1884 26.9235 28.1686 26.3088 28.0893C25.7537 27.9901 25.3572 27.5341 24.9408 27.1971C24.2667 26.6023 23.6323 25.9876 22.9581 25.4325C22.1651 24.7782 21.2332 24.3619 20.341 23.886C20.2419 23.5093 20.1428 23.1326 20.0635 22.7757C20.4997 22.9542 20.9755 23.0533 21.4513 23.0731C21.7289 23.3111 22.0065 23.5886 22.3435 23.7869C23.1168 23.7076 23.7909 23.2318 24.4253 22.7757C25.5356 21.9827 25.7933 20.5155 26.7252 19.544C27.4588 18.8303 27.6174 17.7993 27.9148 16.8674C27.9743 17.8191 28.0932 18.7708 28.351 19.7026C28.688 19.6233 29.3423 19.7819 29.3621 19.2665C29.3621 18.295 29.3423 17.3036 29.4414 16.3321C29.4414 16.233 29.4613 16.0149 29.4613 15.9158Z" fill="#ECECEC" stroke="#ECECEC" stroke-width="0.09375"/>
<path d="M31.4834 16.2528C31.6817 16.2726 31.8799 16.2726 32.0782 16.2726C31.9592 16.57 31.8403 16.8476 31.761 17.145C31.7411 17.2045 31.7213 17.3234 31.7213 17.4027L32.4351 17.7001C32.2368 18.1165 32.0584 18.5329 31.8601 18.9492C31.4834 18.751 31.0869 18.6122 30.7895 18.3346C30.7696 18.1165 30.8093 17.8984 30.8291 17.6803C30.8688 17.4622 30.7895 17.2441 30.6903 17.0657C30.5515 16.8873 30.4128 16.7088 30.2542 16.5304C30.5912 16.57 30.9084 16.6097 31.2256 16.6493C31.305 16.5106 31.3843 16.3718 31.4834 16.2528Z" fill="#AFAFAF" stroke="#AFAFAF" stroke-width="0.09375"/>
<path d="M12.8069 19.3854C12.9853 18.3346 13.5999 17.4424 14.3732 16.7088C14.512 16.8674 14.6508 17.0062 14.8094 17.145C14.1749 17.9182 13.6198 18.7708 12.8069 19.3854Z" fill="#6C6C6C" stroke="#6C6C6C" stroke-width="0.09375"/>
<path d="M31.7611 17.145C31.9396 17.1252 32.118 17.1054 32.3163 17.0855C32.6137 17.5614 32.9507 18.0372 33.4266 18.3743C33.4464 18.4932 33.5059 18.7311 33.5257 18.8303C33.5059 19.207 33.486 19.5639 33.4464 19.9406C33.1093 19.9802 32.7723 20.0199 32.4551 20.119C31.9792 21.3681 32.4352 22.9145 31.4836 23.9852C31.4439 23.43 31.4043 22.8749 31.3844 22.3197C31.2456 22.4189 31.1069 22.518 30.9482 22.6171C31.087 22.2008 31.2655 21.7844 31.1862 21.3482C31.0474 20.2776 30.7302 19.2268 30.4724 18.176C30.5914 18.0174 30.7103 17.8588 30.8293 17.6803C30.8095 17.8984 30.7698 18.1165 30.7896 18.3346C31.087 18.6122 31.4836 18.751 31.8603 18.9492C32.0585 18.5329 32.237 18.1165 32.4352 17.7002L31.7215 17.4028C31.7215 17.3235 31.7413 17.2045 31.7611 17.145Z" fill="#989898" stroke="#989898" stroke-width="0.09375"/>
<path d="M30.69 17.0657C30.7892 17.2441 30.8685 17.4622 30.8288 17.6803C30.7099 17.8587 30.5909 18.0173 30.472 18.176C30.7297 19.2268 31.0469 20.2776 31.1857 21.3482C31.265 21.7844 31.0866 22.2007 30.9478 22.6171C31.0469 23.0335 31.1262 23.4498 31.2055 23.886C29.2031 23.5886 27.1808 23.5886 25.1584 23.767C25.2179 23.6877 25.3171 23.5489 25.3567 23.4696C25.7731 23.3507 26.1894 23.2714 26.6058 23.2119C27.5575 23.2714 28.529 23.3705 29.4806 23.2714C29.8177 23.2317 30.1547 23.1921 30.4918 23.1524C30.3332 22.9145 30.1944 22.6766 30.0556 22.4387C30.6702 21.9232 30.809 21.0905 30.9676 20.337C30.7694 20.4957 30.5513 20.6344 30.353 20.7732C30.1746 20.7336 29.9961 20.6939 29.8375 20.6543C29.9168 20.337 29.9961 20.0397 30.0754 19.7026C30.0953 19.2664 30.0754 18.8302 30.0556 18.3742C30.234 17.9182 30.4521 17.5019 30.69 17.0657Z" fill="#575757" stroke="#575757" stroke-width="0.09375"/>
<path d="M14.8684 18.057C15.0072 17.9182 15.1658 17.7992 15.3046 17.6605C15.3244 17.9975 15.2649 18.3147 15.2847 18.632C15.1261 18.8104 14.9675 18.9888 14.7891 19.1673C14.8089 18.7906 14.8287 18.4139 14.8684 18.057Z" fill="#686868" stroke="#686868" stroke-width="0.09375"/>
<path d="M40.4054 22.1214C40.7226 20.6543 40.564 19.1475 40.7424 17.6605C41.2182 21.2292 40.901 24.9764 39.3744 28.2676C39.3347 28.1487 39.2752 27.9108 39.2356 27.772C39.3149 27.1772 39.3942 26.5824 39.5132 25.9876C39.87 24.7187 40.1873 23.43 40.4054 22.1214Z" fill="#666666" stroke="#666666" stroke-width="0.09375"/>
<path d="M18.7747 20.0991C18.9729 19.3259 19.3893 18.632 19.7462 17.9182C19.7462 18.4535 19.8255 18.9888 20.0039 19.4845C19.8849 19.6431 19.7858 19.8017 19.6867 19.9603C19.3893 20 19.0721 20.0595 18.7747 20.0991Z" fill="#C5C5C5" stroke="#C5C5C5" stroke-width="0.09375"/>
<path d="M13.6791 21.7447C12.8266 20.4164 13.7782 18.8699 14.8687 18.057C14.829 18.4139 14.8092 18.7906 14.7894 19.1673C14.9678 18.9889 15.1264 18.8104 15.285 18.632C15.6023 18.7311 15.9195 18.8104 16.2367 18.8897C16.1574 19.088 16.0583 19.3061 15.979 19.5043C16.2367 19.3259 16.4945 19.1475 16.772 18.9492C16.6134 19.2466 16.4746 19.544 16.3557 19.8612C15.9592 20.7138 15.9393 21.6853 15.9393 22.6171L15.404 22.0818C15.4238 22.5775 15.4238 23.0533 15.4635 23.5291C15.2057 23.0533 15.0273 22.5378 14.9678 22.0025C14.9282 21.5861 14.8885 21.1698 14.829 20.7534C14.6308 21.1499 14.4127 21.5465 14.2342 21.9628C14.1549 21.3284 14.1153 20.6939 14.0558 20.0595C13.8972 20.6146 13.7782 21.1698 13.6791 21.7447Z" fill="#CBCBCB" stroke="#CBCBCB" stroke-width="0.09375"/>
<path d="M15.2849 18.632C15.4832 18.2949 15.7806 18.0372 16.078 18.394C16.3357 18.3147 16.5935 18.2354 16.871 18.1561C16.6728 18.4139 16.534 18.7509 16.2366 18.8897C15.9194 18.8104 15.6021 18.7311 15.2849 18.632Z" fill="#828282" stroke="#828282" stroke-width="0.09375"/>
<path d="M33.5653 18.9889C33.6644 18.6717 33.7635 18.3346 33.8627 18.0174C34.2394 19.4846 34.6755 20.9319 35.1514 22.3594C35.3893 23.5688 35.6272 24.7981 35.7462 26.0273C35.8255 26.9988 34.9928 27.5936 34.5566 28.347C34.2988 29.2789 34.7945 30.2305 34.6161 31.1624C34.1997 31.7968 33.5256 32.1735 33.0101 32.7287C33.4859 33.0459 33.942 33.3433 34.4178 33.6407C34.2195 33.9579 34.0014 34.2751 33.7635 34.5527C33.4066 34.2751 33.0498 33.9976 32.6731 33.7398C32.9308 34.0769 33.1687 34.4139 33.4265 34.751C32.4946 35.3458 31.543 35.9009 30.6111 36.5155C30.5913 36.3768 30.5913 36.2182 30.5913 36.0794C31.0869 35.6828 31.6421 35.3656 32.1179 34.9294C30.6706 34.8105 29.3422 35.5044 28.0733 36.0992C28.5293 36.3768 29.0052 36.6742 29.5008 36.9319C28.569 36.9121 27.6371 37.0905 26.7053 36.9517C25.9915 36.694 25.476 36.0794 24.9209 35.6035C25.0597 35.3656 25.1985 35.1277 25.3571 34.9096C25.5553 35.0087 25.7536 35.088 25.9717 35.1872C26.3881 35.3656 26.8044 35.5639 27.2604 35.5837C28.0138 35.3656 28.6483 34.8501 29.362 34.5527C29.3422 34.0769 29.3026 33.5812 29.2629 33.1054C29.4612 32.7485 29.6793 32.3916 29.8775 32.0348C28.9655 32.3321 28.0337 32.5899 27.0622 32.5899C26.8441 32.5304 26.626 32.4709 26.4277 32.4115C26.4079 32.3322 26.3881 32.1537 26.3881 32.0744C27.6173 32.0149 28.9259 31.9753 30.0163 31.3607C30.6111 30.5676 30.7499 29.5564 31.1068 28.6642C32.0188 26.9195 33.0498 25.1748 33.3868 23.2119C33.6049 21.8241 33.7635 20.3966 33.5653 18.9889Z" fill="#1D1D1D" stroke="#1D1D1D" stroke-width="0.09375"/>
<path d="M6.58116 26.0471C6.24411 23.6679 6.16481 21.2293 6.58116 18.8699C6.70012 19.7621 6.89839 20.6345 7.07683 21.5267C7.11648 22.6369 7.13631 23.7671 7.29492 24.8575C7.39405 25.5316 7.39405 26.2057 7.31475 26.8798L6.06567 26.0471H6.58116Z" fill="#9B9B9B" stroke="#9B9B9B" stroke-width="0.09375"/>
<path d="M8.84137 18.8501C8.96033 19.544 9.11894 20.238 9.21808 20.9517C9.29738 22.7361 9.81287 24.4808 10.2491 26.2057C10.368 26.8005 10.4473 27.3953 10.5465 28.0099C10.5068 28.1289 10.4473 28.3668 10.4275 28.4858C9.05946 25.492 8.54397 22.1215 8.84137 18.8501Z" fill="#606060" stroke="#606060" stroke-width="0.09375"/>
<path d="M16.4949 20.3371C16.8518 19.7423 17.3276 19.207 17.9422 18.8501C17.506 19.6035 17.0302 20.3173 16.6931 21.1301C16.6337 20.8724 16.5742 20.5948 16.4949 20.3371Z" fill="#D8D8D8" stroke="#D8D8D8" stroke-width="0.09375"/>
<path d="M17.5654 20.2776C17.8033 19.7026 18.1206 19.1276 18.755 18.9095C18.4973 19.4647 18.0611 19.9207 17.5654 20.2776Z" fill="#C4C4C4" stroke="#C4C4C4" stroke-width="0.09375"/>
<path d="M33.5257 18.8303L33.5653 18.9889C33.7636 20.3966 33.605 21.8241 33.3869 23.2119C33.0498 25.1747 32.0188 26.9195 31.1068 28.6642C30.9284 28.7237 30.7698 28.7832 30.5913 28.8427C30.3138 28.922 30.0362 29.0211 29.7586 29.1202C30.2741 28.3073 31.206 27.772 31.4042 26.7807C30.7896 27.3755 30.2939 28.1686 29.4216 28.4461L29.5405 28.3272C29.6 28.2677 29.6991 28.1289 29.7388 28.0694C30.0362 27.6729 30.4922 27.3358 30.5913 26.8402C30.4525 26.3643 30.1155 26.0075 29.8578 25.6109C29.8974 25.3135 29.9172 25.036 29.9569 24.7386C29.4811 24.7584 28.9854 24.7386 28.4897 24.7386C28.5889 24.6394 28.7673 24.4015 28.8664 24.3024C28.5096 24.3024 28.1725 24.3222 27.8354 24.342C28.9259 24.005 30.0758 24.0248 31.206 23.886C31.1267 23.4498 31.0473 23.0335 30.9482 22.6171C31.1068 22.518 31.2456 22.4189 31.3844 22.3197C31.4042 22.8749 31.4439 23.43 31.4835 23.9852C32.4352 22.9145 31.9792 21.3681 32.455 20.119C32.7723 20.0199 33.1093 19.9802 33.4464 19.9405C33.486 19.5638 33.5058 19.207 33.5257 18.8303Z" fill="#868686" stroke="#868686" stroke-width="0.09375"/>
<path d="M20.0037 19.4845C20.1822 19.7026 20.3804 19.9207 20.5787 20.1388C20.2615 20.9715 19.7063 21.8439 20.0632 22.7757C20.1425 23.1326 20.2417 23.5093 20.3408 23.886C21.233 24.3618 22.1648 24.7782 22.9579 25.4324C23.632 25.9876 24.2664 26.6022 24.9405 27.197C24.3656 26.8798 23.6915 26.8203 23.057 26.7807C23.6122 27.2565 24.2664 27.6332 24.7423 28.1883C24.9009 28.5849 24.8414 29.0409 24.8612 29.4572C24.3457 29.2391 23.8303 28.9616 23.2949 28.803C23.057 28.8624 22.8191 29.0012 22.601 29.1004C21.4709 27.9108 20.9951 26.285 19.9046 25.0756C19.7262 24.4411 19.6072 23.7869 19.4882 23.1326C19.1115 23.1921 18.7348 23.2515 18.3581 23.3308C18.14 23.0929 17.9021 22.855 17.7039 22.6171L18.7745 22.0818C18.6754 22.0619 18.4771 22.0025 18.378 21.9628C18.14 21.7051 17.9418 21.4077 17.7435 21.1301C18.0607 21.1499 18.3978 21.1698 18.7348 21.1896C18.7348 20.8327 18.7547 20.456 18.7745 20.0991C19.0719 20.0595 19.3891 20 19.6865 19.9603C19.7856 19.8017 19.8848 19.6431 20.0037 19.4845Z" fill="#DFDFDF" stroke="#DFDFDF" stroke-width="0.09375"/>
<path d="M26.8044 20.575C27.8949 20.3173 29.144 20.456 30.0758 19.7026C29.9965 20.0397 29.9172 20.3371 29.8379 20.6543C29.5802 20.7931 29.3422 20.9121 29.1043 21.0508C29.5009 21.4474 29.7983 21.943 30.056 22.4387C30.1948 22.6766 30.3336 22.9145 30.4922 23.1524C30.1551 23.1921 29.8181 23.2318 29.481 23.2714C29.5207 23.1128 29.5802 22.9542 29.6198 22.7956C29.2828 22.8352 28.9259 22.8749 28.5888 22.8947C28.8664 22.518 29.144 22.1611 29.4216 21.7844C29.1242 21.487 28.8069 21.2095 28.4897 20.9319C28.113 21.0508 27.7363 21.2095 27.3596 21.2689C27.1415 21.0508 26.9829 20.8129 26.8044 20.575Z" fill="#B1B1B1" stroke="#B1B1B1" stroke-width="0.09375"/>
<path d="M15.9396 22.6171C15.9396 21.6852 15.9594 20.7137 16.356 19.8612C16.3956 19.9802 16.4551 20.2181 16.4948 20.337C16.5741 20.5948 16.6335 20.8724 16.693 21.1301C16.7723 21.4275 16.6534 21.7447 16.5939 22.0421C16.4551 21.5861 16.356 21.1301 16.2568 20.6741C15.9991 21.6456 16.1775 22.6567 16.356 23.6481C16.1775 23.5489 15.9793 23.43 15.8008 23.3308C15.8405 23.5688 15.8801 23.8067 15.9396 24.0644C15.8207 24.0248 15.6026 23.9455 15.5034 23.9256C15.5034 23.8265 15.4836 23.6282 15.4638 23.5291C15.4241 23.0533 15.4241 22.5774 15.4043 22.0818L15.9396 22.6171Z" fill="#787878" stroke="#787878" stroke-width="0.09375"/>
<path d="M30.3531 20.7732C30.5513 20.6345 30.7694 20.4957 30.9677 20.3371C30.8091 21.0905 30.6703 21.9232 30.0557 22.4387C29.7979 21.943 29.5005 21.4474 29.104 21.0508C29.3419 20.912 29.5798 20.7931 29.8376 20.6543C29.9962 20.6939 30.1746 20.7336 30.3531 20.7732Z" fill="#464646" stroke="#464646" stroke-width="0.09375"/>
<path d="M27.8154 20.5552C28.0533 20.3767 28.4697 20.3767 28.7275 20.5552C28.6481 20.8328 27.8749 20.8724 27.8154 20.5552Z" fill="#2B2B2B" stroke="#2B2B2B" stroke-width="0.09375"/>
<path d="M14.2341 21.9629C14.4126 21.5465 14.6307 21.15 14.8289 20.7534C14.8884 21.1698 14.9281 21.5862 14.9677 22.0025C14.6108 22.3396 14.8091 22.8749 14.7893 23.3111C14.5117 22.9145 14.1548 22.4783 14.2341 21.9629Z" fill="#808080" stroke="#808080" stroke-width="0.09375"/>
<path d="M17.3667 21.943C17.7037 21.943 18.0408 21.943 18.3778 21.9628C18.477 22.0025 18.6752 22.062 18.7744 22.0818L17.7037 22.6171C17.5848 22.399 17.4658 22.1809 17.3667 21.943Z" fill="#878787" stroke="#878787" stroke-width="0.09375"/>
<path d="M25.3567 23.4697C25.8722 22.7361 26.9825 21.9827 27.8548 22.5576C27.4385 22.7956 27.0419 23.0335 26.6058 23.2119C26.1894 23.2714 25.773 23.3507 25.3567 23.4697Z" fill="#CDCDCD" stroke="#CDCDCD" stroke-width="0.09375"/>
<path d="M13.1045 23.0334C13.3623 23.4696 13.4812 23.9653 13.6597 24.4411C13.7588 24.5997 13.8381 24.7584 13.9372 24.917C13.9967 24.679 14.076 24.461 14.1355 24.223C14.3139 24.461 14.4924 24.6989 14.6907 24.9368C14.7501 24.8971 14.8889 24.8575 14.9682 24.8178C15.1467 24.9764 15.3053 25.1152 15.4837 25.254C15.9001 25.2738 16.1975 25.6109 16.5147 25.8488C16.475 25.6109 16.4354 25.3531 16.3957 25.1152C16.6733 25.2342 16.9509 25.373 17.2086 25.5118C17.2284 25.0161 17.2483 24.5403 17.2879 24.0446C17.8034 24.8377 17.9819 26.0074 17.2483 26.741C17.0897 26.9591 16.8121 26.8203 16.6138 26.8203C16.4552 26.9987 16.3164 27.1574 16.1776 27.316C15.7216 27.2168 15.2656 27.2367 14.8096 27.3358C14.77 27.0979 14.7303 26.8798 14.6907 26.6419C14.4924 26.9591 14.2941 27.2961 14.0959 27.6332C14.2346 25.9678 12.708 24.6989 13.1045 23.0334Z" fill="#C4C4C4" stroke="#C4C4C4" stroke-width="0.09375"/>
<path d="M13.8579 23.43C13.9571 23.6878 14.2148 23.9257 14.1355 24.2231C14.076 24.461 13.9967 24.6791 13.9372 24.917C13.8381 24.7584 13.7588 24.5998 13.6597 24.4412C13.7191 24.1041 13.7786 23.7671 13.8579 23.43Z" fill="#7F7F7F" stroke="#7F7F7F" stroke-width="0.09375"/>
<path d="M13.3618 27.2763C12.4299 26.4634 11.9739 25.0161 12.4894 23.8463C12.6282 25.0359 13.1635 26.1066 13.3618 27.2763Z" fill="#C0C0C0" stroke="#C0C0C0" stroke-width="0.09375"/>
<path d="M18.6953 25.3333C18.497 24.8377 18.6557 24.3222 18.8143 23.8463C19.1711 24.3817 19.5082 24.9368 19.9047 25.4721V25.0756C20.9952 26.285 21.471 27.9108 22.6011 29.1004C22.8192 29.0012 23.0571 28.8625 23.2951 28.803C23.8304 28.9616 24.3459 29.2392 24.8614 29.4572C24.8415 29.0409 24.901 28.5849 24.7424 28.1884C24.2666 27.6332 23.6123 27.2565 23.0571 26.7807C23.6916 26.8203 24.3657 26.8798 24.9407 27.197C25.357 27.5341 25.7535 27.9901 26.3087 28.0892C26.9233 28.1685 27.5379 28.1884 28.1327 28.0694C28.5491 27.9901 28.7473 27.5341 28.8068 27.1574C28.9853 26.4634 28.1922 26.1264 27.7758 25.7299C27.9741 25.4325 28.1724 25.1351 28.4103 24.8575C28.8465 25.4126 29.4214 25.8885 29.7585 26.5229C29.8775 27.0384 29.7982 27.5539 29.7387 28.0694C29.699 28.1289 29.5999 28.2677 29.5404 28.3271C28.331 28.6642 27.0621 28.803 25.8923 28.3073C25.7535 28.4659 25.6148 28.6444 25.476 28.803C25.6742 29.1202 25.8725 29.4572 26.0708 29.7745C25.5156 29.7348 24.9605 29.6952 24.4053 29.6753C24.0881 30.052 23.7709 30.4486 23.4338 30.8253C22.7796 30.3693 22.1649 29.834 21.6495 29.2392C20.8762 27.7918 19.3099 26.8996 18.6953 25.3333Z" fill="#C0C0C0" stroke="#C0C0C0" stroke-width="0.09375"/>
<path d="M11.9539 27.8711C11.6169 26.7608 11.4384 25.5911 11.7755 24.461C11.6169 25.6902 12.5289 26.6815 12.7074 27.8513C12.4694 27.6729 12.2315 27.4944 11.9936 27.2962C11.9738 27.4349 11.9738 27.7323 11.9539 27.8711Z" fill="#8E8E8E" stroke="#8E8E8E" stroke-width="0.09375"/>
<path d="M28.4099 24.8575L28.4892 24.7385C28.9849 24.7385 29.4805 24.7584 29.9564 24.7385C29.9167 25.0359 29.8969 25.3135 29.8573 25.6109C30.115 26.0074 30.452 26.3643 30.5908 26.8401C30.4917 27.3358 30.0357 27.6729 29.7383 28.0694C29.7978 27.5539 29.8771 27.0384 29.7581 26.5229C29.4211 25.8885 28.8461 25.4126 28.4099 24.8575Z" fill="#ABABAB" stroke="#ABABAB" stroke-width="0.09375"/>
<path d="M33.625 25.0756C33.9422 24.9765 34.2396 24.8773 34.5568 24.7782C34.6758 24.917 34.8146 25.0558 34.9335 25.1946C34.993 25.0558 35.0921 24.798 35.1516 24.6791C35.3895 25.2342 35.5878 25.829 35.449 26.4238C35.2904 26.8402 34.9534 27.1376 34.6758 27.435C34.6956 27.197 34.7353 26.9393 34.7749 26.6816C34.537 26.86 34.2991 27.0186 34.0612 27.197L34.1801 26.4833C33.962 26.6816 33.7439 26.86 33.5259 27.0583C33.4267 26.7807 33.3276 26.5229 33.2483 26.2454C33.3078 25.829 33.4664 25.4523 33.625 25.0756Z" fill="#8A8A8A" stroke="#8A8A8A" stroke-width="0.09375"/>
<path d="M5.23315 25.7497C5.51073 25.8488 5.7883 25.948 6.06587 26.0471L7.31494 26.8798C8.26661 27.5539 9.11915 28.347 9.77343 29.2986C10.4079 30.2503 10.7053 31.3804 10.9234 32.5105C10.4475 32.3519 9.99152 32.1933 9.53551 32.0347L9.59499 30.6667C9.43638 30.7856 9.29759 30.9046 9.13898 31.0434C8.54418 29.8538 8.02869 28.6047 7.09685 27.6134C7.47355 28.6245 7.67182 29.7547 8.42522 30.5675C8.02869 30.4684 7.63216 30.3494 7.25546 30.2503C7.8106 30.627 8.34592 31.083 8.7821 31.6183C7.98904 31.4994 7.23563 31.2615 6.44257 31.1822C5.92708 29.3978 5.7883 27.5341 5.23315 25.7497Z" fill="#FAFAFA" stroke="#FAFAFA" stroke-width="0.09375"/>
<path d="M43.4585 26.1462C43.7955 25.9876 44.1524 25.829 44.4894 25.6902C43.8946 27.2962 43.7559 28.9814 43.4188 30.6468C42.8637 31.5192 41.7335 31.5589 40.8017 31.6778C41.2181 31.1029 41.7732 30.6468 42.3482 30.2503C41.9913 30.3495 41.6542 30.4684 41.3172 30.5675C41.793 29.7943 42.1103 28.9021 42.2887 28.0099C41.5551 28.9219 41.0991 29.9926 40.544 31.0236C40.4052 30.7658 40.2466 30.5279 40.1078 30.29C40.0483 30.8451 40.0086 31.4003 39.969 31.9554C39.5526 32.1735 39.1363 32.3916 38.7397 32.6295C38.9182 31.1029 39.513 29.6753 40.4647 28.4858C41.2974 27.6729 42.1896 26.9393 43.1611 26.285C43.2205 26.2454 43.3792 26.1661 43.4585 26.1462Z" fill="#FAFAFA" stroke="#FAFAFA" stroke-width="0.09375"/>
<path d="M36.6383 31.2615C37.8874 29.6753 38.74 27.8513 39.5132 25.9876C39.3942 26.5824 39.3149 27.1772 39.2356 27.772C38.1452 30.6072 36.1625 33.0657 33.7437 34.8897C32.9903 35.5044 31.8403 35.7819 31.6222 36.8526C31.3645 36.8922 31.1067 36.912 30.8292 36.9319C30.7895 36.8327 30.6706 36.6146 30.6111 36.5155C31.5429 35.9009 32.4946 35.3457 33.4264 34.7509C33.1687 34.4139 32.9308 34.0768 32.673 33.7398C33.0497 33.9975 33.4066 34.2751 33.7635 34.5527C34.0014 34.2751 34.2195 33.9579 34.4178 33.6407C35.191 32.8872 36.0039 32.1537 36.6383 31.2615Z" fill="#C0C0C0" stroke="#C0C0C0" stroke-width="0.09375"/>
<path d="M10.2495 26.2057C10.6262 27.0384 11.0624 27.8711 11.4589 28.7039H11.8555L11.6175 29.4176C11.9348 30.0521 12.3115 30.6469 12.7675 31.202C13.0252 31.539 13.3028 31.8761 13.5605 32.2132C14.2148 33.0855 15.226 33.6605 15.682 34.6518C13.4218 32.9467 11.6374 30.6072 10.5469 28.0099C10.4478 27.3953 10.3685 26.8005 10.2495 26.2057Z" fill="#B1B1B1" stroke="#B1B1B1" stroke-width="0.09375"/>
<path d="M32.554 28.1289C32.1178 27.3953 32.7721 26.7608 33.2479 26.2454C33.3272 26.5229 33.4264 26.7807 33.5255 27.0582L33.585 27.2169C33.2678 27.5539 32.9307 27.8711 32.554 28.1289Z" fill="#444444" stroke="#444444" stroke-width="0.09375"/>
<path d="M18.5963 26.404C19.6867 27.2763 20.5591 28.3668 21.6495 29.2392C22.165 29.8339 22.7797 30.3693 23.4339 30.8253C23.8305 31.1028 24.227 31.3804 24.6434 31.6382C24.8416 31.7373 25.0399 31.8562 25.2381 31.9554C25.6149 32.1338 26.0114 32.2924 26.4277 32.4114C26.626 32.4709 26.8441 32.5304 27.0622 32.5898C27.3398 32.7088 27.6173 32.8476 27.9147 32.9665C27.3398 32.9864 26.7648 32.9864 26.1898 32.9864V33.482C25.4166 33.1251 24.6632 32.7484 23.9098 32.3916C24.5046 32.8277 25.0994 33.2838 25.5752 33.8389C25.258 33.7596 24.9408 33.7001 24.6235 33.6406C25.0201 33.8984 25.3968 34.1958 25.8528 34.3346C26.5665 34.5527 27.3001 34.5527 28.0337 34.5527C28.0932 34.632 28.232 34.7906 28.2914 34.85C27.538 34.969 26.6062 34.6121 25.9717 35.1871C25.7536 35.088 25.5554 35.0087 25.3571 34.9095C24.6037 34.5328 23.8701 34.1561 23.1365 33.7596C22.9978 33.6208 22.859 33.5018 22.7004 33.3631C21.0548 32.0743 19.6867 30.4684 18.6954 28.6245C18.5963 27.8909 18.5764 27.1574 18.5963 26.404Z" fill="#FCFCFC" stroke="#FCFCFC" stroke-width="0.09375"/>
<path d="M29.4214 28.4461C30.2938 28.1685 30.7895 27.3754 31.4041 26.7806C31.2058 27.772 30.274 28.3073 29.7585 29.1202C29.0051 29.3581 28.2318 29.5167 27.4784 29.6951C27.7957 30.1115 28.0931 30.5279 28.3905 30.9442C29.2232 30.3692 30.3929 29.9331 30.5912 28.8426C30.7696 28.7831 30.9283 28.7236 31.1067 28.6642C30.7498 29.5564 30.611 30.5675 30.0162 31.3606C28.9258 31.9752 27.6172 32.0148 26.388 32.0743C26.388 32.1536 26.4078 32.3321 26.4276 32.4114C26.0113 32.2924 25.6147 32.1338 25.238 31.9554C25.813 31.8761 26.388 31.8364 26.9233 31.6183C27.2207 31.4399 27.3793 31.1227 27.5776 30.8451L26.9828 30.0718C26.9828 29.9727 26.9431 29.7943 26.9431 29.715C26.6259 29.4374 26.3285 29.14 26.0509 28.8624C27.181 29.0012 28.4103 29.1202 29.4214 28.4461Z" fill="#6C6C6C" stroke="#6C6C6C" stroke-width="0.09375"/>
<path d="M7.09689 27.6134C8.02873 28.6047 8.54422 29.8538 9.13902 31.0434C9.21832 31.3804 9.25798 31.7175 9.2778 32.0545C8.24682 31.7571 7.19602 31.4994 6.16504 31.1425C6.22452 31.1624 6.38313 31.1624 6.44261 31.1822C7.23567 31.2615 7.98908 31.4994 8.78214 31.6184C8.34596 31.083 7.81064 30.627 7.2555 30.2503C7.6322 30.3495 8.02873 30.4684 8.42526 30.5676C7.67185 29.7547 7.47359 28.6246 7.09689 27.6134Z" fill="#717171" stroke="#717171" stroke-width="0.09375"/>
<path d="M16.6533 28.3272C16.8515 28.0298 17.2282 28.0099 17.5454 27.9703C17.3274 28.5056 17.1093 29.259 16.3955 29.259C16.455 28.9418 16.5145 28.6246 16.6533 28.3272Z" fill="#ABABAB" stroke="#ABABAB" stroke-width="0.09375"/>
<path d="M39.2354 27.772C39.275 27.9108 39.3345 28.1487 39.3742 28.2677C37.9863 31.7175 35.3296 34.6122 32.0582 36.3965C32.1177 36.5552 32.197 36.7336 32.2564 36.912H34.0607C34.14 36.4957 34.2391 36.0397 34.6356 35.8017C36.0037 34.8699 37.1536 33.6605 38.1647 32.3519C38.7794 31.5589 38.9578 30.5279 39.4535 29.6754C39.7509 29.14 40.1077 28.684 40.4448 28.1884C40.4448 28.2478 40.4646 28.4065 40.4646 28.4858C39.513 29.6754 38.9182 31.1029 38.7397 32.6295L38.7199 32.8079C37.57 33.3036 36.8364 34.3148 36.083 35.2664C35.508 35.7224 34.5563 35.9802 34.5761 36.8526C35.9442 36.9517 37.3122 37.031 38.6802 36.8724C40.425 36.9913 42.1895 36.912 43.9343 36.9319C45.4014 36.8922 46.8884 37.0112 48.3358 36.8327C48.4547 36.8327 48.653 36.8129 48.7719 36.8129L48.8909 36.7931C48.9305 36.8922 49.0297 37.0905 49.0892 37.1896C48.1771 37.3284 47.2453 37.2689 46.3134 37.2689C35.0718 37.2887 23.85 37.2491 12.6084 37.2689C8.76202 37.2491 4.91568 37.3086 1.06934 37.2293C1.78309 36.1983 3.2106 36.1586 4.32088 35.8811C4.71742 35.8612 5.11395 35.8414 5.49065 35.8414C5.96649 35.9405 6.4225 36.0595 6.89833 36.1388C6.68024 36.1784 6.44232 36.2578 6.2044 36.3172C4.75707 35.7423 3.19077 36.2776 1.82274 36.8724C5.80787 36.9319 9.81283 36.912 13.798 36.912C14.3134 36.912 14.8091 36.7931 15.3048 36.6345C15.3444 36.6741 15.4436 36.7534 15.4832 36.8129C16.1771 36.9715 16.9107 36.912 17.6046 36.8526C17.446 35.9802 16.4944 35.7423 15.8797 35.2664C13.4807 33.5613 11.5972 31.1623 10.4275 28.4858C10.4473 28.3668 10.5068 28.1289 10.5464 28.0099C11.6369 30.6072 13.4213 32.9467 15.6815 34.6518C15.8797 34.8104 16.0978 34.9492 16.2961 35.088C17.0099 35.5043 17.684 36 18.14 36.6939L18.3184 36.0397C18.14 35.8811 17.9814 35.7224 17.8029 35.5837C17.6443 34.1363 16.8711 32.8476 15.9392 31.7571C16.0185 31.658 16.1573 31.4796 16.2366 31.3804C16.9504 32.0942 17.4659 32.9269 17.9615 33.7596C18.3184 34.4139 18.9925 34.7311 19.4882 35.2268C19.9244 35.7026 20.1623 36.2974 20.4597 36.8724C20.5786 36.8724 20.8165 36.8922 20.9355 36.912C21.4113 36.9319 21.8872 36.9319 22.363 36.9319C21.57 35.9604 20.6183 35.1276 19.6864 34.2949C18.7942 33.1846 17.8426 32.0744 17.1685 30.8055C16.9504 30.4684 17.0297 30.0719 17.1288 29.6952L17.4262 29.0409C17.5253 29.4374 17.6443 29.8141 17.7831 30.1908C18.6951 32.1933 20.1028 33.8984 21.5898 35.5043C22.0458 35.9604 22.4423 36.5155 22.9975 36.8327C23.8897 37.0905 24.8413 36.9319 25.7533 36.8922C24.6232 35.7224 23.3742 34.6915 22.2044 33.5415L22.0854 33.4424C22.2441 33.4226 22.5613 33.3829 22.7001 33.3631C22.8587 33.5019 22.9975 33.6208 23.1362 33.7596C23.7112 34.3941 24.2664 35.0285 24.9206 35.6035C25.4758 36.0793 25.9913 36.6939 26.705 36.9517C27.6369 37.0905 28.5687 36.912 29.5006 36.9319C29.9367 36.9319 30.3928 36.9517 30.8289 36.9319C31.1065 36.912 31.3643 36.8922 31.622 36.8526C31.8401 35.7819 32.99 35.5043 33.7434 34.8897C36.1623 33.0657 38.1449 30.6072 39.2354 27.772Z" fill="#050505" stroke="#050505" stroke-width="0.09375"/>
<path d="M40.5442 31.0235C41.0994 29.9926 41.5554 28.9219 42.289 28.0099C42.1105 28.9021 41.7933 29.7943 41.3175 30.5675C41.6545 30.4684 41.9916 30.3494 42.3484 30.2503C41.7735 30.6468 41.2183 31.1029 40.802 31.6778C41.7338 31.5589 42.8639 31.5192 43.4191 30.6468L43.3398 31.1227C43.4984 31.0632 43.657 31.0235 43.8156 30.9641C44.3113 30.8649 44.8267 30.8055 45.3224 30.7063C45.1043 31.5787 44.688 32.3916 44.2518 33.1648C45.4414 33.5019 46.4922 34.1958 47.3249 35.1078C46.7301 35.3259 46.1353 35.6035 45.5008 35.6828C45.4215 35.6629 45.2828 35.5836 45.2035 35.544C45.7189 35.3854 46.2344 35.2069 46.7697 35.0483C46.0163 34.3147 45.1043 33.5217 43.994 33.5812C43.7958 33.7993 43.657 34.0173 43.4785 34.2553C44.0535 34.394 44.6087 34.5328 45.1638 34.6716C44.3906 34.7311 43.5975 34.7113 42.8639 34.9492C42.2493 35.2664 41.7338 35.7422 41.1787 36.1388C40.7425 36.119 40.3063 36.0396 39.8701 35.9802C41.9321 34.7311 44.2716 33.4027 45.0845 30.9839C43.4191 31.3011 41.7338 31.6183 40.1477 32.2131C40.2468 31.8166 40.3658 31.4003 40.5442 31.0235Z" fill="#454545" stroke="#454545" stroke-width="0.09375"/>
<path d="M15.543 29.4374C15.7214 29.0211 15.8999 28.6246 16.0981 28.228C16.118 28.6444 16.1378 29.0806 16.1774 29.5167C16.455 29.5961 16.7524 29.6754 17.03 29.7547C16.3955 30.2107 15.4637 30.29 14.968 29.5961C15.0473 29.2788 15.1266 28.9418 15.2059 28.6047C15.3051 28.8823 15.424 29.1599 15.543 29.4374Z" fill="#B9B9B9" stroke="#B9B9B9" stroke-width="0.09375"/>
<path d="M25.8923 28.3073C27.0621 28.803 28.331 28.6642 29.5404 28.3271L29.4215 28.4461C28.4103 29.1202 27.1811 29.0012 26.0509 28.8625C26.3285 29.14 26.6259 29.4374 26.9431 29.715C26.9431 29.7943 26.9828 29.9727 26.9828 30.0719C26.3682 30.3891 25.6742 30.5477 24.9803 30.5874C24.8613 30.9442 24.7622 31.2813 24.6433 31.6382C24.2269 31.3804 23.8304 31.1029 23.4338 30.8253C23.7709 30.4486 24.0881 30.052 24.4053 29.6753C24.9605 29.6952 25.5156 29.7348 26.0708 29.7745C25.8725 29.4573 25.6742 29.1202 25.476 28.803C25.6148 28.6444 25.7535 28.4659 25.8923 28.3073Z" fill="#9F9F9F" stroke="#9F9F9F" stroke-width="0.09375"/>
<path d="M11.6169 29.4176C12.2514 29.3185 12.7867 28.9814 13.1634 28.4659C12.9255 29.14 12.7074 29.8934 13.1436 30.5477C13.2427 30.1115 13.3022 29.6754 13.4608 29.2788C13.778 29.0013 14.1547 28.8228 14.5116 28.6246L14.5314 28.7832C14.5314 29.1202 14.5116 29.4771 14.5909 29.8141C14.9081 30.171 15.3443 30.3891 15.7607 30.6469C15.2055 30.5477 14.6504 30.3891 14.0953 30.4486C13.5996 30.6072 13.1832 30.9443 12.7669 31.202C12.3109 30.6469 11.9342 30.0521 11.6169 29.4176Z" fill="#8B8B8B" stroke="#8B8B8B" stroke-width="0.09375"/>
<path d="M18.6953 28.6245C19.6867 30.4684 21.0547 32.0744 22.7003 33.3631C22.5615 33.3829 22.2443 33.4226 22.0857 33.4424C21.3124 32.7286 20.6383 31.8761 19.7065 31.3408C19.4686 32.1933 20.1625 32.8476 20.678 33.4424C21.0349 33.8587 21.5107 34.1561 22.0064 34.4139C22.0658 34.1165 22.1451 33.8389 22.2046 33.5415C23.3744 34.6915 24.6235 35.7224 25.7536 36.8922C24.8416 36.9318 23.8899 37.0905 22.9977 36.8327C22.4425 36.5155 22.046 35.9604 21.59 35.5043C20.103 33.8984 18.6953 32.1933 17.7833 30.1908C17.7635 29.9331 17.7635 29.6952 17.7437 29.4374C17.9816 29.6753 18.2195 29.8934 18.4376 30.1314C18.5169 29.6357 18.616 29.14 18.6953 28.6245Z" fill="#737373" stroke="#737373" stroke-width="0.09375"/>
<path d="M14.5316 28.7832C14.6704 29.0608 14.8092 29.3383 14.9678 29.5961C15.4635 30.29 16.3953 30.2107 17.0298 29.7547L17.1289 29.6952C17.0298 30.0719 16.9505 30.4685 17.1686 30.8055C17.8427 32.0744 18.7944 33.1847 19.6865 34.295C20.0434 35.207 20.44 36.0794 20.9356 36.9121C20.8167 36.8923 20.5787 36.8724 20.4598 36.8724C20.1624 36.2975 19.9245 35.7027 19.4883 35.2268C18.9926 34.7312 18.3185 34.4139 17.9616 33.7597C17.466 32.9269 16.9505 32.0942 16.2367 31.3805C16.1574 31.4796 16.0186 31.658 15.9393 31.7572C15.7014 31.5589 15.4437 31.4003 15.1859 31.2219C14.6308 31.5193 14.0955 31.8563 13.5602 32.2132C13.3024 31.8761 13.0248 31.5391 12.7671 31.202C13.1834 30.9443 13.5998 30.6072 14.0955 30.4486C14.6506 30.3892 15.2058 30.5478 15.7609 30.6469C15.3445 30.3892 14.9084 30.1711 14.5911 29.8142C14.5118 29.4771 14.5316 29.1203 14.5316 28.7832Z" fill="#262626" stroke="#262626" stroke-width="0.09375"/>
<path d="M29.7581 29.1202C30.0357 29.0211 30.3132 28.922 30.5908 28.8427C30.3925 29.9331 29.2228 30.3693 28.3901 30.9443C28.0927 30.5279 27.7953 30.1115 27.478 29.6952C28.2314 29.5167 29.0047 29.3581 29.7581 29.1202Z" fill="#3B3B3B" stroke="#3B3B3B" stroke-width="0.09375"/>
<path d="M33.8424 28.7237C34.2191 29.4374 34.2588 30.2702 34.239 31.0632C33.6838 30.4288 33.4261 29.4969 33.8424 28.7237Z" fill="#6C6C6C" stroke="#6C6C6C" stroke-width="0.09375"/>
<path d="M31.8999 29.596C32.4947 30.2107 32.9309 30.9839 33.2283 31.7968C32.9309 31.8761 32.574 32.0149 32.3361 31.6977C31.8999 31.1029 31.9594 30.29 31.8999 29.596Z" fill="#696969" stroke="#696969" stroke-width="0.09375"/>
<path d="M24.9804 30.5874C25.6743 30.5477 26.3682 30.3891 26.9828 30.0719L27.5776 30.8451C27.3794 31.1227 27.2208 31.4399 26.9234 31.6184C26.388 31.8365 25.8131 31.8761 25.2381 31.9554C25.0398 31.8563 24.8416 31.7373 24.6433 31.6382C24.7623 31.2813 24.8614 30.9443 24.9804 30.5874Z" fill="#898989" stroke="#898989" stroke-width="0.09375"/>
<path d="M5.80806 30.1512C5.88737 30.4684 5.94685 30.8055 6.00633 31.1227C5.55032 31.0632 5.07448 30.9839 4.61847 30.9244C4.95552 31.9157 5.49084 32.8476 6.30372 33.5415C7.94932 34.969 9.89232 36.1784 12.0732 36.456C11.5776 36.5551 11.0819 36.6146 10.5863 36.6543C9.13892 36.3172 7.59245 37.0508 6.20459 36.3172C6.44251 36.2577 6.68043 36.1784 6.89852 36.1388C7.43384 36.119 7.98898 36.0991 8.52429 36.0595C7.9295 35.5836 7.19592 35.425 6.44251 35.4845C6.73991 35.425 7.0373 35.3457 7.35453 35.2862C6.54164 34.5923 5.43136 34.7906 4.45986 34.6915C5.05465 34.513 5.62962 34.3544 6.22442 34.176C5.94685 33.938 5.72875 33.482 5.29257 33.601C4.32107 33.7398 3.56766 34.4337 2.81426 35.0087L5.49084 35.8414C5.11413 35.8414 4.7176 35.8612 4.32107 35.881C3.6668 35.663 3.03235 35.3457 2.41772 35.0087C3.29009 34.2156 4.22194 33.3829 5.43136 33.2441C4.95552 32.4312 4.53916 31.5985 4.30124 30.6865C4.75725 30.7658 5.23309 30.8451 5.6891 30.9046C5.70893 30.7262 5.78823 30.3296 5.80806 30.1512Z" fill="#404040" stroke="#404040" stroke-width="0.09375"/>
<path d="M39.9688 31.9554C40.0085 31.4003 40.0481 30.8451 40.1076 30.29C40.2464 30.5279 40.405 30.7658 40.5438 31.0236C40.3653 31.4003 40.2464 31.8166 40.1472 32.2131L38.7197 32.8079L38.7396 32.6295C39.1361 32.3916 39.5524 32.1735 39.9688 31.9554Z" fill="#BBBBBB" stroke="#BBBBBB" stroke-width="0.09375"/>
<path d="M4.61841 30.9244C5.07442 30.9839 5.55025 31.0632 6.00626 31.1227L6.16488 31.1425C7.19585 31.4994 8.24666 31.7572 9.27764 32.0545C10.15 32.3519 11.0025 32.7088 11.7361 33.264C12.4499 33.7795 12.9257 34.5329 13.5403 35.1277C13.461 35.4251 13.3817 35.7224 13.2628 36.0198C12.9257 36.2776 12.4895 36.3767 12.0732 36.456C9.89226 36.1785 7.94926 34.969 6.30366 33.5415C5.49077 32.8476 4.95546 31.9158 4.61841 30.9244Z" fill="#FBFBFB" stroke="#FBFBFB" stroke-width="0.09375"/>
<path d="M40.147 32.2131C41.7331 31.6183 43.4183 31.3011 45.0838 30.9839C44.2709 33.4027 41.9313 34.7311 39.8694 35.9802C38.7988 36.3172 37.6885 36.4758 36.5782 36.456C36.4196 36.0595 36.261 35.6629 36.0825 35.2664C36.8359 34.3147 37.5695 33.3036 38.7194 32.8079L40.147 32.2131Z" fill="#FCFCFC" stroke="#FCFCFC" stroke-width="0.09375"/>
<path d="M13.5601 32.2132C14.0954 31.8563 14.6307 31.5192 15.1858 31.2218C15.4436 31.4003 15.7013 31.5589 15.9392 31.7571C16.8711 32.8476 17.6443 34.1363 17.8029 35.5837C17.3073 35.3854 16.8116 35.2466 16.2961 35.088C16.0979 34.9492 15.8798 34.8104 15.6815 34.6518C15.2255 33.6605 14.2143 33.0855 13.5601 32.2132Z" fill="#646464" stroke="#646464" stroke-width="0.09375"/>
<path d="M19.7066 31.3408C20.6385 31.8761 21.3126 32.7286 22.0858 33.4424L22.2048 33.5415C22.1453 33.8389 22.066 34.1165 22.0065 34.4139C21.5108 34.1561 21.035 33.8587 20.6781 33.4424C20.1626 32.8476 19.4687 32.1933 19.7066 31.3408Z" fill="#949494" stroke="#949494" stroke-width="0.09375"/>
<path d="M40.1474 33.4622C41.5749 33.0855 42.8835 32.4114 44.1127 31.6184C43.28 32.5899 42.031 32.9269 40.9603 33.5416C41.3569 33.6407 41.7732 33.7596 42.1697 33.8786C40.9802 33.8786 39.6121 33.6605 38.6803 34.5527C39.3544 34.7311 40.0681 34.7311 40.7621 34.6915C39.6518 35.0682 38.4225 34.632 37.3519 35.1872C37.5502 35.3061 37.7484 35.4449 37.9665 35.5639C37.4907 35.663 37.0148 35.7225 36.5588 35.782C37.3122 35.0682 37.907 34.2157 38.5217 33.3829C38.3829 33.72 38.2243 34.0372 38.0855 34.3743C38.5217 34.1958 38.9777 34.057 39.3742 33.7795C39.7906 33.4226 40.088 32.9468 40.4448 32.5304C40.3457 32.8476 40.2466 33.145 40.1474 33.4622Z" fill="#333333" stroke="#333333" stroke-width="0.09375"/>
<path d="M6.06567 32.0149C7.21561 32.4907 8.30607 33.1053 9.51549 33.3829C9.3767 33.0459 9.23792 32.7286 9.07931 32.3916C9.71375 33.2243 10.4275 34.0768 11.4981 34.2553C11.3197 33.8786 11.1214 33.5019 10.9232 33.1252C11.7955 33.9182 12.1722 35.088 13.1834 35.7224C12.4696 35.6233 11.7361 35.5242 11.0025 35.4449C11.4387 35.425 11.8748 35.4052 12.2912 35.3656C11.4585 34.1363 9.81289 35.3854 8.82156 34.4932C9.51549 34.6122 10.2292 34.6915 10.943 34.5725C10.1499 33.6208 8.80173 33.72 7.69145 33.7001C8.0285 33.6407 8.34572 33.5812 8.68278 33.5217C7.83023 32.9666 6.81908 32.7088 6.06567 32.0149Z" fill="#343434" stroke="#343434" stroke-width="0.09375"/>
<path d="M27.0618 32.5899C28.0333 32.5899 28.9652 32.3321 29.8772 32.0347C29.6789 32.3916 29.4609 32.7485 29.2626 33.1054C28.3902 33.1252 27.498 33.1847 26.6455 33.3036C27.3791 33.4622 28.1523 33.5019 28.9255 33.5217C28.2514 33.9381 27.4584 34.0372 26.7248 33.7398C26.467 33.6803 26.2093 33.5812 25.9516 33.5019C26.0507 33.6803 26.1498 33.8786 26.2291 34.057C26.011 33.9777 25.7929 33.8984 25.5749 33.8389C25.099 33.2838 24.5042 32.8278 23.9094 32.3916C24.6628 32.7485 25.4162 33.1252 26.1895 33.4821V32.9864C26.7644 32.9864 27.3394 32.9864 27.9144 32.9666C27.617 32.8476 27.3394 32.7088 27.0618 32.5899Z" fill="#BCBCBC" stroke="#BCBCBC" stroke-width="0.09375"/>
<path d="M30.6707 32.233C31.0276 32.4511 31.4043 32.6295 31.7017 32.9467C32.0189 33.4226 31.9991 34.0174 32.0784 34.5725C31.8009 34.5725 31.5431 34.5527 31.2854 34.5527C31.1862 33.9579 31.0871 33.3631 30.9681 32.7881L30.8492 33.6208C30.6311 33.3433 30.4328 33.0657 30.2147 32.7881C30.2147 32.8872 30.2346 33.1053 30.2346 33.2045C29.957 32.7683 30.413 32.5105 30.6707 32.233Z" fill="#7E7E7E" stroke="#7E7E7E" stroke-width="0.09375"/>
<path d="M30.2146 32.7881C30.4327 33.0657 30.631 33.3433 30.849 33.6209L30.968 32.7881C31.087 33.3631 31.1861 33.9579 31.2852 34.5527L30.3336 34.7906C30.2939 34.2553 30.2543 33.7398 30.2344 33.2045C30.2344 33.1054 30.2146 32.8873 30.2146 32.7881Z" fill="#C7C7C7" stroke="#C7C7C7" stroke-width="0.09375"/>
<path d="M26.6456 33.3036C27.4981 33.1847 28.3903 33.1252 29.2627 33.1054C29.3023 33.5812 29.342 34.0769 29.3618 34.5527C29.3222 34.3148 29.3023 34.057 29.2825 33.8191C28.8662 34.0769 28.4498 34.3346 28.0335 34.5527C27.2999 34.5527 26.5663 34.5527 25.8525 34.3346C26.0706 34.3148 26.2689 34.2751 26.4672 34.2355C26.5465 34.0769 26.6456 33.9183 26.7249 33.7398C27.4585 34.0372 28.2515 33.9381 28.9256 33.5217C28.1524 33.5019 27.3792 33.4623 26.6456 33.3036Z" fill="#323232" stroke="#323232" stroke-width="0.09375"/>
<path d="M2.81421 35.0087C3.56762 34.4337 4.32102 33.7398 5.29252 33.601C5.72871 33.482 5.9468 33.938 6.22437 34.176C5.62957 34.3544 5.05461 34.513 4.45981 34.6914C5.43131 34.7906 6.54159 34.5923 7.35448 35.2862C7.03726 35.3457 6.73986 35.425 6.44246 35.4845C7.19587 35.425 7.92945 35.5836 8.52425 36.0595C7.98893 36.0991 7.43379 36.1189 6.89847 36.1388C6.42264 36.0595 5.96662 35.9405 5.49079 35.8414L2.81421 35.0087Z" fill="#F9F9F9" stroke="#F9F9F9" stroke-width="0.09375"/>
<path d="M24.6235 33.6407C24.9408 33.7002 25.258 33.7596 25.5752 33.8389C25.7933 33.8984 26.0114 33.9777 26.2295 34.057C26.1502 33.8786 26.051 33.6803 25.9519 33.5019C26.2097 33.5812 26.4674 33.6803 26.7251 33.7398C26.6458 33.9182 26.5467 34.0769 26.4674 34.2355C26.2691 34.2751 26.0709 34.3148 25.8528 34.3346C25.3968 34.1958 25.0201 33.8984 24.6235 33.6407Z" fill="#939393" stroke="#939393" stroke-width="0.09375"/>
<path d="M43.9941 33.5812C45.1044 33.5217 46.0164 34.3148 46.7698 35.0483C46.2345 35.207 45.719 35.3854 45.2035 35.544C43.8949 35.9604 42.5467 36.1983 41.1787 36.1388C41.7339 35.7423 42.2493 35.2664 42.864 34.9492C43.5975 34.7113 44.3906 34.7311 45.1638 34.6716C44.6087 34.5329 44.0536 34.3941 43.4786 34.2553C43.657 34.0174 43.7958 33.7993 43.9941 33.5812Z" fill="#F7F7F7" stroke="#F7F7F7" stroke-width="0.09375"/>
<path d="M23.1365 33.7596C23.8701 34.1561 24.6036 34.5328 25.357 34.9095C25.1984 35.1276 25.0596 35.3655 24.9209 35.6035C24.2666 35.0285 23.7114 34.394 23.1365 33.7596Z" fill="#474747" stroke="#474747" stroke-width="0.09375"/>
<path d="M28.0331 34.5527C28.4495 34.3346 28.8659 34.0768 29.2822 33.8191C29.302 34.057 29.3219 34.3148 29.3615 34.5527C28.6478 34.8501 28.0133 35.3656 27.2599 35.5837C26.8039 35.5638 26.3875 35.3656 25.9712 35.1871C26.6056 34.6122 27.5375 34.969 28.2909 34.8501C28.2314 34.7906 28.0926 34.632 28.0331 34.5527Z" fill="#A4A4A4" stroke="#A4A4A4" stroke-width="0.09375"/>
<path d="M20.9356 36.912C20.4399 36.0793 20.0434 35.2069 19.6865 34.2949C20.6184 35.1276 21.57 35.9603 22.3631 36.9318C21.8873 36.9318 21.4114 36.9318 20.9356 36.912Z" fill="#5B5B5B" stroke="#5B5B5B" stroke-width="0.09375"/>
<path d="M16.2966 35.088C16.8121 35.2466 17.3078 35.3854 17.8034 35.5837C17.9819 35.7225 18.1405 35.8811 18.3189 36.0397L18.1405 36.694C17.6845 36 17.0104 35.5044 16.2966 35.088Z" fill="#B4B4B4" stroke="#B4B4B4" stroke-width="0.09375"/>
<path d="M28.0732 36.0991C29.3421 35.5044 30.6705 34.8104 32.1179 34.9294C31.642 35.3656 31.0869 35.6828 30.5912 36.0793C30.5912 36.2181 30.5912 36.3767 30.611 36.5155C30.6705 36.6146 30.7895 36.8327 30.8291 36.9319C30.3929 36.9517 29.9369 36.9319 29.5008 36.9319C29.0051 36.6741 28.5293 36.3767 28.0732 36.0991Z" fill="#E4E4E4" stroke="#E4E4E4" stroke-width="0.09375"/>
<path d="M13.5403 35.1277C13.7783 35.3061 13.9963 35.4846 14.2343 35.663C13.6791 36.0199 13.1835 36.4759 12.549 36.694C11.8947 36.9121 11.2206 36.7336 10.5862 36.6543C11.0818 36.6147 11.5775 36.5552 12.0732 36.4561C12.4895 36.3768 12.9257 36.2776 13.2628 36.0199C13.3817 35.7225 13.461 35.4251 13.5403 35.1277Z" fill="#717171" stroke="#717171" stroke-width="0.09375"/>
<path d="M34.5757 36.8525C34.5559 35.9802 35.5076 35.7224 36.0826 35.2664C36.261 35.6629 36.4196 36.0595 36.5782 36.456L36.3601 36.4758C37.173 36.7138 38.0255 36.7931 38.8583 36.8129L38.6798 36.8724C37.3118 37.031 35.9438 36.9517 34.5757 36.8525Z" fill="#C6C6C6" stroke="#C6C6C6" stroke-width="0.09375"/>
<path d="M41.1784 36.1388C42.5465 36.1983 43.8947 35.9604 45.2032 35.544C45.2825 35.5837 45.4213 35.663 45.5006 35.6828C46.5316 36.2181 47.8203 36.0397 48.772 36.8129C48.653 36.8129 48.4548 36.8327 48.3358 36.8327C47.3247 36.456 46.2342 36.0595 45.1239 36.119C44.2515 36.2379 43.4387 36.6345 42.5465 36.6543C41.3172 36.7336 40.0483 36.3371 38.8587 36.8129C38.026 36.7931 37.1735 36.7138 36.3606 36.4759L36.5787 36.456C37.689 36.4759 38.7993 36.3172 39.8699 35.9802C40.3061 36.0397 40.7423 36.119 41.1784 36.1388Z" fill="#282828" stroke="#282828" stroke-width="0.09375"/>
<path d="M12.5494 36.6939C13.1838 36.4759 13.6795 36.0198 14.2346 35.663L14.3536 35.7423C14.1752 36.1388 13.9769 36.5353 13.7985 36.912C9.81333 36.912 5.80837 36.9319 1.82324 36.8724C3.19127 36.2776 4.75757 35.7423 6.2049 36.3172C7.59276 37.0508 9.13923 36.3172 10.5866 36.6543C11.221 36.7336 11.8951 36.912 12.5494 36.6939Z" fill="#FBFBFB" stroke="#FBFBFB" stroke-width="0.09375"/>
<path d="M14.353 35.7422C14.69 36.0198 14.9874 36.3172 15.3047 36.6344C14.809 36.793 14.3133 36.912 13.7979 36.912C13.9763 36.5353 14.1746 36.1388 14.353 35.7422Z" fill="#B0B0B0" stroke="#B0B0B0" stroke-width="0.09375"/>
<path d="M42.5463 36.6543C43.4385 36.6345 44.2514 36.238 45.1238 36.119C46.2341 36.0595 47.3245 36.456 48.3357 36.8328C46.8884 37.0112 45.4014 36.8922 43.9342 36.9319C42.1895 36.9121 40.4249 36.9914 38.6802 36.8724L38.8586 36.8129C40.0482 36.3371 41.3171 36.7336 42.5463 36.6543Z" fill="#F9F9F9" stroke="#F9F9F9" stroke-width="0.09375"/>
</svg>
