<svg width="37" height="39" viewBox="0 0 37 39" fill="none" xmlns="http://www.w3.org/2000/svg">
<path d="M34.7685 3.08688C38.0878 7.96315 35.7165 17.3514 28.9598 24.91C25.7592 28.3243 22.2025 30.8839 18.7651 32.3471C18.7651 33.5655 19.002 34.6632 19.1207 35.3945C22.0838 33.6877 25.0482 31.2495 27.7744 28.2022C35.8345 19.1796 38.7989 8.32947 34.7685 3.08688Z" fill="#9EA0A2"/>
<path d="M34.0574 2.35559L34.7691 3.0869C34.5149 2.70369 34.1932 2.37282 33.8206 2.11138C30.7381 -0.936622 25.2849 -0.570968 19.9504 2.47703C25.5224 -0.326756 30.9749 -0.69241 34.0574 2.35559Z" fill="black"/>
<path d="M7.14739 31.6152C2.52401 27.2267 4.77666 16.9857 12.1263 8.81727C14.6158 6.13492 17.2233 4.06244 19.9502 2.47772C16.3941 4.30599 12.7187 7.11044 9.51812 10.7676C0.983099 20.1559 -1.86255 31.7367 3.11702 36.6143C5.01347 38.3211 7.50293 38.9303 10.4667 38.5646C11.7708 36.9792 12.7193 35.2724 13.5491 33.687C11.0597 33.8091 8.80703 33.1999 7.14739 31.6152Z" fill="#D2562E"/>
<path d="M19.9509 2.47773C25.5228 -0.326726 30.9754 -0.69238 34.0579 2.35562L34.7696 3.08693C38.0889 7.96319 35.7175 17.3514 28.9608 24.91C25.7603 28.3243 22.2036 30.8839 18.7662 32.3472C18.7662 30.2747 19.2405 27.5917 20.4258 24.3008C20.4258 24.3008 21.1369 22.7154 23.1521 15.6446C23.1521 15.6446 24.9298 11.9867 19.8328 13.2064C19.8328 13.2064 16.6323 13.45 11.1791 19.0582C11.1791 19.0582 8.57088 22.7161 13.313 20.5215C13.313 20.5215 15.9212 18.3263 15.9212 21.6178C15.9212 21.6178 16.5135 27.1046 13.5504 33.6877C11.061 33.8098 8.80834 33.2006 7.14934 31.6152C2.52596 27.2267 4.77861 16.9858 12.1283 8.81727C14.6164 6.13493 17.2246 4.06245 19.9509 2.47773ZM22.2036 4.67231C20.5439 6.50124 20.1884 8.69517 21.1363 9.67068C22.2036 10.5241 24.2187 9.9149 25.8784 8.20741C27.4193 6.37914 27.8936 4.18455 26.8269 3.20903C25.7603 2.23351 23.7445 2.96482 22.2036 4.67231Z" fill="#BA2A2F"/>
</svg>
