<svg width="41" height="40" viewBox="0 0 41 40" fill="none" xmlns="http://www.w3.org/2000/svg">
<g clip-path="url(#clip0)">
<path d="M16.5 39C24.7843 39 31.5 32.2843 31.5 24C31.5 15.7157 24.7843 9 16.5 9C8.21573 9 1.5 15.7157 1.5 24C1.5 32.2843 8.21573 39 16.5 39Z" fill="white" stroke="#007AFF" stroke-width="1.5" stroke-miterlimit="10" stroke-linecap="square"/>
<path d="M16.5 32C20.9183 32 24.5 28.4183 24.5 24C24.5 19.5817 20.9183 16 16.5 16C12.0817 16 8.5 19.5817 8.5 24C8.5 28.4183 12.0817 32 16.5 32Z" fill="#CBE3F6" stroke="#007AFF" stroke-width="1.5" stroke-miterlimit="10" stroke-linecap="square"/>
<path d="M16.5 25C17.0523 25 17.5 24.5523 17.5 24C17.5 23.4477 17.0523 23 16.5 23C15.9477 23 15.5 23.4477 15.5 24C15.5 24.5523 15.9477 25 16.5 25Z" fill="white" stroke="#007AFF" stroke-width="1.5" stroke-miterlimit="10" stroke-linecap="square"/>
<path d="M16.75 23.75L36.75 3.75" stroke="#007AFF" stroke-width="1.5" stroke-miterlimit="10"/>
<path d="M31.75 8.75L30.5 2.5L25.5 7.5L26.75 13.75L33 15L38 10L31.75 8.75Z" fill="#CBE3F6" stroke="#007AFF" stroke-width="1.5" stroke-miterlimit="10" stroke-linecap="square"/>
</g>
<defs>
<clipPath id="clip0">
<rect width="40" height="40" fill="white" transform="translate(0.5)"/>
</clipPath>
</defs>
</svg>
