<svg width="32" height="31" viewBox="0 0 32 31" fill="none" xmlns="http://www.w3.org/2000/svg">
<path d="M28 4H4C2.34315 4 1 5.34315 1 7V27C1 28.6569 2.34315 30 4 30H28C29.6569 30 31 28.6569 31 27V7C31 5.34315 29.6569 4 28 4Z" fill="#E6E6E6" stroke="#181818" stroke-width="1.5" stroke-miterlimit="10" stroke-linecap="square"/>
<path d="M28 4H4C2.34315 4 1 5.34315 1 7V12H31V7C31 5.34315 29.6569 4 28 4Z" fill="white" stroke="#181818" stroke-width="1.5" stroke-miterlimit="10" stroke-linecap="square"/>
<path d="M11 21L14 24L21 17" stroke="#181818" stroke-width="1.5" stroke-miterlimit="10" stroke-linecap="round" stroke-linejoin="round"/>
<path d="M31 12H1" stroke="#181818" stroke-width="1.5" stroke-miterlimit="10"/>
<path d="M8 1V4" stroke="#181818" stroke-width="1.5" stroke-miterlimit="10" stroke-linecap="round"/>
<path d="M24 1V4" stroke="#181818" stroke-width="1.5" stroke-miterlimit="10" stroke-linecap="round"/>
</svg>
