<svg width="14" height="14" viewBox="0 0 14 14" fill="none" xmlns="http://www.w3.org/2000/svg">
<path fill-rule="evenodd" clip-rule="evenodd" d="M1.05468 1.06801C1.24982 0.872726 1.51446 0.763023 1.7904 0.763023C2.06633 0.763023 2.33097 0.872726 2.52611 1.06801L6.99349 5.53988L11.4609 1.06801C11.5569 0.968519 11.6717 0.889162 11.7987 0.83457C11.9256 0.779977 12.0622 0.751241 12.2003 0.750039C12.3385 0.748837 12.4755 0.775193 12.6034 0.827569C12.7313 0.879945 12.8475 0.957292 12.9452 1.0551C13.0429 1.1529 13.1202 1.26921 13.1725 1.39722C13.2248 1.52524 13.2512 1.66241 13.25 1.80072C13.2488 1.93903 13.2201 2.07572 13.1655 2.2028C13.111 2.32989 13.0317 2.44483 12.9323 2.54092L8.46493 7.0128L12.9323 11.4847C13.1219 11.6811 13.2268 11.9443 13.2244 12.2174C13.222 12.4905 13.1126 12.7518 12.9196 12.9449C12.7267 13.138 12.4657 13.2476 12.1928 13.25C11.92 13.2523 11.6571 13.1473 11.4609 12.9576L6.99349 8.48572L2.52611 12.9576C2.32985 13.1473 2.06699 13.2523 1.79414 13.25C1.52129 13.2476 1.26029 13.138 1.06736 12.9449C0.874416 12.7518 0.764975 12.4905 0.762604 12.2174C0.760233 11.9443 0.865122 11.6811 1.05468 11.4847L5.52206 7.0128L1.05468 2.54092C0.859593 2.34558 0.75 2.08068 0.75 1.80447C0.75 1.52825 0.859593 1.26335 1.05468 1.06801Z" fill="white"/>
</svg>
