<svg width="48" height="48" viewBox="0 0 48 48" fill="none" xmlns="http://www.w3.org/2000/svg">
<path d="M21.2533 42.0002C30.2297 42.0002 37.5065 34.7234 37.5065 25.7469C37.5065 16.7705 30.2297 9.49365 21.2533 9.49365C12.2768 9.49365 5 16.7705 5 25.7469C5 34.7234 12.2768 42.0002 21.2533 42.0002Z" fill="#FFE1A8" stroke="#B77A0A" stroke-width="1.5"/>
<path d="M32.189 7.87744H37.9447" stroke="#B77A0A" stroke-width="1.5" stroke-linecap="round"/>
<path d="M35.0667 5V10.7557" stroke="#B77A0A" stroke-width="1.5" stroke-linecap="round"/>
<path d="M39.9487 15.4277H43.1878" stroke="#B77A0A" stroke-width="1.5" stroke-linecap="round"/>
<path d="M41.5684 13.8081V17.0472" stroke="#B77A0A" stroke-width="1.5" stroke-linecap="round"/>
<path d="M23.7169 35.1278L16.4707 26.5911C18.4672 26.5911 17.5895 26.5911 17.9972 26.5911C21.1561 26.5911 23.7169 24.9268 23.7169 22.3656C23.7169 19.8044 21.1561 18.1401 17.9972 18.1401C17.3431 18.1401 18.2208 18.1401 16.4707 18.1401" stroke="#B77A0A" stroke-width="1.5" stroke-linecap="round" stroke-linejoin="round"/>
<path d="M16.4629 22.3726H26.271" stroke="#B77A0A" stroke-width="1.5" stroke-linecap="round"/>
<path d="M16.4651 18.1318H26.2732" stroke="#B77A0A" stroke-width="1.5" stroke-linecap="round"/>
</svg>
