<svg width="9" height="6" viewBox="0 0 9 6" fill="none" xmlns="http://www.w3.org/2000/svg">
<path fill-rule="evenodd" clip-rule="evenodd" d="M0.234473 0.834319C0.384496 0.684342 0.587942 0.600089 0.800073 0.600089C1.0122 0.600089 1.21565 0.684342 1.36567 0.834319L4.00007 3.46872L6.63447 0.834319C6.70827 0.75791 6.79655 0.696965 6.89415 0.655037C6.99175 0.61311 7.09673 0.591041 7.20295 0.590118C7.30918 0.589195 7.41452 0.609436 7.51284 0.649661C7.61115 0.689886 7.70047 0.749288 7.77559 0.824402C7.8507 0.899516 7.91011 0.988838 7.95033 1.08716C7.99056 1.18547 8.0108 1.29082 8.00987 1.39704C8.00895 1.50326 7.98688 1.60824 7.94495 1.70584C7.90303 1.80345 7.84208 1.89172 7.76567 1.96552L4.56567 5.16552C4.41565 5.3155 4.2122 5.39975 4.00007 5.39975C3.78794 5.39975 3.5845 5.3155 3.43447 5.16552L0.234473 1.96552C0.0844966 1.8155 0.000244141 1.61205 0.000244141 1.39992C0.000244141 1.18779 0.0844966 0.984341 0.234473 0.834319Z" fill="#737373"/>
</svg>
