<svg width="29" height="40" viewBox="0 0 29 40" fill="none" xmlns="http://www.w3.org/2000/svg">
<path fill-rule="evenodd" clip-rule="evenodd" d="M14.6913 1.4039C12.6805 1.4039 10.5452 2.09008 9.09433 4.0883C8.19324 5.32932 7.55195 7.1467 7.21035 9.55934C5.59608 10.1177 4.54751 11.1212 4.02075 12.525C3.50374 13.9029 3.45532 15.3986 3.90013 17.0136C3.08189 18.3736 2.62691 19.5536 2.50447 20.5446C2.31047 22.1147 2.59418 24.1173 2.98997 25.4578C3.63694 27.649 4.74919 29.6429 6.21809 31.0438C7.6025 32.3641 9.30013 33.1656 11.2325 33.1656H17.8366C20.504 33.1656 22.7951 30.8841 24.2128 29.2074C25.7823 27.3511 26.6597 25.1719 26.6597 20.9594C26.6597 18.7379 25.9101 17.0062 24.4451 15.7456C24.7928 12.2157 24.2992 9.76828 23.1272 8.32996C22.2197 7.21634 21.2546 6.47211 20.247 6.07067C20.0273 4.25538 19.2362 2.98359 17.9456 2.20543C16.9339 1.59541 15.9331 1.4039 14.6913 1.4039Z" fill="#ACE0A2" stroke="#54894A" stroke-width="1.5"/>
<path d="M14.5051 38.4494V17.881" stroke="#54894A" stroke-width="1.5" stroke-linecap="round"/>
<path d="M1.01855 38.5961C5.49897 38.5961 10.125 38.5961 14.8966 38.5961C19.6683 38.5961 24.0361 38.5961 28.0001 38.5961" stroke="#54894A" stroke-width="1.5" stroke-linecap="round"/>
<path d="M17.8366 19.3541L14.5051 23.4512" stroke="#54894A" stroke-width="1.5" stroke-linecap="round"/>
<path d="M10.7052 22.312L14.5101 25.6052V30.3321L19.1621 24.6339" stroke="#54894A" stroke-width="1.5" stroke-linecap="round"/>
</svg>
