<svg width="12" height="12" viewBox="0 0 12 12" fill="none" xmlns="http://www.w3.org/2000/svg">
<path d="M6.53106 0.219593C6.3902 0.0789875 6.19918 0 6 0C5.80082 0 5.6098 0.0789875 5.46893 0.219593L0.210858 5.46966C0.074029 5.61112 -0.00168305 5.80057 2.83956e-05 5.99722C0.00173984 6.19387 0.0807379 6.38198 0.220008 6.52104C0.359278 6.6601 0.547676 6.73898 0.744627 6.74069C0.941577 6.74239 1.13132 6.6668 1.27299 6.53018L1.49308 6.31042V11.25C1.49308 11.4489 1.57222 11.6397 1.71309 11.7803C1.85395 11.921 2.04501 12 2.24423 12H3.74654C3.94576 12 4.13682 11.921 4.27768 11.7803C4.41855 11.6397 4.49769 11.4489 4.49769 11.25V9.74997C4.49769 9.55105 4.57683 9.36029 4.7177 9.21963C4.85857 9.07898 5.04963 8.99996 5.24885 8.99996H6.75115C6.95037 8.99996 7.14143 9.07898 7.2823 9.21963C7.42317 9.36029 7.50231 9.55105 7.50231 9.74997V11.25C7.50231 11.4489 7.58145 11.6397 7.72231 11.7803C7.86318 11.921 8.05424 12 8.25346 12H9.75577C9.95499 12 10.146 11.921 10.2869 11.7803C10.4278 11.6397 10.5069 11.4489 10.5069 11.25V6.31042L10.727 6.53018C10.8687 6.6668 11.0584 6.74239 11.2554 6.74069C11.4523 6.73898 11.6407 6.6601 11.78 6.52104C11.9193 6.38198 11.9983 6.19387 12 5.99722C12.0017 5.80057 11.926 5.61112 11.7891 5.46966L6.53106 0.219593Z" fill="#737373"/>
</svg>
