<svg width="40" height="37" viewBox="0 0 40 37" fill="none" xmlns="http://www.w3.org/2000/svg">
<path d="M38.75 5C38.75 2.79086 36.9591 1 34.75 1H5.25C3.04086 1 1.25 2.79086 1.25 5V25.75C1.25 27.9591 3.04086 29.75 5.25 29.75H11.5381C12.3155 29.75 13.0626 30.0518 13.6219 30.5918L18.6108 35.4087C19.3858 36.157 20.6142 36.157 21.3892 35.4087L26.3781 30.5918C26.9374 30.0518 27.6845 29.75 28.4619 29.75H34.75C36.9591 29.75 38.75 27.9591 38.75 25.75V5Z" fill="white" stroke="#F58024" stroke-width="1.5" stroke-miterlimit="10"/>
<path d="M13.1033 21.3478L12.9023 21.4818C12.6488 21.6508 12.4888 21.9285 12.4698 22.2325C12.175 26.9499 14.1774 31.5191 17.8458 34.4997L19.6002 35.9252C19.8331 36.1144 20.1669 36.1144 20.3998 35.9252L22.1542 34.4997C25.8226 31.5191 27.825 26.9499 27.5302 22.2325C27.5112 21.9285 27.3512 21.6508 27.0977 21.4818L26.8967 21.3478C22.7204 18.5636 17.2796 18.5636 13.1033 21.3478Z" fill="#FBD38D" stroke="#F58024" stroke-width="1.5" stroke-miterlimit="10"/>
<path d="M20 15.75C22.0711 15.75 23.75 14.0711 23.75 12C23.75 9.92893 22.0711 8.25 20 8.25C17.9289 8.25 16.25 9.92893 16.25 12C16.25 14.0711 17.9289 15.75 20 15.75Z" fill="#FBD38D" stroke="#F58024" stroke-width="1.5" stroke-miterlimit="10"/>
</svg>
