<svg width="30" height="30" viewBox="0 0 30 30" fill="none" xmlns="http://www.w3.org/2000/svg">
<path d="M28 0H2C1.46957 0 0.960859 0.210714 0.585786 0.585786C0.210714 0.960859 0 1.46957 0 2V28C0 28.5304 0.210714 29.0391 0.585786 29.4142C0.960859 29.7893 1.46957 30 2 30H28C28.5304 30 29.0391 29.7893 29.4142 29.4142C29.7893 29.0391 30 28.5304 30 28V2C30 1.46957 29.7893 0.960859 29.4142 0.585786C29.0391 0.210714 28.5304 0 28 0ZM8.887 25.594H4.374V11.25H8.887V25.594ZM6.63 9.281C6.11117 9.27942 5.60444 9.12412 5.17381 8.83472C4.74319 8.54533 4.40798 8.13481 4.21053 7.65501C4.01307 7.17522 3.96223 6.64767 4.06442 6.139C4.16661 5.63033 4.41724 5.16335 4.78467 4.79703C5.1521 4.43072 5.61984 4.18151 6.12882 4.08087C6.6378 3.98023 7.16519 4.03268 7.64438 4.23159C8.12357 4.4305 8.53307 4.76696 8.82116 5.19846C9.10924 5.62997 9.263 6.13717 9.263 6.656C9.26313 7.00143 9.19506 7.34349 9.06269 7.66255C8.93032 7.98161 8.73625 8.2714 8.49162 8.51528C8.24699 8.75917 7.95662 8.95235 7.63716 9.08375C7.31769 9.21515 6.97543 9.28218 6.63 9.281ZM25.621 25.594H21.2V18.656C21.2 16.969 21.2 14.906 18.85 14.906C16.5 14.906 16.217 16.688 16.217 18.562V25.688H11.8V11.25H15.936V13.219H16.03C16.4566 12.4815 17.0756 11.8738 17.8208 11.4609C18.5661 11.0481 19.4095 10.8455 20.261 10.875C24.774 10.875 25.62 13.875 25.62 17.719L25.621 25.594Z" fill="white"/>
</svg>
