<svg width="81" height="22" viewBox="0 0 81 22" fill="none" xmlns="http://www.w3.org/2000/svg">
<g clip-path="url(#clip0)">
<path fill-rule="evenodd" clip-rule="evenodd" d="M18.2186 12.7867L18.125 17.9871H21.2834V12.7867C21.2834 11.5982 22.2412 10.6314 23.4199 10.6314H24.9053V7.5861L23.4199 7.53955C20.5468 7.53955 18.2186 9.88833 18.2186 12.7867Z" fill="#F58024"/>
<path fill-rule="evenodd" clip-rule="evenodd" d="M56.9836 7.53955C54.1108 7.53955 51.7815 9.88832 51.7815 12.7867C51.7815 15.6849 54.1108 18.0339 56.9836 18.0339C59.8556 18.0339 62.1844 15.6849 62.1844 12.7867C62.1844 9.88832 59.8556 7.53955 56.9836 7.53955ZM58.8407 12.7867C58.8407 13.8199 58.0072 14.6605 56.9836 14.6605C55.9587 14.6605 55.1257 13.8199 55.1257 12.7867C55.1257 11.7533 55.9587 10.9125 56.9836 10.9125C58.0072 10.9125 58.8407 11.7533 58.8407 12.7867Z" fill="#F58024"/>
<path fill-rule="evenodd" clip-rule="evenodd" d="M34.9975 15.1138C33.8283 15.1138 32.8773 14.1545 32.8773 12.9749C32.8773 11.7954 33.8283 10.8358 34.9975 10.8358C36.1665 10.8358 37.1177 11.7954 37.1177 12.9749C37.1177 14.1545 36.1665 15.1138 34.9975 15.1138ZM29.8395 12.824L29.8354 22.0452H32.7101V17.6432C33.3997 17.9878 34.176 18.1823 34.9975 18.1823C37.8482 18.1823 40.1591 15.8505 40.1591 12.9749C40.1591 10.0991 37.8482 7.76709 34.9975 7.76709C32.1968 7.76709 29.9186 10.0181 29.8395 12.824Z" fill="#F58024"/>
<path fill-rule="evenodd" clip-rule="evenodd" d="M45.8203 15.1169C44.6513 15.1169 43.6998 14.157 43.6998 12.9775C43.6998 11.7982 44.6513 10.8386 45.8203 10.8386C46.989 10.8386 47.9402 11.7982 47.9402 12.9775C47.9402 14.157 46.989 15.1169 45.8203 15.1169ZM43.5326 8.30925V3.90723H40.658V13.1287C40.7416 15.9343 43.0193 18.1853 45.8203 18.1853C48.6707 18.1853 50.9821 15.8533 50.9821 12.9775C50.9821 10.1022 48.6707 7.77015 45.8203 7.77015C44.9986 7.77015 44.2222 7.96486 43.5326 8.30925Z" fill="#F58024"/>
<path fill-rule="evenodd" clip-rule="evenodd" d="M25.7395 7.5746L29.007 7.56714V17.9908H25.7395V7.5746Z" fill="#F58024"/>
<path fill-rule="evenodd" clip-rule="evenodd" d="M73.5068 0.00462965V7.41361H80.731V0H78.0098V0.992545H79.7474V6.42106H74.4907V0.997175H76.2861V0.00462965H73.5068Z" fill="#F58024"/>
<path fill-rule="evenodd" clip-rule="evenodd" d="M76.3685 5.54182C76.0883 5.44537 75.8285 5.30262 75.5891 5.11409L75.9772 4.52021C76.1826 4.67479 76.3925 4.79207 76.6056 4.87155C76.8182 4.95128 77.023 4.99115 77.2195 4.99115C77.4059 4.99115 77.551 4.95385 77.654 4.87875C77.7567 4.8039 77.8082 4.70385 77.8082 4.57808V4.56368C77.8082 4.49115 77.7853 4.42865 77.7402 4.3754C77.6945 4.32216 77.6323 4.2751 77.5533 4.23394C77.4745 4.19305 77.3832 4.15678 77.2805 4.1254C77.1775 4.09403 77.0709 4.06136 76.9608 4.02741C76.8218 3.98883 76.6818 3.94305 76.5409 3.88981C76.3994 3.83682 76.2726 3.76789 76.16 3.68353C76.0475 3.59891 75.9555 3.49397 75.8833 3.3682C75.8117 3.24268 75.776 3.08811 75.776 2.90446V2.89006C75.776 2.70642 75.8104 2.54335 75.88 2.40112C75.9491 2.25863 76.045 2.13646 76.1673 2.03512C76.2892 1.93378 76.4333 1.85636 76.598 1.80312C76.7634 1.75014 76.9393 1.72339 77.126 1.72339C77.3654 1.72339 77.6071 1.76223 77.8513 1.83939C78.0956 1.91681 78.3181 2.02303 78.5193 2.15832L78.1746 2.78126C77.9926 2.67041 77.8082 2.58219 77.6216 2.51686C77.4347 2.45179 77.2624 2.41912 77.1046 2.41912C76.9368 2.41912 76.8065 2.45539 76.7129 2.52766C76.6196 2.60019 76.573 2.69201 76.573 2.80313V2.81753C76.573 2.88543 76.5967 2.94433 76.6449 2.995C76.6926 3.04592 76.756 3.09171 76.8351 3.1326C76.9141 3.17375 77.0051 3.21131 77.1079 3.245C77.2111 3.27869 77.3174 3.31496 77.4276 3.35354C77.5665 3.39726 77.7052 3.44793 77.8442 3.5058C77.9831 3.56393 78.1088 3.63518 78.2213 3.71954C78.3337 3.80416 78.4257 3.90678 78.4976 4.02741C78.5695 4.14829 78.6052 4.29567 78.6052 4.46954V4.48394C78.6052 4.68662 78.5695 4.86306 78.4976 5.01275C78.4257 5.1627 78.3266 5.28693 78.1996 5.38595C78.0729 5.48498 77.9232 5.55982 77.7509 5.61049C77.5785 5.66142 77.3939 5.68662 77.1979 5.68662C76.9248 5.68662 76.6484 5.63827 76.3685 5.54182Z" fill="#F58024"/>
<path fill-rule="evenodd" clip-rule="evenodd" d="M13.8525 14.9421C12.6741 14.9421 11.716 13.9753 11.716 12.7867C11.716 11.5982 12.6741 10.6314 13.8525 10.6314C14.5143 10.6314 15.099 10.9434 15.4916 11.4215L17.8629 9.44542C16.9084 8.28107 15.4666 7.53955 13.8525 7.53955C10.9792 7.53955 8.65015 9.88832 8.65015 12.7867C8.65015 15.6849 10.9792 18.0339 13.8525 18.0339C15.4564 18.0339 16.8895 17.3009 17.8438 16.1494L15.4839 14.161C15.0916 14.6345 14.51 14.9421 13.8525 14.9421Z" fill="#F58024"/>
<path fill-rule="evenodd" clip-rule="evenodd" d="M8.21132 16.0233C7.98262 16.4646 7.67413 16.8396 7.28736 17.1472C6.89983 17.4549 6.44933 17.6887 5.93508 17.8486C5.42033 18.0086 4.8709 18.0886 4.28629 18.0886C3.48625 18.0886 2.72113 17.9924 1.99119 17.8005C1.26024 17.6084 0.597103 17.3265 0 16.9546L1.25794 14.5523C1.43514 14.6807 1.64471 14.7992 1.88615 14.908C2.12734 15.0171 2.37847 15.113 2.63929 15.1964C2.89934 15.2797 3.15939 15.3437 3.4197 15.3885C3.68001 15.4335 3.91839 15.4556 4.1346 15.4556C4.8579 15.4556 5.22019 15.2319 5.22019 14.7833C5.22019 14.5657 5.10929 14.3985 4.88671 14.2833C4.66439 14.1681 4.38828 14.0593 4.05862 13.9566C3.72769 13.8543 3.36871 13.7419 2.98169 13.6202C2.59442 13.4983 2.23519 13.3288 1.90527 13.1107C1.57511 12.8929 1.29823 12.6079 1.07616 12.2555C0.853587 11.9031 0.742682 11.4453 0.742682 10.881C0.742682 10.3815 0.847723 9.93014 1.05755 9.52659C1.26687 9.12253 1.55318 8.77659 1.91445 8.48852C2.27598 8.2002 2.71195 7.97592 3.21931 7.81594C3.72769 7.65544 4.27406 7.5752 4.8579 7.5752C5.55673 7.5752 6.16021 7.63667 6.66859 7.75781C7.1762 7.87998 7.68458 8.05591 8.19219 8.28688L7.04949 10.6315C6.75706 10.4777 6.44601 10.3496 6.11585 10.2473C5.78492 10.1446 5.47438 10.093 5.18195 10.093C4.82629 10.093 4.5466 10.1603 4.34391 10.2949C4.14071 10.4299 4.03924 10.6058 4.03924 10.8237C4.03924 11.0037 4.1504 11.1477 4.37221 11.2563C4.59453 11.3651 4.87447 11.4677 5.21076 11.5636C5.54704 11.6598 5.90908 11.7653 6.29686 11.8805C6.68414 11.9963 7.04617 12.1596 7.38271 12.371C7.719 12.5827 7.99843 12.8579 8.22126 13.1976C8.44307 13.5372 8.55398 13.9759 8.55398 14.514C8.55398 15.0778 8.44001 15.5804 8.21132 16.0233Z" fill="#F58024"/>
<path fill-rule="evenodd" clip-rule="evenodd" d="M29.1034 4.23556C29.1034 5.26875 28.2702 6.10954 27.2463 6.10954C26.2211 6.10954 25.3884 5.26875 25.3884 4.23556C25.3884 3.20212 26.2211 2.36133 27.2463 2.36133C28.2702 2.36133 29.1034 3.20212 29.1034 4.23556Z" fill="#F58024"/>
<path fill-rule="evenodd" clip-rule="evenodd" d="M66.8284 10.3021L64.8165 7.53027H61.1816L65.0315 12.7782L61.2566 17.9796H64.8094L66.8284 15.2276L68.8474 17.9796H72.4002L68.6253 12.7782L72.4749 7.53027H68.8402L66.8284 10.3021Z" fill="#F58024"/>
</g>
<defs>
<clipPath id="clip0">
<rect width="81" height="22" fill="white"/>
</clipPath>
</defs>
</svg>
