<svg width="107" height="29" viewBox="0 0 107 29" fill="none" xmlns="http://www.w3.org/2000/svg">
<g clip-path="url(#clip0)">
<path fill-rule="evenodd" clip-rule="evenodd" d="M24.0665 16.8554L23.9429 23.7105H28.115V16.8554C28.115 15.2887 29.3804 14.0143 30.9374 14.0143H32.8995V10L30.9374 9.93866C27.1421 9.93866 24.0665 13.0348 24.0665 16.8554Z" fill="white"/>
<path fill-rule="evenodd" clip-rule="evenodd" d="M75.2747 9.93866C71.4798 9.93866 68.4028 13.0348 68.4028 16.8554C68.4028 20.6757 71.4798 23.7722 75.2747 23.7722C79.0687 23.7722 82.1449 20.6757 82.1449 16.8554C82.1449 13.0348 79.0687 9.93866 75.2747 9.93866ZM77.7279 16.8554C77.7279 18.2173 76.6269 19.3253 75.2747 19.3253C73.9208 19.3253 72.8205 18.2173 72.8205 16.8554C72.8205 15.4931 73.9208 14.3848 75.2747 14.3848C76.6269 14.3848 77.7279 15.4931 77.7279 16.8554Z" fill="white"/>
<path fill-rule="evenodd" clip-rule="evenodd" d="M46.2314 19.9226C44.6868 19.9226 43.4306 18.658 43.4306 17.1032C43.4306 15.5483 44.6868 14.2834 46.2314 14.2834C47.7756 14.2834 49.0321 15.5483 49.0321 17.1032C49.0321 18.658 47.7756 19.9226 46.2314 19.9226ZM39.4177 16.9041L39.4124 29.0594H43.2097V23.2567C44.1207 23.711 45.1462 23.9674 46.2314 23.9674C49.997 23.9674 53.0497 20.8936 53.0497 17.1032C53.0497 13.3124 49.997 10.2383 46.2314 10.2383C42.5317 10.2383 39.5221 13.2056 39.4177 16.9041Z" fill="white"/>
<path fill-rule="evenodd" clip-rule="evenodd" d="M60.5281 19.9267C58.9839 19.9267 57.727 18.6614 57.727 17.1066C57.727 15.5521 58.9839 14.2871 60.5281 14.2871C62.072 14.2871 63.3285 15.5521 63.3285 17.1066C63.3285 18.6614 62.072 19.9267 60.5281 19.9267ZM57.5061 10.953V5.15033H53.7087V17.3059C53.8192 21.0042 56.8281 23.9715 60.5281 23.9715C64.2934 23.9715 67.3468 20.8974 67.3468 17.1066C67.3468 13.3164 64.2934 10.2424 60.5281 10.2424C59.4426 10.2424 58.4171 10.499 57.5061 10.953Z" fill="white"/>
<path fill-rule="evenodd" clip-rule="evenodd" d="M34.0015 9.98475L38.3178 9.97491V23.7152H34.0015V9.98475Z" fill="white"/>
<path fill-rule="evenodd" clip-rule="evenodd" d="M97.1018 0.00610272V9.77249H106.645V0H103.05V1.30835H105.345V8.46413H98.4015V1.31446H100.773V0.00610272H97.1018Z" fill="white"/>
<path fill-rule="evenodd" clip-rule="evenodd" d="M100.882 7.30499C100.512 7.17785 100.169 6.98968 99.8523 6.74117L100.365 5.95832C100.636 6.16209 100.914 6.31669 101.195 6.42145C101.476 6.52656 101.746 6.57911 102.006 6.57911C102.252 6.57911 102.444 6.52995 102.58 6.43095C102.716 6.33229 102.784 6.2004 102.784 6.03461V6.01562C102.784 5.92001 102.753 5.83763 102.694 5.76745C102.634 5.69726 102.551 5.63522 102.447 5.58097C102.343 5.52707 102.222 5.47926 102.087 5.4379C101.951 5.39654 101.81 5.35348 101.664 5.30872C101.481 5.25787 101.296 5.19752 101.11 5.12734C100.923 5.0575 100.755 4.96663 100.606 4.85543C100.458 4.74388 100.336 4.60556 100.241 4.43977C100.146 4.27431 100.099 4.07055 100.099 3.82848V3.80949C100.099 3.56742 100.145 3.35247 100.237 3.16498C100.328 2.97715 100.454 2.8161 100.616 2.68252C100.777 2.54894 100.967 2.44689 101.185 2.37671C101.404 2.30687 101.636 2.27161 101.882 2.27161C102.199 2.27161 102.518 2.3228 102.841 2.42451C103.163 2.52656 103.457 2.66659 103.723 2.84492L103.268 3.66608C103.027 3.51995 102.784 3.40366 102.537 3.31754C102.29 3.23177 102.063 3.18871 101.854 3.18871C101.633 3.18871 101.46 3.23651 101.337 3.33178C101.214 3.42739 101.152 3.54843 101.152 3.6949V3.71388C101.152 3.80339 101.183 3.88103 101.247 3.94782C101.31 4.01495 101.394 4.0753 101.498 4.12921C101.603 4.18345 101.723 4.23295 101.859 4.27737C101.995 4.32178 102.135 4.36958 102.281 4.42044C102.464 4.47808 102.648 4.54487 102.831 4.62115C103.015 4.69778 103.181 4.79169 103.329 4.90289C103.478 5.01444 103.599 5.14972 103.694 5.30872C103.789 5.46807 103.837 5.66234 103.837 5.89153V5.91052C103.837 6.17768 103.789 6.41026 103.694 6.60759C103.599 6.80525 103.468 6.969 103.301 7.09953C103.133 7.23006 102.936 7.32872 102.708 7.39551C102.48 7.46264 102.236 7.49587 101.977 7.49587C101.617 7.49587 101.252 7.43213 100.882 7.30499Z" fill="white"/>
<path fill-rule="evenodd" clip-rule="evenodd" d="M18.2987 19.6966C16.7421 19.6966 15.4764 18.4221 15.4764 16.8554C15.4764 15.2887 16.7421 14.0143 18.2987 14.0143C19.1731 14.0143 19.9453 14.4255 20.464 15.0558L23.5965 12.4509C22.3355 10.9161 20.431 9.93866 18.2987 9.93866C14.5031 9.93866 11.4265 13.0348 11.4265 16.8554C11.4265 20.6757 14.5031 23.7722 18.2987 23.7722C20.4175 23.7722 22.3106 22.8059 23.5712 21.288L20.4539 18.6669C19.9355 19.2911 19.1673 19.6966 18.2987 19.6966Z" fill="white"/>
<path fill-rule="evenodd" clip-rule="evenodd" d="M10.847 21.1215C10.5449 21.7033 10.1374 22.1976 9.62652 22.6031C9.11459 23.0086 8.51948 23.3168 7.84017 23.5277C7.16019 23.7386 6.4344 23.844 5.66214 23.844C4.60529 23.844 3.59458 23.7172 2.63034 23.4643C1.66476 23.211 0.788766 22.8394 0 22.3492L1.66173 19.1825C1.8958 19.3517 2.17264 19.508 2.49158 19.6514C2.81019 19.7952 3.14193 19.9217 3.48647 20.0315C3.82999 20.1414 4.17352 20.2258 4.51739 20.2848C4.86125 20.3441 5.17615 20.3733 5.46175 20.3733C6.41723 20.3733 6.89581 20.0783 6.89581 19.487C6.89581 19.2002 6.7493 18.9798 6.45529 18.8279C6.1616 18.676 5.79686 18.5326 5.36139 18.3973C4.92423 18.2624 4.45003 18.1142 3.93878 17.9539C3.42719 17.7932 2.95265 17.5697 2.51684 17.2822C2.0807 16.9951 1.71494 16.6194 1.4216 16.1549C1.12758 15.6904 0.981074 15.0869 0.981074 14.3431C0.981074 13.6847 1.11983 13.0897 1.39701 12.5577C1.67352 12.0251 2.05173 11.5691 2.52897 11.1893C3.00654 10.8093 3.58245 10.5136 4.25267 10.3028C4.92423 10.0912 5.64598 9.98541 6.41723 9.98541C7.34037 9.98541 8.13756 10.0664 8.80912 10.2261C9.47967 10.3872 10.1512 10.6191 10.8218 10.9235L9.31229 14.0142C8.92599 13.8115 8.5151 13.6426 8.07896 13.5077C7.6418 13.3724 7.23159 13.3043 6.84529 13.3043C6.37546 13.3043 6.006 13.3931 5.73826 13.5704C5.46983 13.7484 5.33579 13.9803 5.33579 14.2675C5.33579 14.5048 5.48263 14.6947 5.77564 14.8378C6.06932 14.9812 6.43912 15.1164 6.88335 15.2429C7.32757 15.3697 7.80582 15.5087 8.31808 15.6606C8.82967 15.8132 9.30791 16.0285 9.75247 16.3071C10.1967 16.5862 10.5658 16.949 10.8602 17.3968C11.1532 17.8444 11.2997 18.4228 11.2997 19.132C11.2997 19.8752 11.1491 20.5377 10.847 21.1215Z" fill="white"/>
<path fill-rule="evenodd" clip-rule="evenodd" d="M38.445 5.58331C38.445 6.94524 37.3443 8.05356 35.9918 8.05356C34.6376 8.05356 33.5376 6.94524 33.5376 5.58331C33.5376 4.22105 34.6376 3.11273 35.9918 3.11273C37.3443 3.11273 38.445 4.22105 38.445 5.58331Z" fill="white"/>
<path fill-rule="evenodd" clip-rule="evenodd" d="M88.2796 13.5802L85.622 9.92639H80.8203L85.9059 16.8442L80.9193 23.7006H85.6125L88.2796 20.0728L90.9466 23.7006H95.6398L90.6533 16.8442L95.7385 9.92639H90.9372L88.2796 13.5802Z" fill="white"/>
</g>
<defs>
<clipPath id="clip0">
<rect width="107" height="29" fill="white"/>
</clipPath>
</defs>
</svg>
