<svg width="12" height="12" viewBox="0 0 12 12" fill="none" xmlns="http://www.w3.org/2000/svg">
<path fill-rule="evenodd" clip-rule="evenodd" d="M0 0.00749376V12H12V0H7.47994V1.60658H10.3661V10.3934H1.6343V1.61407H4.61663V0.00749376H0Z" fill="#F58024"/>
<path fill-rule="evenodd" clip-rule="evenodd" d="M4.75339 8.96999C4.28796 8.81387 3.85641 8.58281 3.45874 8.27765L4.10331 7.31637C4.44466 7.56658 4.7932 7.75642 5.14725 7.88506C5.50045 8.01412 5.84052 8.07865 6.16704 8.07865C6.47663 8.07865 6.71761 8.01828 6.8887 7.89672C7.05937 7.77557 7.14492 7.61362 7.14492 7.41004V7.38673C7.14492 7.26932 7.10681 7.16816 7.03185 7.08198C6.95604 6.9958 6.8527 6.91961 6.72142 6.853C6.59055 6.78681 6.43894 6.72811 6.26827 6.67732C6.09717 6.62653 5.92014 6.57365 5.73719 6.5187C5.50638 6.45625 5.27388 6.38215 5.03968 6.29597C4.80464 6.21021 4.59415 6.09863 4.40696 5.96208C4.22019 5.82511 4.06731 5.65525 3.94746 5.45167C3.82846 5.24851 3.76916 4.9983 3.76916 4.70105V4.67773C3.76916 4.38048 3.82634 4.11653 3.94196 3.88631C4.05673 3.65567 4.21596 3.45792 4.41925 3.29389C4.62168 3.12986 4.86096 3.00454 5.13455 2.91837C5.4094 2.8326 5.70162 2.78931 6.01162 2.78931C6.40929 2.78931 6.81078 2.85217 7.2165 2.97707C7.62221 3.10238 7.99193 3.27432 8.32608 3.4933L7.7535 4.50163C7.45111 4.3222 7.14492 4.1794 6.83491 4.07365C6.52448 3.96832 6.2382 3.91545 5.97605 3.91545C5.69738 3.91545 5.48097 3.97415 5.32554 4.09114C5.17054 4.20854 5.09304 4.35717 5.09304 4.53702V4.56033C5.09304 4.67024 5.13243 4.76558 5.21247 4.84759C5.29166 4.93002 5.39712 5.00413 5.5284 5.07032C5.65969 5.13693 5.81088 5.19772 5.98155 5.25225C6.15307 5.30679 6.32968 5.36549 6.51263 5.42794C6.74344 5.49872 6.97383 5.58073 7.20464 5.6744C7.43544 5.76849 7.64423 5.88381 7.831 6.02036C8.01776 6.15733 8.17065 6.32344 8.29008 6.5187C8.40951 6.71437 8.4688 6.95292 8.4688 7.23435V7.25767C8.4688 7.58573 8.40951 7.87132 8.29008 8.11362C8.17065 8.35633 8.00591 8.55742 7.795 8.7177C7.58452 8.87798 7.33592 8.99913 7.04963 9.08115C6.76334 9.16358 6.45673 9.20438 6.13105 9.20438C5.67748 9.20438 5.2184 9.12611 4.75339 8.96999Z" fill="#F58024"/>
</svg>
