<svg width="20" height="20" viewBox="0 0 20 20" fill="none" xmlns="http://www.w3.org/2000/svg">
<path fill-rule="evenodd" clip-rule="evenodd" d="M0 3.75C0 3.41848 0.15051 3.10054 0.418419 2.86612C0.686328 2.6317 1.04969 2.5 1.42857 2.5H18.5714C18.9503 2.5 19.3137 2.6317 19.5816 2.86612C19.8495 3.10054 20 3.41848 20 3.75C20 4.08152 19.8495 4.39946 19.5816 4.63388C19.3137 4.8683 18.9503 5 18.5714 5H1.42857C1.04969 5 0.686328 4.8683 0.418419 4.63388C0.15051 4.39946 0 4.08152 0 3.75ZM0 10C0 9.66848 0.15051 9.35054 0.418419 9.11612C0.686328 8.8817 1.04969 8.75 1.42857 8.75H18.5714C18.9503 8.75 19.3137 8.8817 19.5816 9.11612C19.8495 9.35054 20 9.66848 20 10C20 10.3315 19.8495 10.6495 19.5816 10.8839C19.3137 11.1183 18.9503 11.25 18.5714 11.25H1.42857C1.04969 11.25 0.686328 11.1183 0.418419 10.8839C0.15051 10.6495 0 10.3315 0 10ZM0 16.25C0 15.9185 0.15051 15.6005 0.418419 15.3661C0.686328 15.1317 1.04969 15 1.42857 15H18.5714C18.9503 15 19.3137 15.1317 19.5816 15.3661C19.8495 15.6005 20 15.9185 20 16.25C20 16.5815 19.8495 16.8995 19.5816 17.1339C19.3137 17.3683 18.9503 17.5 18.5714 17.5H1.42857C1.04969 17.5 0.686328 17.3683 0.418419 17.1339C0.15051 16.8995 0 16.5815 0 16.25Z" fill="white"/>
</svg>
