<svg width="32" height="32" viewBox="0 0 32 32" fill="none" xmlns="http://www.w3.org/2000/svg">
<path d="M16 31C7.71573 31 1 24.2843 1 16C1 7.71573 7.71573 1 16 1C24.2843 1 31 7.71573 31 16C31 24.2843 24.2843 31 16 31Z" fill="#E6E6E6" stroke="#181818" stroke-width="1.5" stroke-miterlimit="10" stroke-linecap="square"/>
<path d="M20 6.59999C18.8 6.09999 17.4 5.79999 16 5.79999C12.212 5.79999 8.88163 7.9047 7.12294 10.9999" stroke="#181818" stroke-width="1.5" stroke-miterlimit="10" stroke-linecap="round"/>
<path d="M19 13L23 8.5" stroke="#181818" stroke-width="1.5" stroke-miterlimit="10" stroke-linecap="round"/>
<path d="M16 20C13.7909 20 12 18.2091 12 16C12 13.7909 13.7909 12 16 12C18.2091 12 20 13.7909 20 16C20 18.2091 18.2091 20 16 20Z" fill="white" stroke="#181818" stroke-width="1.5" stroke-miterlimit="10" stroke-linecap="square"/>
</svg>
