<svg width="48" height="48" viewBox="0 0 48 48" fill="none" xmlns="http://www.w3.org/2000/svg">
<path fill-rule="evenodd" clip-rule="evenodd" d="M13.5857 31.2497C13.5461 31.25 13.5071 31.2588 13.4713 31.2756C13.4355 31.2924 13.4038 31.3167 13.3783 31.347C13.3529 31.3772 13.3342 31.4126 13.3238 31.4507C13.3133 31.4888 13.3112 31.5288 13.3176 31.5678L14.2808 37.1853C14.3198 37.4132 14.4382 37.6199 14.6149 37.7689C14.7916 37.9179 15.0153 37.9997 15.2464 37.9997H17.6039C17.8373 37.9997 18.0631 37.9164 18.2405 37.7648C18.418 37.6131 18.5355 37.403 18.5718 37.1724L19.4549 31.5643C19.457 31.5503 19.4581 31.5362 19.458 31.5221C19.458 31.4495 19.4292 31.3799 19.3779 31.3287C19.3266 31.2774 19.257 31.2485 19.1845 31.2485L13.5857 31.2497Z" fill="#FFBDBD" stroke="#B26868" stroke-width="1.5"/>
<path fill-rule="evenodd" clip-rule="evenodd" d="M29.1543 31.25C29.1147 31.2503 29.0757 31.2591 29.0399 31.2759C29.0041 31.2927 28.9724 31.317 28.9469 31.3473C28.9215 31.3775 28.9028 31.4129 28.8924 31.451C28.8819 31.4891 28.8798 31.5291 28.8862 31.5681L29.8514 37.186C29.8905 37.4138 30.0088 37.6204 30.1855 37.7694C30.3622 37.9183 30.5859 38 30.817 38H33.0677C33.2987 38 33.5223 37.9184 33.699 37.7697C33.8756 37.6209 33.9941 37.4144 34.0333 37.1868L35.0028 31.5685C35.0093 31.5294 35.0072 31.4894 34.9968 31.4512C34.9863 31.413 34.9676 31.3775 34.9421 31.3472C34.9166 31.3169 34.8848 31.2926 34.8489 31.2758C34.813 31.259 34.7739 31.2502 34.7343 31.25H29.1543Z" fill="#FFBDBD" stroke="#B26868" stroke-width="1.5"/>
<path fill-rule="evenodd" clip-rule="evenodd" d="M11.2131 9.01503L14.2368 9.54216C14.6873 9.62048 15.0986 9.84731 15.4052 10.1865C15.7119 10.5257 15.8962 10.9578 15.9288 11.4139L15.9803 12.1419C18.5854 11.1221 21.3641 10.6196 24.1613 10.6625C32.758 10.6625 39.7299 14.862 39.7299 22.6494C39.7299 30.4369 32.7596 34.625 24.1613 34.625C16.6341 34.625 10.3534 31.5091 8.90759 25.4265L5.73306 24.3293C5.51899 24.2553 5.33332 24.1164 5.20192 23.9319C5.07052 23.7474 4.99993 23.5265 5 23.3V21.052C4.99995 20.8242 5.07133 20.6022 5.2041 20.4171C5.33686 20.2321 5.52433 20.0933 5.7401 20.0204L9.20496 18.8481C9.73297 17.3299 10.6111 15.9573 11.7683 14.8416C11.311 14.5607 10.9831 14.1104 10.8563 13.5889L10.0439 10.2674C10.0035 10.1023 10.0048 9.92966 10.0477 9.76516C10.0907 9.60066 10.1739 9.44944 10.2899 9.32516C10.406 9.20088 10.5511 9.10745 10.7123 9.0533C10.8734 8.99916 11.0456 8.986 11.2131 9.01503Z" fill="#FFBDBD" stroke="#B26868" stroke-width="1.5"/>
<path d="M13.8017 19.8099C14.4631 19.8099 14.9994 19.2737 14.9994 18.6122C14.9994 17.9508 14.4631 17.4146 13.8017 17.4146C13.1402 17.4146 12.604 17.9508 12.604 18.6122C12.604 19.2737 13.1402 19.8099 13.8017 19.8099Z" fill="#C56565"/>
<path d="M20.9819 13.0915C23.3634 12.7347 25.7868 12.7627 28.1594 13.1744" stroke="#B26868" stroke-linecap="round"/>
<path d="M39.7295 18.8487C41.7568 18.3446 43.0763 18.7566 43.6883 20.0846" stroke="#B26868" stroke-linecap="round"/>
</svg>
