<svg width="39" height="40" viewBox="0 0 39 40" fill="none" xmlns="http://www.w3.org/2000/svg">
<g clip-path="url(#clip0)">
<path d="M25.5017 5.74463L18.0001 21L33.2555 28.5016" fill="white"/>
<path d="M10.4985 36.2554C18.9238 40.3984 29.1125 36.9269 33.2555 28.5016C37.3985 20.0763 33.927 9.88764 25.5017 5.74463C17.0764 1.60162 6.88776 5.0731 2.74475 13.4984C-1.39826 21.9237 2.07323 32.1124 10.4985 36.2554Z" fill="white"/>
<path d="M24.8287 5.41368L17.3271 20.669L18.6732 21.3309L26.1747 6.07558L24.8287 5.41368ZM17.6692 21.673L32.9245 29.1746L33.5864 27.8286L18.3311 20.327L17.6692 21.673ZM17.7847 20.2816L1.41114 25.192L1.84203 26.6288L18.2156 21.7184L17.7847 20.2816ZM32.5825 28.1706C28.6222 36.2242 18.8831 39.5426 10.8295 35.5823L10.1676 36.9284C18.9646 41.2542 29.6027 37.6295 33.9285 28.8325L32.5825 28.1706ZM10.8295 35.5823C2.77588 31.6221 -0.542448 21.883 3.41778 13.8294L2.07172 13.1675C-2.25407 21.9645 1.37057 32.6026 10.1676 36.9284L10.8295 35.5823ZM3.41778 13.8294C7.37801 5.77576 17.1172 2.45743 25.1708 6.41766L25.8327 5.0716C17.0356 0.745805 6.39751 4.37045 2.07172 13.1675L3.41778 13.8294ZM25.1708 6.41766C33.2244 10.3779 36.5427 20.117 32.5825 28.1706L33.9285 28.8325C38.2543 20.0355 34.6297 9.39739 25.8327 5.0716L25.1708 6.41766Z" fill="#9F7AEA"/>
<path d="M18 1V20C18 20.5523 18.4477 21 19 21H30.7778H38" fill="#E7FEF8"/>
<path d="M18 1V20C18 20.5523 18.4477 21 19 21H30.7778H38C38 9.9543 29.0457 1 18 1Z" fill="#E7FEF8"/>
<path d="M18 1V0.25H17.25V1H18ZM38 21V21.75H38.75V21H38ZM17.25 1V20H18.75V1H17.25ZM18 1.75C28.6315 1.75 37.25 10.3685 37.25 21H38.75C38.75 9.54009 29.4599 0.25 18 0.25V1.75ZM19 21.75H30.7778V20.25H19V21.75ZM30.7778 21.75H38V20.25H30.7778V21.75ZM17.25 20C17.25 20.9665 18.0335 21.75 19 21.75V20.25C18.8619 20.25 18.75 20.1381 18.75 20H17.25Z" fill="#11C095"/>
</g>
<defs>
<clipPath id="clip0">
<rect width="39" height="40" fill="white"/>
</clipPath>
</defs>
</svg>
