<svg width="6" height="8" viewBox="0 0 6 8" fill="none" xmlns="http://www.w3.org/2000/svg">
<path fill-rule="evenodd" clip-rule="evenodd" d="M0.834327 7.76553C0.68435 7.61551 0.600098 7.41207 0.600098 7.19993C0.600098 6.9878 0.68435 6.78436 0.834327 6.63434L3.46873 3.99993L0.834327 1.36554C0.6886 1.21465 0.607965 1.01257 0.609787 0.802814C0.61161 0.593057 0.695745 0.392407 0.844072 0.24408C0.992398 0.095754 1.19305 0.0116186 1.40281 0.00979587C1.61256 0.00797313 1.81464 0.088609 1.96553 0.234335L5.16553 3.43434C5.3155 3.58436 5.39976 3.7878 5.39976 3.99993C5.39976 4.21207 5.3155 4.41551 5.16553 4.56553L1.96553 7.76553C1.8155 7.91551 1.61206 7.99976 1.39993 7.99976C1.1878 7.99976 0.984349 7.91551 0.834327 7.76553Z" fill="#1971E4"/>
</svg>
