<svg width="6" height="8" viewBox="0 0 6 8" fill="none" xmlns="http://www.w3.org/2000/svg">
<path fill-rule="evenodd" clip-rule="evenodd" d="M0.834327 7.7656C0.68435 7.61557 0.600098 7.41213 0.600098 7.2C0.600098 6.98786 0.68435 6.78442 0.834327 6.6344L3.46873 4L0.834327 1.3656C0.6886 1.21471 0.607965 1.01263 0.609787 0.802875C0.61161 0.593118 0.695745 0.392468 0.844072 0.244141C0.992398 0.095815 1.19305 0.0116796 1.40281 0.0098569C1.61256 0.00803417 1.81464 0.08867 1.96553 0.234396L5.16553 3.4344C5.3155 3.58442 5.39976 3.78786 5.39976 4C5.39976 4.21213 5.3155 4.41557 5.16553 4.5656L1.96553 7.7656C1.8155 7.91557 1.61206 7.99983 1.39993 7.99983C1.1878 7.99983 0.984349 7.91557 0.834327 7.7656Z" fill="#B3B3B3"/>
</svg>
