<svg width="32" height="32" viewBox="0 0 32 32" fill="none" xmlns="http://www.w3.org/2000/svg">
<g clip-path="url(#clip0)">
<path d="M26 1H6C3.23858 1 1 3.23858 1 6V26C1 28.7614 3.23858 31 6 31H26C28.7614 31 31 28.7614 31 26V6C31 3.23858 28.7614 1 26 1Z" fill="#E6E6E6" stroke="#181818" stroke-width="1.5" stroke-miterlimit="10" stroke-linecap="square"/>
<path d="M23 15.9995H31" stroke="#181818" stroke-width="1.5" stroke-miterlimit="10" stroke-linecap="round"/>
<path d="M1 15.9995H9" stroke="#181818" stroke-width="1.5" stroke-miterlimit="10" stroke-linecap="round"/>
<path d="M16 23C19.866 23 23 19.866 23 16C23 12.134 19.866 9 16 9C12.134 9 9 12.134 9 16C9 19.866 12.134 23 16 23Z" fill="white" stroke="#181818" stroke-width="1.5" stroke-miterlimit="10" stroke-linecap="square"/>
<path d="M17 15L20 12" stroke="#181818" stroke-width="1.5" stroke-miterlimit="10" stroke-linecap="round"/>
</g>
<defs>
<clipPath id="clip0">
<rect width="32" height="32" fill="white"/>
</clipPath>
</defs>
</svg>
