<svg width="41" height="40" viewBox="0 0 41 40" fill="none" xmlns="http://www.w3.org/2000/svg">
<path d="M17.2205 21.5213C15.1897 23.5095 12.5718 24.607 9.86026 24.607C7.14873 24.607 4.53084 23.5095 2.5 21.5213C4.10861 19.9501 6.09298 18.9263 8.21468 18.573C10.3364 18.2196 12.5052 18.5517 14.4604 19.5294C16.4157 20.507 18.0743 22.0886 19.2369 24.0841C20.3995 26.0797 21.0167 28.4042 21.0143 30.7785" fill="white"/>
<path d="M17.2205 21.5213C15.1897 23.5095 12.5718 24.607 9.86026 24.607C7.14873 24.607 4.53084 23.5095 2.5 21.5213C4.10861 19.9501 6.09298 18.9263 8.21468 18.573C10.3364 18.2196 12.5052 18.5517 14.4604 19.5294C16.4157 20.507 18.0743 22.0886 19.2369 24.0841C20.3995 26.0797 21.0167 28.4042 21.0143 30.7785" stroke="#1C9778" stroke-width="1.5" stroke-miterlimit="10"/>
<path d="M23.7794 21.5213C25.8102 23.5095 28.4281 24.607 31.1396 24.607C33.8512 24.607 36.469 23.5095 38.4999 21.5213C36.8913 19.9501 34.9069 18.9263 32.7852 18.573C30.6635 18.2196 28.4947 18.5517 26.5395 19.5294C24.5842 20.507 22.9256 22.0886 21.763 24.0841C20.6004 26.0797 19.9832 28.4042 19.9856 30.7785" fill="white"/>
<path d="M23.7794 21.5213C25.8102 23.5095 28.4281 24.607 31.1396 24.607C33.8512 24.607 36.469 23.5095 38.4999 21.5213C36.8913 19.9501 34.9069 18.9263 32.7852 18.573C30.6635 18.2196 28.4947 18.5517 26.5395 19.5294C24.5842 20.507 22.9256 22.0886 21.763 24.0841C20.6004 26.0797 19.9832 28.4042 19.9856 30.7785" stroke="#1C9778" stroke-width="1.5" stroke-miterlimit="10"/>
<path d="M20.6015 16.6357C24.862 16.6357 28.3158 13.1819 28.3158 8.92144C28.3158 4.66096 24.862 1.20715 20.6015 1.20715C16.341 1.20715 12.8872 4.66096 12.8872 8.92144C12.8872 13.1819 16.341 16.6357 20.6015 16.6357Z" fill="#FEFCBF" stroke="#1C9778" stroke-width="1.5" stroke-miterlimit="10" stroke-linecap="square"/>
<path d="M20.6016 16.8928V23.5785" stroke="#1C9778" stroke-width="1.5" stroke-miterlimit="10" stroke-linecap="square"/>
<path d="M20.6016 6.60718V11.2357" stroke="#1C9778" stroke-width="1.5" stroke-miterlimit="10" stroke-linecap="square"/>
<path d="M8.77295 28.4644H32.4301L31.3634 36.9981C31.2383 37.999 30.3875 38.7501 29.3788 38.7501H11.8242C10.8156 38.7501 9.96478 37.999 9.83967 36.9981L8.77295 28.4644Z" fill="#B6F1E0" stroke="#1C9778" stroke-width="1.5" stroke-miterlimit="10" stroke-linecap="square"/>
</svg>
