<svg width="30" height="26" viewBox="0 0 30 26" fill="none" xmlns="http://www.w3.org/2000/svg">
<path d="M4.255 19.3343C7.825 13.2463 11.43 7.12317 15 1L15.315 1.07038C16.61 3.14663 17.8 5.29325 19.06 7.3695C19.34 7.79179 19.725 8.35484 19.375 8.84751C18.15 11.0645 16.82 13.2815 15.595 15.5337C18.395 15.5337 21.195 15.4985 23.995 15.5337C25.64 18.5953 27.285 21.6569 29 24.6833V24.9648C26.165 24.9648 23.33 24.9648 20.495 25C18.675 22.0088 17.135 18.8416 15.315 15.8504C13.355 18.8064 11.815 22.0088 9.89 25C6.95 24.9648 3.975 25.0352 1 24.7889V24.7185C2.19 22.9941 3.135 21.129 4.255 19.3343Z" fill="#AC265B" stroke="#AC265B" stroke-width="0.09375"/>
</svg>
