<svg width="31" height="26" viewBox="0 0 31 26" fill="none" xmlns="http://www.w3.org/2000/svg">
<path fill-rule="evenodd" clip-rule="evenodd" d="M0 12.9994C0 5.81973 6.76682 0 15.1153 0C23.4642 0 30.231 5.81973 30.231 12.9994C30.231 20.1799 23.4642 26.0001 15.1153 26.0001C6.76682 26.0001 0 20.1799 0 12.9994Z" fill="#1F4578"/>
<path fill-rule="evenodd" clip-rule="evenodd" d="M13.2804 4.17383L16.7915 3.0134L16.8087 21.9984L13.2678 23.1849L13.2804 4.17383Z" fill="#ED3338"/>
<path fill-rule="evenodd" clip-rule="evenodd" d="M15.3648 16.0141C13.8386 17.8528 12.3636 19.7326 9.60051 19.7326C5.69717 19.7326 3.84839 15.9595 3.84839 12.8049C3.84839 9.77434 5.29439 6.1864 9.09485 6.1864C10.7441 6.1864 12.3334 7.19519 13.2779 8.26153L13.2755 10.8348C12.4859 10.3022 10.7149 9.7798 9.55864 9.76131C7.14793 9.7206 5.02154 10.7651 5.05975 13.1451C5.08452 14.7835 6.70693 15.8981 8.32221 15.8981C10.7963 15.8981 12.294 13.6382 13.5472 11.9226C13.8962 11.4749 14.8824 10.1569 15.0357 9.94611C16.4271 8.00283 18.0373 6.22713 20.8 6.22713C24.0536 6.22713 25.8801 8.85119 26.3976 11.5521H24.9301C24.3396 10.6765 23.2031 10.1406 22.0822 10.1406C19.5253 10.1406 17.9978 12.4925 16.7198 14.2241C16.7198 14.2241 15.7249 15.5806 15.365 16.0141H15.3648ZM26.4827 14.3098C26.153 17.0258 24.6306 19.7679 21.3038 19.7738C19.3631 19.7773 17.8452 18.4474 16.794 16.8209V14.9372C18.1094 15.5903 19.3379 16.2892 20.8288 16.3118C22.665 16.3391 24.3252 15.6323 25.0119 14.3098H26.4827Z" fill="white"/>
</svg>
