<svg width="34" height="22" viewBox="0 0 34 22" fill="none" xmlns="http://www.w3.org/2000/svg">
<path d="M14.6106 1.84337C15.6994 1.24096 17.0907 1.3012 18.3006 1C18.966 2.38554 20.0548 3.53012 21.0832 4.55422C21.0832 5.39759 21.0832 6.18072 21.0832 6.96386C23.6843 9.49398 26.4669 11.9639 29.9149 13.3494C30.5198 14.7349 31.7297 15.6386 33 16.3012C32.4556 16.6627 31.9111 17.0241 31.3062 17.4458C28.8866 14.9759 25.983 13.0482 23.2609 10.9398C21.9905 9.13253 19.6314 7.50603 20.3573 4.9759C19.8733 4.43374 19.3289 3.89157 18.845 3.40964C18.5425 3.6506 17.9376 4.13253 17.6352 4.43374C17.5747 5.75904 17.5142 7.14458 16.6068 8.22892C17.3327 8.95181 18.0586 9.6747 18.845 10.3976C18.5425 10.6988 17.9376 11.3012 17.6352 11.5422C18.3006 12.2651 19.0265 12.988 19.7524 13.6506C20.1758 14.9759 20.5992 16.3012 21.2042 17.5663C21.9905 17.2048 22.7769 16.8434 23.6238 16.4819C23.0794 15.5181 22.656 14.5542 22.2325 13.5301C24.1077 14.0723 24.7732 15.9398 25.741 17.4458C23.9868 17.988 22.293 18.5904 20.7807 19.7349C20.3573 18.7108 19.8129 17.8072 19.2684 16.8434C18.845 16.6627 18.4216 16.4819 17.9376 16.3012C17.6957 15.8193 17.2117 14.9759 16.9698 14.494C16.0019 16.1205 15.8809 18.0482 16.3043 19.8554C15.518 20.2169 14.6711 20.5783 13.8847 21C13.7032 20.759 13.2193 20.2771 13.0378 20.0361C13.2193 19.1325 13.4008 18.2892 13.5822 17.3855C13.1588 17.3855 12.1909 17.3855 11.7675 17.3855C10.9811 18.2289 10.1947 19.0121 9.40832 19.7952C8.98488 19.6747 8.0775 19.3735 7.65406 19.253C7.65406 18.4096 7.65406 17.5663 7.65406 16.7229C5.83932 16.4819 4.02457 16.3614 2.3913 17.3855C2.02836 17.3253 1.36295 17.1446 1.06049 17.0843C1.06049 16.241 1 15.3976 1 14.494C3.35917 13.4699 5.47637 11.7229 8.138 11.8434C8.74291 10.9398 9.22684 10.0361 9.71077 9.13253C11.949 7.08434 12.8563 4.19277 14.6106 1.84337Z" fill="#0D388E" stroke="#0D388E" stroke-width="0.09375"/>
</svg>
