<svg width="37" height="18" viewBox="0 0 37 18" fill="none" xmlns="http://www.w3.org/2000/svg">
<path d="M33.7116 3.25699C34.4183 2.95099 35.0914 2.61099 35.7645 2.30499C34.8895 6.01099 31.8606 8.73099 28.5962 10.431C29.4712 9.44499 30.5818 8.69699 31.3895 7.64299C32.4664 6.38499 33.1731 4.85499 33.7116 3.25699Z" fill="#F68026" stroke="#F68026" stroke-width="0.5"/>
<path d="M3.08654 1.013C3.82692 1.013 4.56731 1.013 5.27404 1.013C5.44231 2.305 5.61058 3.563 5.8125 4.821C6.35096 3.563 6.88942 2.271 7.46154 1.013C8.20192 1.013 8.97596 1.013 9.71635 1.013C9.54808 3.223 9.44712 5.433 9.41346 7.677C8.875 7.677 8.30288 7.677 7.73077 7.677C7.86538 6.181 8 4.719 8 3.223C7.22596 4.651 6.72115 6.215 6.08173 7.677C5.64423 7.677 5.20673 7.677 4.76923 7.643C4.63462 6.147 4.39904 4.617 4.23077 3.087C3.82692 4.583 3.59135 6.147 3.22115 7.643C2.68269 7.677 2.14423 7.677 1.60577 7.677C2.11058 5.467 2.61538 3.257 3.08654 1.013ZM11.0962 1.047C11.7019 1.013 12.3077 1.013 12.9135 1.013C12.6106 3.223 12.274 5.433 12.0048 7.677C11.399 7.677 10.7933 7.677 10.1875 7.677C10.4904 5.467 10.8269 3.257 11.0962 1.047ZM13.9904 1.013C15.2356 1.081 16.5817 0.809004 17.7933 1.319C19.1731 2.237 18.601 4.787 16.9183 4.923C17.3558 5.807 17.7933 6.759 18.2308 7.677C17.6587 7.677 17.0865 7.677 16.4808 7.677C16.0433 6.623 15.6394 5.535 15.1346 4.549C14.9327 5.569 14.8317 6.623 14.6971 7.643C14.1587 7.677 13.5865 7.677 13.0481 7.677C13.351 5.467 13.6875 3.257 13.9904 1.013ZM21.2933 1.013C22.0337 1.013 22.774 1.013 23.4808 1.013C23.851 3.257 24.1875 5.467 24.5913 7.677C24.0192 7.677 23.4471 7.677 22.875 7.677C22.8413 7.201 22.774 6.759 22.7404 6.283C22.0337 6.283 21.3269 6.317 20.6202 6.351C20.4519 6.793 20.2837 7.235 20.1154 7.677C19.5433 7.677 18.9375 7.677 18.3654 7.677C19.375 5.467 20.3173 3.223 21.2933 1.013ZM25.9038 1.013C27.25 1.047 28.6298 1.047 30.0096 1.013C29.976 1.489 29.9087 1.965 29.875 2.441C29.0337 2.441 28.1923 2.407 27.351 2.407C27.2837 2.815 27.25 3.257 27.2163 3.665C27.9567 3.665 28.6971 3.665 29.4375 3.631C29.4038 4.107 29.3365 4.583 29.3029 5.025C28.5288 5.025 27.7548 4.991 26.9808 4.991C26.9135 5.433 26.8798 5.841 26.8125 6.249C27.6538 6.249 28.4952 6.249 29.3365 6.249C29.3029 6.725 29.2356 7.201 29.1683 7.643C27.7548 7.677 26.3413 7.643 24.9279 7.677C25.2644 5.467 25.5673 3.223 25.9038 1.013ZM3.92788 10.805C4.66827 10.805 5.375 10.805 6.11538 10.839C6.25 11.689 6.38462 12.539 6.51923 13.423C5.87981 13.253 5.24038 13.083 4.60096 12.947C4.12981 13.389 3.65865 13.831 3.1875 14.307C6.25 14.579 9.34615 14.783 12.4087 14.545C12.6779 15.939 11.7356 17.571 10.2548 17.639C9.14423 17.809 8.10096 17.265 7.25962 16.551C7.52885 16.109 7.79808 15.633 8.06731 15.191C8.74038 15.905 10.3894 16.721 10.6923 15.225C9.37981 15.157 8.10096 15.157 6.82212 15.089C6.92308 15.905 7.05769 16.687 7.22596 17.469C6.65385 17.469 6.08173 17.469 5.50962 17.469C5.44231 16.891 5.34135 16.347 5.24038 15.769C4.66827 15.769 4.0625 15.769 3.45673 15.769C3.22115 16.347 2.98558 16.891 2.75 17.469C2.17788 17.469 1.57212 17.469 1 17.469C1.97596 15.259 2.95192 13.015 3.92788 10.805Z" fill="#00447B" stroke="#00447B" stroke-width="0.5"/>
<path d="M8.81062 11.0131C9.85389 10.1291 11.4356 10.4351 12.5462 11.0811C12.3443 11.4891 12.1424 11.9311 11.9741 12.3391C11.3347 12.1011 10.2241 11.3191 9.95486 12.4071C10.1568 13.0871 10.9981 13.2911 11.5029 13.6651C10.3924 13.6311 9.24812 13.5631 8.13755 13.5291C7.96928 12.6451 8.07024 11.6251 8.81062 11.0131ZM14.1852 10.7913C15.2622 10.1793 16.541 10.5193 17.5506 11.0633C17.3823 11.5053 17.1804 11.9813 16.9785 12.4233C16.3727 12.1853 15.767 11.5053 15.1275 12.0493C14.7237 12.8653 15.6997 13.1373 16.1708 13.5113C15.2285 13.5793 14.2525 13.6133 13.3102 13.6813C12.8727 12.6953 13.1756 11.3353 14.1852 10.7913ZM18.8366 10.805C20.2164 10.805 21.5962 10.805 23.0097 10.805C22.9424 11.281 22.8751 11.757 22.8078 12.233C21.9664 12.233 21.0914 12.233 20.2501 12.233C20.2501 12.471 20.1828 12.879 20.1828 13.117C19.6107 13.219 19.0385 13.321 18.5001 13.423C18.6347 12.539 18.7357 11.689 18.8366 10.805Z" fill="#00447B" stroke="#00447B" stroke-width="0.5"/>
<path d="M23.447 10.805C24.7258 10.839 26.0383 10.737 27.3172 10.907C25.971 11.485 24.5912 11.961 23.2114 12.403C23.2787 11.859 23.3797 11.349 23.447 10.805Z" fill="#004079" stroke="#004079" stroke-width="0.5"/>
<path d="M15.0001 14.307C19.5097 13.797 24.0866 12.845 28.1924 10.805C28.0914 11.315 27.9905 11.825 27.8895 12.369C27.452 12.369 27.0145 12.369 26.577 12.369C26.3414 14.035 26.1395 15.701 25.8703 17.367C25.2645 17.367 24.6587 17.367 24.053 17.367C24.3222 15.803 24.4905 14.239 24.726 12.675C23.9857 12.947 23.2453 13.219 22.4712 13.457C22.4039 13.865 22.303 14.307 22.202 14.715C21.428 14.681 20.6539 14.681 19.8799 14.749C19.8462 15.157 19.8126 15.565 19.7789 15.973C20.6203 15.939 21.4616 15.939 22.303 15.939C22.2693 16.279 22.1683 16.993 22.1347 17.367C20.7212 17.333 19.3078 17.333 17.928 17.367C18.0289 16.381 18.1972 15.395 18.3318 14.409C18.1635 14.409 17.7597 14.443 17.5914 14.477C17.5241 15.293 17.5914 16.313 16.851 16.891C15.5722 18.047 13.5866 17.537 12.4424 16.449C12.7116 16.007 13.0145 15.565 13.2837 15.123C13.8558 15.531 14.4616 16.109 15.2357 15.973C15.8078 15.905 15.9424 14.953 15.3366 14.817C14.6299 14.783 13.8895 14.885 13.1491 14.953C13.2164 14.783 13.2837 14.443 13.351 14.273C13.8895 14.375 14.428 14.375 15.0001 14.307Z" fill="#00447B" stroke="#00447B" stroke-width="0.5"/>
<path d="M15.1682 4.073C15.2692 3.461 15.3701 2.849 15.4374 2.237C15.9086 2.339 16.8173 2.203 16.7836 2.951C16.9519 3.903 15.8413 4.073 15.1682 4.073ZM21.1586 4.991C21.4951 4.141 21.8317 3.291 22.2019 2.475C22.3365 3.325 22.4374 4.141 22.5384 4.957C22.0673 4.991 21.6298 4.991 21.1586 4.991Z" fill="white" stroke="white" stroke-width="0.5"/>
</svg>
