<svg width="32" height="32" viewBox="0 0 32 32" fill="none" xmlns="http://www.w3.org/2000/svg">
<g clip-path="url(#clip0)">
<path d="M23.5862 18.7311V31L16.3449 27.8966L9.10352 31V18.7311" fill="#E6E6E6"/>
<path d="M23.5862 18.7311V31L16.3449 27.8966L9.10352 31V18.7311" stroke="#181818" stroke-width="1.5" stroke-miterlimit="10"/>
<path fill-rule="evenodd" clip-rule="evenodd" d="M11.1337 3.0914C12.0584 3.01757 12.9363 2.65386 13.6422 2.05207C14.4395 1.37297 15.4527 1 16.5 1C17.5473 1 18.5605 1.37297 19.3578 2.05207C20.0638 2.65386 20.9416 3.01757 21.8663 3.0914C22.9105 3.17485 23.8909 3.62754 24.6317 4.3683C25.3725 5.10906 25.8251 6.08946 25.9086 7.13372C25.9819 8.05805 26.3456 8.93638 26.9479 9.6422C27.627 10.4395 28 11.4527 28 12.5C28 13.5473 27.627 14.5605 26.9479 15.3578C26.3461 16.0638 25.9824 16.9416 25.9086 17.8663C25.8251 18.9105 25.3725 19.8909 24.6317 20.6317C23.8909 21.3725 22.9105 21.8251 21.8663 21.9086C20.9416 21.9824 20.0638 22.3461 19.3578 22.9479C18.5605 23.627 17.5473 24 16.5 24C15.4527 24 14.4395 23.627 13.6422 22.9479C12.9363 22.3461 12.0584 21.9824 11.1337 21.9086C10.0895 21.8251 9.10906 21.3725 8.3683 20.6317C7.62754 19.8909 7.17485 18.9105 7.0914 17.8663C7.01757 16.9416 6.65386 16.0638 6.05207 15.3578C5.37297 14.5605 5 13.5473 5 12.5C5 11.4527 5.37297 10.4395 6.05207 9.6422C6.65386 8.93625 7.01757 8.05842 7.0914 7.13372C7.17485 6.08946 7.62754 5.10906 8.3683 4.3683C9.10906 3.62754 10.0895 3.17485 11.1337 3.0914Z" fill="#E6E6E6" stroke="#181818" stroke-width="1.5" stroke-miterlimit="10" stroke-linecap="square"/>
<circle cx="16.5" cy="12.5" r="6.5" fill="white" stroke="#181818" stroke-width="1.5" stroke-miterlimit="10" stroke-linecap="square"/>
<path d="M14 12L16.5 14.5L21.5 9" stroke="#181818" stroke-width="1.5" stroke-miterlimit="10" stroke-linecap="round" stroke-linejoin="round"/>
</g>
<defs>
<clipPath id="clip0">
<rect width="32" height="32" fill="white" transform="matrix(-1 0 0 1 32 0)"/>
</clipPath>
</defs>
</svg>
