<svg width="12" height="12" viewBox="0 0 12 12" fill="none" xmlns="http://www.w3.org/2000/svg">
<path fill-rule="evenodd" clip-rule="evenodd" d="M4.50897 0.548904C4.14065 0.862883 3.68265 1.05264 3.2002 1.09116C2.65537 1.13471 2.14386 1.37089 1.75737 1.75737C1.37089 2.14386 1.13471 2.65537 1.09116 3.2002C1.05264 3.68265 0.862883 4.14065 0.548904 4.50897C0.194592 4.92498 0 5.45356 0 6C0 6.54644 0.194592 7.07502 0.548904 7.49103C0.862883 7.85935 1.05264 8.31735 1.09116 8.7998C1.13471 9.34463 1.37089 9.85614 1.75737 10.2426C2.14386 10.6291 2.65537 10.8653 3.2002 10.9088C3.68265 10.9474 4.14065 11.1371 4.50897 11.4511C4.92498 11.8054 5.45356 12 6 12C6.54644 12 7.07502 11.8054 7.49103 11.4511C7.85935 11.1371 8.31735 10.9474 8.7998 10.9088C9.34463 10.8653 9.85614 10.6291 10.2426 10.2426C10.6291 9.85614 10.8653 9.34463 10.9088 8.7998C10.9474 8.31735 11.1371 7.85935 11.4511 7.49103C11.8054 7.07502 12 6.54644 12 6C12 5.45356 11.8054 4.92498 11.4511 4.50897C11.1368 4.14072 10.9471 3.68246 10.9088 3.2002C10.8653 2.65537 10.6291 2.14386 10.2426 1.75737C9.85614 1.37089 9.34463 1.13471 8.7998 1.09116C8.31735 1.05264 7.85935 0.862883 7.49103 0.548904C7.07502 0.194592 6.54644 0 6 0C5.45356 0 4.92498 0.194592 4.50897 0.548904ZM6.47939 2.57742C6.32857 2.14086 5.6713 2.14086 5.51997 2.57742L5.52048 2.57789L4.98074 4.1383C4.94774 4.23341 4.88356 4.31627 4.7974 4.37502C4.71123 4.43376 4.60749 4.46539 4.50103 4.46536H2.75522C2.26693 4.46536 2.06365 5.05312 2.45861 5.3233L3.8705 6.28695C3.95674 6.34574 4.02096 6.42868 4.05395 6.52388C4.08693 6.61908 4.08699 6.72165 4.05411 6.81688L3.51438 8.37729C3.36355 8.81385 3.89522 9.1774 4.29069 8.90722L5.70308 7.94311C5.78923 7.88433 5.89297 7.85268 5.99943 7.85268C6.1059 7.85268 6.20963 7.88433 6.29578 7.94311L7.70817 8.90722C8.10415 9.1774 8.63632 8.81385 8.48499 8.37729L7.94525 6.81688C7.91238 6.72165 7.91244 6.61908 7.94542 6.52388C7.97841 6.42868 8.04262 6.34574 8.12887 6.28695L9.54126 5.32283C9.93622 5.05265 9.73344 4.46489 9.24466 4.46489H7.49833C7.39196 4.46481 7.28834 4.43314 7.20227 4.3744C7.11621 4.31566 7.0521 4.23286 7.01913 4.13783L6.47939 2.57742Z" fill="#0FAC85"/>
</svg>
