<svg width="36" height="10" viewBox="0 0 36 10" fill="none" xmlns="http://www.w3.org/2000/svg">
<path d="M1.00024 1.0727C3.63698 1.0727 6.3431 1.0727 8.97984 1.0727C8.97984 1.65451 8.97984 2.74542 8.91045 3.25451C8.14718 3.25451 7.38392 3.25451 6.62065 3.25451C6.62065 5.14542 6.62065 6.96361 6.62065 8.85452C5.51045 8.85452 4.40024 8.85452 3.29004 8.85452C3.29004 6.96361 3.29004 5.14542 3.29004 3.25451C2.73494 3.25451 1.55535 3.25451 1.00024 3.25451C1.00024 2.74542 1.00024 1.58179 1.00024 1.0727ZM11.4778 0.999969C12.6574 1.0727 13.837 1.0727 15.0166 1.0727C15.988 3.69088 17.1676 6.23633 18.2778 8.85452C17.1676 8.78179 16.0574 8.78179 14.9472 8.85452C14.3227 7.32724 13.7676 5.79997 13.2125 4.34542C12.588 5.79997 11.9635 7.32724 11.4084 8.78179C10.2982 8.78179 9.188 8.78179 8.14718 8.85452C9.25739 6.23633 10.3676 3.61815 11.4778 0.999969Z" fill="#0074C1" stroke="#0074C1" stroke-width="0.5"/>
<path d="M17.4451 1.0727C20.0818 1.0727 22.7185 1.0727 25.4247 1.0727C25.4247 1.58179 25.4247 2.74543 25.4247 3.25452C24.8002 3.25452 23.6206 3.25452 23.0655 3.25452C23.0655 5.14543 23.0655 6.96361 23.0655 8.78179C21.9553 8.78179 20.7757 8.85452 19.6655 8.85452C19.6655 6.96361 19.6655 5.14543 19.6655 3.25452C19.1104 3.25452 18.0002 3.25452 17.4451 3.25452C17.4451 2.74543 17.4451 1.65452 17.4451 1.0727Z" fill="#0071C0" stroke="#0071C0" stroke-width="0.5"/>
<path d="M27.8533 1.0727C28.9635 1.0727 30.1431 1.0727 31.3227 0.999969C32.4329 3.61815 33.4737 6.23633 34.6533 8.85452C33.5431 8.78179 32.4329 8.78179 31.3227 8.78179C30.7676 7.32724 30.1431 5.8727 29.588 4.41815C28.9635 5.8727 28.339 7.32724 27.7839 8.78179C26.6737 8.78179 25.6329 8.85452 24.5227 8.85452C25.6329 6.23633 26.8125 3.69088 27.8533 1.0727Z" fill="#0074C1" stroke="#0074C1" stroke-width="0.5"/>
</svg>
