<svg width="48" height="48" viewBox="0 0 48 48" fill="none" xmlns="http://www.w3.org/2000/svg">
<path fill-rule="evenodd" clip-rule="evenodd" d="M9.11022 43C8.52991 43 8.00295 42.7616 7.62067 42.3793C7.2384 41.9971 7 41.4701 7 40.8898V5.08379L9.86948 6.51853L12.9065 5.00002L15.9435 6.51853L18.9806 5.00002L22.0176 6.51853L25.0546 5.00002L28.0916 6.51853L31.1287 5.00002L34.1657 6.51853L37.0343 5.08424L36.9582 41.153C36.8528 41.2815 36.6644 41.3822 36.3883 41.4951C35.608 41.8143 34.2954 42.0827 32.1092 42.313C28.0258 42.7432 21.041 43 9.11022 43Z" fill="white" stroke="#5890DA" stroke-width="1.5"/>
<path fill-rule="evenodd" clip-rule="evenodd" d="M40.9722 35.404H11.2427C11.2427 38.3357 11.2427 39.9787 11.2427 40.333C11.2427 41.8591 10.6119 42.9966 9.00684 42.9966H39.4536C40.2888 42.9966 40.9722 42.3133 40.9722 41.4781V35.404Z" fill="#8DBFFF" stroke="#5890DA" stroke-width="1.5"/>
<path d="M16.9159 26.5767L29.2776 14.0858" stroke="#5890DA" stroke-width="1.5" stroke-linecap="round"/>
<path d="M24.1341 24.2208C23.1288 24.2208 22.3139 25.0358 22.3139 26.0411C22.3139 27.0464 23.1288 27.8613 24.1341 27.8613C25.1394 27.8613 25.9543 27.0464 25.9543 26.0411C25.9543 25.0358 25.1394 24.2208 24.1341 24.2208Z" stroke="#5890DA" stroke-width="1.5"/>
<path d="M22.1195 12.7155C21.1142 12.7155 20.2992 13.5304 20.2992 14.5357C20.2992 15.541 21.1142 16.356 22.1195 16.356C23.1247 16.356 23.9397 15.541 23.9397 14.5357C23.9397 13.5304 23.1247 12.7155 22.1195 12.7155Z" stroke="#5890DA" stroke-width="1.5"/>
</svg>
