<svg width="16" height="16" viewBox="0 0 16 16" fill="none" xmlns="http://www.w3.org/2000/svg">
<path d="M2.29356 0.737136C2.68414 0.346881 3.31647 0.346881 3.70705 0.737136L6.28431 3.31621C6.67389 3.70647 6.67289 4.33826 6.28331 4.72752L4.32465 6.68453C4.14039 6.86839 4.14051 7.16635 4.32465 7.34976L8.65353 11.675C8.83756 11.8583 9.1353 11.8583 9.31933 11.675L11.275 9.72099C11.6656 9.33073 12.2999 9.33073 12.6895 9.72298L15.2647 12.312C15.6533 12.7023 15.6523 13.3321 15.2627 13.7213L13.5679 15.4148C13.1928 15.7895 12.6832 16.0073 12.1541 15.974C5.78034 15.5733 0.654732 10.5793 0.0580528 4.26923C-0.0168575 3.47702 0.316316 2.71185 0.879345 2.14954L2.29356 0.737136ZM8 0C12.411 0 16 3.589 16 8H14C14 4.691 11.309 2 8 2V0Z" fill="white"/>
</svg>
