<svg width="8" height="6" viewBox="0 0 8 6" fill="none" xmlns="http://www.w3.org/2000/svg">
<path fill-rule="evenodd" clip-rule="evenodd" d="M7.76553 5.16565C7.61551 5.31563 7.41207 5.39988 7.19994 5.39988C6.9878 5.39988 6.78436 5.31563 6.63434 5.16565L3.99994 2.53125L1.36554 5.16565C1.21465 5.31138 1.01257 5.39201 0.802814 5.39019C0.593057 5.38837 0.392407 5.30423 0.24408 5.1559C0.095754 5.00758 0.0116186 4.80693 0.00979587 4.59717C0.00797313 4.38741 0.088609 4.18533 0.234335 4.03445L3.43434 0.834449C3.58436 0.684472 3.7878 0.60022 3.99994 0.60022C4.21207 0.60022 4.41551 0.684472 4.56554 0.834449L7.76553 4.03445C7.91551 4.18447 7.99976 4.38792 7.99976 4.60005C7.99976 4.81218 7.91551 5.01563 7.76553 5.16565Z" fill="#737373"/>
</svg>
